<?xml version="1.0" encoding="UTF-8" standalone="no"?>
<!-- Created with Inkscape (http://www.inkscape.org/) -->

<svg
   xmlns:dc="http://purl.org/dc/elements/1.1/"
   xmlns:cc="http://creativecommons.org/ns#"
   xmlns:rdf="http://www.w3.org/1999/02/22-rdf-syntax-ns#"
   xmlns:svg="http://www.w3.org/2000/svg"
   xmlns="http://www.w3.org/2000/svg"
   version="1.2"
   width="1029.4977"
   height="235.077"
   viewBox="0 0 1029.4977 235.077"
   id="Layer_1"
   xml:space="preserve"><metadata
     id="metadata55"><rdf:RDF><cc:Work
         rdf:about=""><dc:format>image/svg+xml</dc:format><dc:type
           rdf:resource="http://purl.org/dc/dcmitype/StillImage" /><dc:title></dc:title></cc:Work></rdf:RDF></metadata><defs
     id="defs53" /><g
     transform="translate(5,5)"
     id="g3"><g
       id="g5"><polygon
         points="87.217,75.18 87.217,75.18 87.41,75.18 87.41,75.113 87.217,75.113 "
         id="polygon7"
         style="fill:#ffffff" /><path
         d="m 109.929,56.244 c -4.75,-0.723 -9.235,-1.416 -13.29,-1.416 -2.175,0 -4.08,0.214 -5.778,0.62 L 89.913,28.949 v -4.395 c 1.871,-0.785 4.136,-1.15 7.026,-1.15 3.697,0 7.941,0.62 12.418,1.276 3.943,0.579 7.998,1.149 12.15,1.421 l 1.142,31.674 c -4.263,-0.234 -8.552,-0.879 -12.72,-1.531 l 0,0 z m -45.231,0 c -4.169,0.652 -8.458,1.297 -12.722,1.531 l 1.136,-31.674 c 4.161,-0.271 8.212,-0.842 12.156,-1.421 4.481,-0.656 8.717,-1.276 12.418,-1.276 2.881,0 5.155,0.365 7.026,1.15 v 4.395 l -0.944,26.499 c -1.703,-0.406 -3.599,-0.62 -5.778,-0.62 -4.062,0 -8.543,0.693 -13.292,1.416 l 0,0 z m 67.329,-18.689 v -6.023 h -3.718 V 21.238 h -2.508 c -5.319,0 -10.601,-0.771 -15.714,-1.523 -4.669,-0.681 -9.078,-1.334 -13.148,-1.334 -3.834,0 -6.994,0.604 -9.624,1.839 -2.631,-1.235 -5.8,-1.839 -9.628,-1.839 -4.071,0 -8.479,0.653 -13.145,1.334 -5.113,0.752 -10.404,1.523 -15.718,1.523 h -2.508 v 10.293 h -3.713 v 6.023 h 3.713 v 8.154 h -3.673 v 6.025 h 3.673 v 11.171 h 2.508 c 5.685,0 11.253,-0.862 16.642,-1.695 4.551,-0.697 8.852,-1.366 12.525,-1.366 2.955,0 5.183,0.43 6.903,1.325 l 0,0 h 4.838 l 0,0 c 1.724,-0.896 3.948,-1.325 6.907,-1.325 3.673,0 7.97,0.669 12.521,1.366 5.388,0.833 10.965,1.695 16.642,1.695 h 2.508 v -11.17 h 3.668 v -6.025 h -3.668 v -8.154 h 3.717 l 0,0 z"
         id="path9"
         style="fill:#ffffff" /><path
         d="m 65.384,29.232 c -0.251,0.033 -0.493,0.074 -0.743,0.106 -2.359,0.349 -4.756,0.702 -7.177,0.977 l -0.14,4.063 c 2.68,-0.291 5.307,-0.686 7.9,-1.067 0.054,-0.009 0.107,-0.017 0.16,-0.024 v -4.055 l 0,0 z"
         id="path11"
         style="fill:#ffffff" /><path
         d="m 68.396,28.801 v 4.055 c 4.267,-0.595 8.191,-1.018 11.589,-0.738 l 0.143,-3.996 c -3.627,-0.281 -7.599,0.116 -11.732,0.679 l 0,0 z"
         id="path13"
         style="fill:#ffffff" /><path
         d="m 65.384,47.61 c -0.251,0.036 -0.493,0.068 -0.743,0.11 -2.572,0.378 -5.191,0.76 -7.838,1.051 l -0.148,4.055 c 2.911,-0.309 5.767,-0.725 8.569,-1.133 0.054,-0.009 0.107,-0.018 0.16,-0.025 V 47.61 l 0,0 z"
         id="path15"
         style="fill:#ffffff" /><path
         d="m 68.396,47.183 v 4.055 c 3.997,-0.554 7.686,-0.968 10.929,-0.788 l 0.148,-3.996 c -3.452,-0.183 -7.191,0.199 -11.077,0.729 l 0,0 z"
         id="path17"
         style="fill:#ffffff" /><path
         d="m 64.76,38.516 v 4.062 c 0.156,-0.024 0.307,-0.049 0.464,-0.074 5.368,-0.783 10.276,-1.506 14.434,-1.23 l 0.14,-3.989 C 75.204,37.002 70.07,37.731 64.76,38.516 l 0,0 z"
         id="path19"
         style="fill:#ffffff" /><path
         d="m 61.748,38.946 c -1.527,0.218 -3.066,0.423 -4.617,0.604 l -0.143,4.055 c 1.604,-0.173 3.192,-0.386 4.76,-0.604 v -4.055 l 0,0 z"
         id="path21"
         style="fill:#ffffff" /><path
         d="m 104.4,28.567 c -3.476,-0.423 -6.817,-0.685 -9.903,-0.446 l 0.144,3.996 c 2.901,-0.238 6.202,0.041 9.76,0.497 v -4.047 l -10e-4,0 z"
         id="path23"
         style="fill:#ffffff" /><path
         d="m 117.163,30.315 c -2.421,-0.274 -4.818,-0.628 -7.183,-0.977 -0.862,-0.123 -1.715,-0.25 -2.568,-0.365 v 4.055 c 0.656,0.091 1.317,0.185 1.995,0.283 2.584,0.382 5.219,0.776 7.904,1.067 l -0.148,-4.063 0,0 z"
         id="path25"
         style="fill:#ffffff" /><path
         d="m 103.575,37.657 c -3.062,-0.349 -6,-0.541 -8.75,-0.373 l 0.148,3.989 c 2.593,-0.168 5.481,0.041 8.601,0.422 v -4.038 l 0.001,0 z"
         id="path27"
         style="fill:#ffffff" /><path
         d="m 117.491,39.55 c -2.533,-0.288 -5.044,-0.653 -7.511,-1.018 -1.136,-0.165 -2.273,-0.337 -3.394,-0.489 v 4.056 c 0.919,0.126 1.855,0.267 2.82,0.405 2.691,0.398 5.441,0.797 8.232,1.101 l -0.147,-4.055 0,0 z"
         id="path29"
         style="fill:#ffffff" /><path
         d="m 109.599,51.717 c 2.738,0.406 5.528,0.81 8.368,1.109 l -0.139,-4.055 c -2.652,-0.291 -5.27,-0.673 -7.848,-1.051 -0.126,-0.025 -0.25,-0.042 -0.381,-0.059 v 4.056 l 0,0 z"
         id="path31"
         style="fill:#ffffff" /><path
         d="m 106.587,47.232 c -4.014,-0.555 -7.879,-0.961 -11.438,-0.779 l 0.148,3.996 c 3.34,-0.18 7.152,0.25 11.29,0.838 v -4.055 l 0,0 z"
         id="path33"
         style="fill:#ffffff" /><path
         d="m 82.09,112.049 5.225,-13.066 5.224,13.066 14.048,0.936 -10.818,9.013 3.459,13.638 -11.913,-7.506 -11.906,7.506 3.451,-13.638 -10.813,-9.013 14.043,-0.936 0,0 z m -31.825,-4.637 v 0.008 l 22.703,16.498 -8.75,26.894 c 0.008,0.049 0.033,0.099 0.074,0.131 0.041,0.033 0.09,0.033 0.14,0.033 l 22.884,-16.642 22.875,16.634 c 0.049,0.008 0.103,0 0.14,-0.025 0.074,-0.057 0.086,-0.155 0.045,-0.246 l -8.705,-26.786 22.699,-16.49 -0.008,-0.008 c 0.11,-0.041 0.168,-0.148 0.135,-0.255 -0.029,-0.099 -0.143,-0.147 -0.25,-0.114 v -0.009 H 96.184 L 87.517,80.351 h -0.013 c 0,-0.114 -0.077,-0.214 -0.188,-0.214 -0.107,0 -0.194,0.1 -0.194,0.214 H 87.11 l -8.663,26.684 H 50.388 l -0.008,0.017 c -0.107,-0.041 -0.222,0.016 -0.255,0.115 -0.028,0.097 0.024,0.212 0.14,0.245 l 0,0 z"
         id="path35"
         style="fill:#ffffff" /><path
         d="m 143.649,141.139 c -2.043,2.26 -4.703,3.83 -7.641,4.535 0.414,-3.005 1.715,-5.815 3.759,-8.061 2.064,-2.271 4.719,-3.85 7.645,-4.543 -0.413,2.995 -1.71,5.811 -3.763,8.069 l 0,0 z m -10.978,-17.653 c -0.39,-3.036 0.14,-6.079 1.498,-8.781 2.003,2.26 3.292,5.064 3.689,8.102 0.407,3.02 -0.123,6.064 -1.486,8.757 -2.01,-2.253 -3.302,-5.064 -3.701,-8.078 l 0,0 z m 6.079,-22.972 c -0.566,-3.014 -0.226,-6.078 0.969,-8.857 2.133,2.135 3.595,4.859 4.169,7.863 0.583,2.996 0.242,6.066 -0.965,8.854 -2.137,-2.144 -3.594,-4.874 -4.173,-7.86 l 0,0 z m 14.503,6.701 c 0.208,3.029 -0.48,6.041 -2.02,8.68 -1.539,2.635 -3.809,4.72 -6.538,6.021 -0.214,-3.024 0.472,-6.036 2.011,-8.675 1.548,-2.649 3.817,-4.725 6.547,-6.026 l 0,0 z m -22.235,57.056 c -2.466,1.789 -5.364,2.766 -8.409,2.864 1.026,-2.864 2.873,-5.335 5.338,-7.114 2.483,-1.808 5.385,-2.784 8.418,-2.866 -1.021,2.857 -2.873,5.327 -5.347,7.116 l 0,0 z m -7.101,-19.534 c 0.247,-3.062 1.396,-5.918 3.284,-8.282 1.498,2.615 2.179,5.627 1.937,8.674 -0.23,3.045 -1.375,5.924 -3.271,8.284 -1.497,-2.626 -2.183,-5.63 -1.95,-8.676 l 0,0 z m -7.924,20.454 c -0.854,2.922 -2.569,5.499 -4.908,7.42 -0.923,-2.873 -0.977,-5.959 -0.119,-8.89 0.875,-2.938 2.589,-5.517 4.925,-7.428 0.923,2.865 0.968,5.96 0.102,8.898 l 0,0 z m 4.592,13.247 c -1.597,2.577 -3.915,4.62 -6.71,5.86 -1.941,0.87 -3.993,1.313 -6.11,1.313 l 0,0 c -0.907,0 -1.815,-0.082 -2.709,-0.246 1.597,-2.577 3.915,-4.612 6.706,-5.86 2.786,-1.247 5.861,-1.599 8.823,-1.067 l 0,0 z m -26.207,1.191 c 1.465,-2.7 3.668,-4.867 6.349,-6.255 0.308,2.996 -0.278,6.024 -1.736,8.725 -1.44,2.693 -3.644,4.854 -6.336,6.255 -0.308,-3.013 0.274,-6.042 1.723,-8.725 l 0,0 z m -33.919,4.67 c -2.791,-1.24 -5.114,-3.283 -6.71,-5.86 2.963,-0.532 6.033,-0.181 8.827,1.067 2.787,1.248 5.105,3.283 6.702,5.86 -2.967,0.55 -6.041,0.181 -8.819,-1.067 l 0,0 z m -2.118,-19.116 c -0.861,-2.93 -0.812,-6.024 0.111,-8.889 2.327,1.911 4.047,4.481 4.917,7.42 0.857,2.938 0.808,6.024 -0.119,8.897 -2.339,-1.921 -4.055,-4.498 -4.909,-7.428 l 0,0 z m 15.275,8.191 c 2.672,1.388 4.88,3.555 6.345,6.238 1.445,2.7 2.036,5.729 1.719,8.741 -2.688,-1.4 -4.896,-3.562 -6.336,-6.255 -1.448,-2.7 -2.044,-5.728 -1.728,-8.724 l 0,0 z m -30.295,-9.103 c -2.475,-1.789 -4.321,-4.26 -5.352,-7.116 3.037,0.082 5.938,1.059 8.413,2.866 2.474,1.779 4.321,4.25 5.347,7.114 -3.044,-0.098 -5.942,-1.074 -8.408,-2.864 l 0,0 z m 3.816,-27.816 c 1.893,2.364 3.029,5.221 3.284,8.273 0.233,3.055 -0.456,6.059 -1.953,8.685 -1.896,-2.36 -3.037,-5.239 -3.275,-8.292 -0.234,-3.039 0.446,-6.051 1.944,-8.666 l 0,0 z m -16.452,4.684 c -2.04,-2.258 -3.345,-5.073 -3.759,-8.068 2.926,0.693 5.586,2.272 7.642,4.543 2.048,2.245 3.345,5.056 3.759,8.061 -2.939,-0.706 -5.598,-2.277 -7.642,-4.536 l 0,0 z m -1.038,-19.224 c -2.729,-1.301 -5.002,-3.386 -6.542,-6.021 -1.539,-2.639 -2.225,-5.65 -2.016,-8.68 2.721,1.301 4.999,3.377 6.546,6.025 1.531,2.64 2.221,5.652 2.012,8.676 l 0,0 z m 0.8,-22.403 c 0.579,-3.004 2.04,-5.721 4.174,-7.855 1.194,2.779 1.534,5.844 0.969,8.849 -0.579,2.995 -2.036,5.726 -4.178,7.868 -1.207,-2.788 -1.548,-5.858 -0.965,-8.862 l 0,0 z m 6.029,23.286 c 0.398,-3.028 1.687,-5.833 3.693,-8.093 1.363,2.702 1.893,5.745 1.498,8.773 -0.398,3.021 -1.687,5.832 -3.697,8.085 -1.367,-2.692 -1.892,-5.737 -1.494,-8.765 l 0,0 z m 107.182,3.8 c 4.673,-1.407 8.602,-4.485 11.044,-8.685 2.442,-4.193 3.197,-9.134 2.121,-13.907 l -0.472,-2.089 -2.061,0.606 c -2.368,0.711 -4.538,1.852 -6.435,3.357 0.44,-2.339 0.44,-4.748 -0.029,-7.115 -0.915,-4.785 -3.59,-9.005 -7.534,-11.877 l -1.741,-1.272 -1.145,1.827 c -2.585,4.115 -3.509,9.031 -2.601,13.82 0.919,4.752 3.574,8.947 7.485,11.828 -0.727,1.638 -1.219,3.353 -1.457,5.113 -1.162,-3.177 -3.14,-6.024 -5.804,-8.225 l -1.662,-1.375 -1.251,1.754 c -2.832,3.955 -4.055,8.807 -3.427,13.641 0.628,4.814 3.053,9.193 6.812,12.312 l 0.09,0.053 c -1.108,1.506 -1.978,3.144 -2.598,4.889 -0.48,-3.35 -1.822,-6.538 -3.981,-9.252 l -1.342,-1.682 -1.588,1.457 c -3.583,3.287 -5.773,7.772 -6.172,12.64 -0.374,4.843 1.095,9.62 4.128,13.444 l 0.082,0.099 c -1.399,1.223 -2.586,2.659 -3.558,4.227 0.23,-3.38 -0.431,-6.788 -1.979,-9.883 l -0.964,-1.92 -1.851,1.1 c -4.195,2.488 -7.269,6.428 -8.656,11.098 -1.366,4.67 -0.919,9.636 1.273,14.011 l 0.044,0.106 c -1.617,0.92 -3.073,2.069 -4.346,3.405 0.919,-3.257 0.977,-6.729 0.099,-10.07 l -0.546,-2.076 -2.043,0.682 c -4.609,1.559 -8.426,4.784 -10.752,9.078 -2.229,4.146 -2.836,8.93 -1.749,13.501 -0.611,0.428 -1.256,0.861 -1.929,1.321 -0.675,-0.46 -1.312,-0.894 -1.929,-1.321 1.088,-4.571 0.484,-9.355 -1.748,-13.509 -2.328,-4.286 -6.144,-7.512 -10.753,-9.07 l -2.04,-0.682 -0.546,2.076 c -0.878,3.341 -0.821,6.813 0.099,10.07 -1.272,-1.336 -2.729,-2.485 -4.35,-3.405 l 0.054,-0.106 c 2.183,-4.375 2.63,-9.341 1.264,-14.011 -1.387,-4.67 -4.461,-8.609 -8.651,-11.098 l -1.852,-1.1 -0.964,1.92 c -1.555,3.095 -2.203,6.503 -1.978,9.883 -0.977,-1.575 -2.167,-3.004 -3.558,-4.227 l 0.074,-0.099 c 3.045,-3.824 4.51,-8.602 4.129,-13.453 -0.39,-4.858 -2.582,-9.344 -6.173,-12.631 l -1.588,-1.457 -1.333,1.682 c -2.159,2.714 -3.505,5.902 -3.981,9.252 -0.624,-1.745 -1.494,-3.383 -2.602,-4.889 l 0.091,-0.053 c 3.768,-3.119 6.189,-7.498 6.816,-12.312 0.624,-4.834 -0.59,-9.686 -3.426,-13.641 l -1.251,-1.754 -1.658,1.375 c -2.671,2.2 -4.65,5.048 -5.803,8.232 -0.242,-1.769 -0.73,-3.483 -1.461,-5.121 3.911,-2.881 6.571,-7.076 7.486,-11.828 0.907,-4.795 -0.017,-9.705 -2.606,-13.82 l -1.145,-1.827 -1.736,1.272 c -3.944,2.872 -6.624,7.092 -7.543,11.868 -0.456,2.376 -0.464,4.785 -0.025,7.124 -1.892,-1.506 -4.067,-2.646 -6.435,-3.357 l -2.061,-0.606 -0.472,2.089 c -1.075,4.773 -0.315,9.714 2.126,13.907 2.441,4.199 6.361,7.277 11.039,8.685 l 1.818,0.546 c 0.184,1.522 0.57,3.028 1.12,4.478 -2.593,-1.662 -5.557,-2.672 -8.684,-2.922 l -2.139,-0.181 -0.033,2.159 c -0.065,4.883 1.696,9.549 4.946,13.148 3.259,3.604 7.736,5.812 12.603,6.223 l 1.888,0.154 c 0.497,1.461 1.182,2.854 2.019,4.137 -2.113,-0.787 -4.354,-1.206 -6.656,-1.206 -0.817,0 -1.634,0.049 -2.438,0.147 l -2.134,0.279 0.415,2.102 c 0.948,4.801 3.632,9.012 7.563,11.868 3.267,2.381 7.149,3.627 11.211,3.627 0.801,0 1.605,-0.05 2.397,-0.149 l 1.879,-0.235 c 0.796,1.321 1.744,2.536 2.84,3.637 -3.049,-0.452 -6.181,-0.19 -9.127,0.836 l -2.035,0.716 0.85,1.978 c 1.912,4.489 5.413,8.051 9.841,10.03 2.462,1.099 5.069,1.657 7.748,1.657 2.143,0 4.26,-0.362 6.292,-1.059 l 1.498,-0.526 c 2.508,2.127 5.331,4.244 9.205,6.902 -1.764,1.166 -3.726,2.447 -5.917,3.851 l 3.78,2.339 c 2.129,-1.369 4.021,-2.609 5.741,-3.759 1.725,1.149 3.612,2.39 5.746,3.759 l 3.775,-2.339 c -2.192,-1.403 -4.149,-2.685 -5.914,-3.851 3.87,-2.658 6.693,-4.775 9.201,-6.902 l 1.498,0.526 c 2.035,0.696 4.153,1.059 6.292,1.059 l 0,0 c 2.679,0 5.286,-0.559 7.748,-1.65 4.436,-1.986 7.933,-5.548 9.85,-10.037 l 0.837,-1.978 -2.027,-0.716 c -2.947,-1.026 -6.082,-1.288 -9.127,-0.828 1.092,-1.101 2.044,-2.323 2.84,-3.645 l 1.879,0.235 c 0.792,0.1 1.601,0.149 2.397,0.149 l 0,0 c 4.062,0 7.937,-1.246 11.208,-3.627 3.936,-2.856 6.62,-7.067 7.563,-11.868 l 0.414,-2.102 -2.129,-0.279 c -0.809,-0.099 -1.629,-0.147 -2.438,-0.147 -2.302,0 -4.543,0.419 -6.657,1.206 0.837,-1.283 1.515,-2.676 2.019,-4.137 l 1.883,-0.154 c 4.871,-0.411 9.345,-2.619 12.6,-6.223 3.258,-3.6 5.015,-8.266 4.949,-13.148 l -0.025,-2.159 -2.15,0.181 c -3.114,0.25 -6.081,1.26 -8.675,2.922 0.554,-1.449 0.931,-2.955 1.119,-4.478 l 1.818,-0.545 0,0 z"
         id="path37"
         style="fill:#ffffff" /><path
         d="m 144.175,169.032 c -4.092,5.983 -8.775,11.54 -14.417,16.942 C 112.353,201.96 92.802,210.802 87.295,213.091 81.787,210.802 62.24,201.96 44.827,185.974 39.184,180.572 34.506,175.015 30.414,169.032 10.642,140.079 8.044,106.505 8.027,80.416 h 0.024 l 79.264,-4.402 79.247,4.395 c -0.02,26.087 -2.615,59.67 -22.387,88.623 l 0,0 z M 12.254,13.043 c 14.738,-1.639 47.864,-4.934 75.062,-4.934 27.188,0 60.319,3.295 75.052,4.934 L 166.493,71.1 H 87.315 8.134 l 4.12,-58.057 0,0 z M 174.597,6.324 171.084,5.885 C 170.617,5.828 123.803,0 87.34,0 87.332,0 87.324,0 87.316,0 87.308,0 87.295,0 87.287,0 50.827,0 4.014,5.828 3.55,5.885 L 0.033,6.324 V 71.1 H 0 v 9.037 c 0,27.292 2.705,62.557 23.786,93.435 4.347,6.361 9.284,12.23 15.197,17.935 l -0.004,0.008 c 0.041,0.033 0.078,0.065 0.119,0.099 11.438,11.007 26.552,21.381 48.176,33.431 v 0.032 c 0.008,-0.017 0.012,-0.017 0.021,-0.017 0.009,0 0.012,0 0.021,0.017 v -0.032 c 21.618,-12.05 36.738,-22.424 48.175,-33.431 0.041,-0.033 0.078,-0.065 0.115,-0.099 v -0.008 c 5.914,-5.704 10.846,-11.573 15.202,-17.935 21.077,-30.878 23.786,-66.143 23.786,-93.435 v -1.283 h 0.004 V 6.324 l -0.001,0 z"
         id="path39"
         style="fill:#ffffff" /></g><g
       id="g41"><polygon
         points="282.74,25.797 282.74,182.395 251.73,185.761 253.022,194.806 296.434,194.024 338.294,194.806 339.588,185.761 309.87,182.395 309.87,25.797 348.633,26.318 360.521,59.133 370.602,59.133 370.602,13.399 296.18,14.176 222.018,13.399 222.018,59.133 232.089,59.133 243.982,26.318 "
         id="polygon43"
         style="fill:#ffffff" /><polygon
         points="481.727,133.3 490.771,133.3 488.182,98.416 490.771,66.109 481.727,66.109 471.384,93.245 435.209,94.279 435.209,25.539 503.691,26.318 518.15,59.909 526.951,59.909 524.356,13.399 421.772,14.176 386.114,13.399 384.816,22.444 408.074,25.797 408.074,182.395 384.816,185.761 386.114,194.806 421.772,194.024 524.356,194.806 533.401,146.996 523.585,146.996 506.266,181.887 435.209,182.657 435.209,105.13 471.384,106.164 "
         id="polygon45"
         style="fill:#ffffff" /><path
         d="m 806.295,11.072 -15.504,4.396 -64.088,167.453 -12.442,1.674 -12.369,-1.938 -57.364,-84.504 52.963,-72.869 20.16,-2.84 -1.279,-9.045 -30.238,0.776 -30.238,-0.776 -1.295,9.045 22.488,3.353 -41.025,60.283 -36.499,-60.541 21.964,-3.354 -1.29,-9.045 -36.696,1.035 -36.951,-1.035 -1.297,9.045 20.158,2.84 53.489,80.881 -55.813,76.751 -20.16,2.84 1.299,9.309 28.941,-0.781 30.229,0.781 1.296,-9.309 -21.191,-3.103 44.053,-64.443 40.185,64.188 -21.965,3.357 1.297,9.309 36.952,-0.781 30.196,0.642 21.225,-0.642 31.01,0.781 1.297,-9.045 -22.493,-3.366 16.814,-48.324 h 63.824 l 17.572,48.324 -21.973,3.366 1.298,9.045 34.108,-0.781 35.666,0.781 1.285,-9.045 -20.155,-2.84 -67.444,-171.848 z m -40.047,110.852 26.8,-77.482 28.234,77.482 h -55.034 z"
         id="path47"
         style="fill:#ffffff" /><path
         d="M 981.509,93.245 951.778,80.326 c -14.197,-6.205 -24.276,-14.987 -24.276,-29.203 0,-17.314 12.147,-28.429 32.552,-28.429 15.514,0 23.778,5.692 30.496,12.669 l 7.49,23.512 h 12.919 V 23.992 C 998.04,14.433 979.949,9.004 963.681,9.004 c -35.924,7.498 -61.773,24.033 -61.773,52.197 0,22.999 15.252,34.884 33.857,42.895 l 31.266,13.695 c 15.514,6.722 26.872,16.801 26.872,34.365 0,18.869 -12.919,32.824 -35.138,32.824 -14.469,0 -28.686,-6.723 -36.434,-16.275 l -9.045,-21.965 h -18.091 l 5.679,34.884 c 13.709,10.85 29.73,17.563 53.501,17.563 48.573,-10.071 65.12,-33.586 65.12,-57.877 0.254,-26.364 -17.582,-39.283 -37.986,-48.065 z"
         id="path49"
         style="fill:#ffffff" /></g></g></svg>