<?xml version="1.0" encoding="utf-8"?>
<!-- Generator: Adobe Illustrator 16.0.0, SVG Export Plug-In . SVG Version: 6.00 Build 0)  -->
<!DOCTYPE svg PUBLIC "-//W3C//DTD SVG 1.1//EN" "http://www.w3.org/Graphics/SVG/1.1/DTD/svg11.dtd">
<svg version="1.1" id="Layer_1" xmlns="http://www.w3.org/2000/svg" xmlns:xlink="http://www.w3.org/1999/xlink" x="0px" y="0px"
	 width="156px" height="39px" viewBox="0 0 156 39" enable-background="new 0 0 156 39" xml:space="preserve">
<g>
	<g>
		<g>
			<g>
				<polygon fill="#FFFFFF" points="2.62,2.71 2.62,11.482 4.554,11.482 6.833,5.188 14.268,5.088 14.268,35.127 8.32,35.77 
					8.569,37.505 16.896,37.357 24.924,37.505 25.172,35.77 19.472,35.127 19.472,5.088 26.906,5.188 29.188,11.482 31.121,11.482 
					31.121,2.71 16.846,2.858 				"/>
				<polygon fill="#FFFFFF" points="57.143,35.027 43.513,35.175 43.513,20.305 50.452,20.504 52.436,25.709 54.17,25.709 
					53.674,19.016 54.17,12.821 52.436,12.821 50.452,18.025 43.513,18.224 43.513,5.041 56.647,5.188 59.423,11.631 61.109,11.631 
					60.613,2.71 40.936,2.858 34.095,2.71 33.848,4.445 38.308,5.088 38.308,35.127 33.848,35.77 34.095,37.505 40.936,37.357 
					60.613,37.505 62.347,28.337 60.464,28.337 				"/>
				<path fill="#FFFFFF" d="M114.689,2.264l-2.974,0.843l-12.292,32.12l-2.388,0.321l-2.372-0.373L83.661,18.967L93.82,4.99
					l3.867-0.545L97.439,2.71l-5.799,0.148L85.842,2.71l-0.249,1.735l4.314,0.644l-7.87,11.564L75.036,5.041l4.213-0.645
					l-0.247-1.735l-7.039,0.198l-7.087-0.198l-0.249,1.735l3.867,0.544l10.26,15.514L68.048,35.175l-3.866,0.545l0.248,1.785
					l5.551-0.147l5.799,0.147l0.248-1.785l-4.065-0.593l8.45-12.361l7.708,12.312l-4.212,0.642l0.248,1.785l7.089-0.147l5.791,0.121
					l4.072-0.121l5.947,0.147l0.25-1.735l-4.313-0.643l3.224-9.271h12.242l3.371,9.271l-4.215,0.643l0.248,1.735l6.543-0.147
					l6.841,0.147l0.246-1.735l-3.865-0.543L114.689,2.264z M107.009,23.529l5.14-14.865l5.418,14.865H107.009z"/>
				<path fill="#FFFFFF" d="M148.296,18.025l-5.7-2.478c-2.726-1.19-4.658-2.875-4.658-5.602c0-3.32,2.33-5.451,6.244-5.451
					c2.976,0,4.562,1.091,5.85,2.429l1.437,4.509h2.478V4.741c-2.478-1.833-5.946-2.874-9.068-2.874
					c-6.891,1.438-11.846,4.609-11.846,10.012c0,4.411,2.924,6.69,6.492,8.225l5.998,2.631c2.975,1.289,5.153,3.222,5.153,6.592
					c0,3.619-2.478,6.295-6.739,6.295c-2.776,0-5.502-1.291-6.99-3.122l-1.734-4.212h-3.47l1.09,6.689
					c2.627,2.08,5.701,3.367,10.26,3.367c9.317-1.93,12.49-6.439,12.49-11.101C155.633,22.189,152.212,19.711,148.296,18.025z"/>
			</g>
		</g>
	</g>
</g>
</svg>
