<?xml version="1.0" standalone="yes"?><svg version="1.1" xmlns = 'http://www.w3.org/2000/svg'><defs><font id='web' horiz-adv-x="1000">
<font-face font-family="web" descent="-106" cap-height="381" units-per-em="512" bbox="-126,-108,694,497" x-height="294" ascent="410" />
<missing-glyph horiz-adv-x="256" d="" /><glyph horiz-adv-x="320" d="M 109 -4 C 76 -4 51 4 34 21 C 16 38 9 61 12 90 C 16 128 32 162 62 191 C 91 219 124 234 161 234 C 177 234 192 231 208 225 C 223 219 236 212 247 203 C 253 231 257 254 257 272 C 257 294 252 311 242 324 C 232 337 215 344 192 344 C 176 344 163 342 151 338 C 139 334 125 327 110 318 L 103 359 C 117 367 131 374 146 379 C 161 383 180 386 203 386 C 241 386 269 373 286 347 C 302 321 309 288 305 246 C 298 176 276 116 239 68 C 202 20 159 -4 109 -4 Z M 117 36 C 143 36 167 47 188 69 C 209 91 226 123 238 167 C 233 175 223 182 209 189 C 195 195 182 199 170 199 C 140 199 117 188 99 168 C 81 147 70 122 67 92 C 65 77 68 64 74 53 C 80 41 95 36 117 36 Z" unicode="∂" />
<glyph horiz-adv-x="384" d="M -13 0 L 192 384 L 250 384 L 332 0 L -13 0 Z M 62 37 L 265 37 L 206 314 L 62 37 Z" unicode="∆" />
<glyph horiz-adv-x="352" d="M 260 211 L 34 211 L 40 244 L 265 244 L 260 211 Z M 322 99 C 312 68 297 43 275 24 C 253 4 221 -5 180 -5 C 131 -5 97 12 78 46 C 59 80 55 128 66 190 C 78 254 98 303 126 337 C 153 370 190 387 238 387 C 274 387 302 377 321 359 C 339 340 349 314 351 280 L 305 267 C 304 291 297 310 285 323 C 272 336 254 343 232 343 C 198 343 173 330 156 306 C 138 281 125 242 115 188 C 106 126 108 86 121 66 C 134 46 157 36 190 38 C 216 38 236 44 251 57 C 265 69 277 88 287 112 L 322 99 Z M 247 131 L 21 131 L 27 164 L 253 164 L 247 131 Z" unicode="€" />
<glyph horiz-adv-x="384" d="M 46 0 L 99 337 L 36 337 L 43 381 L 403 381 L 396 337 L 334 337 L 281 0 L 229 0 L 283 339 L 151 339 L 98 0 L 46 0 Z" unicode="∏" />
<glyph horiz-adv-x="288" d="M -19 0 L -13 36 L 146 200 L 39 340 L 46 381 L 299 381 L 292 336 L 104 336 L 206 197 L 59 46 L 262 46 L 255 0 L -19 0 Z" unicode="∑" />
<glyph horiz-adv-x="384" d="M 50 173 L 50 222 L 334 222 L 334 173 L 50 173 Z" unicode="−" />
<glyph horiz-adv-x="256" d="M -8 140 L -1 181 L 255 181 L 248 140 L -8 140 Z" unicode="–" />
<glyph horiz-adv-x="512" d="M 49 140 L 55 181 L 455 181 L 448 140 L 49 140 Z" unicode="—" />
<glyph horiz-adv-x="96" d="M -126 0 L 178 381 L 223 381 L -81 0 L -126 0 Z" unicode="∕" />
<glyph horiz-adv-x="160" d="M 87 237 C 75 237 66 241 58 249 C 50 257 46 268 48 282 C 50 301 56 319 68 337 C 79 355 90 369 101 381 L 138 381 C 129 371 120 360 112 347 C 104 334 99 324 98 317 C 107 316 115 312 122 304 C 128 296 131 286 130 276 C 128 263 123 253 115 247 C 107 240 97 237 87 237 Z" unicode="‘" />
<glyph horiz-adv-x="160" d="M 100 387 C 111 387 120 382 128 374 C 136 366 139 355 138 342 C 136 322 129 304 118 286 C 106 268 95 254 85 243 L 48 243 C 56 252 65 263 73 276 C 81 289 86 299 88 307 C 80 307 72 311 65 318 C 57 324 54 334 56 348 C 57 360 62 370 70 377 C 78 383 88 387 100 387 Z" unicode="’" />
<glyph horiz-adv-x="160" d="M 15 -63 C 23 -53 32 -42 40 -29 C 48 -16 53 -6 55 1 C 47 1 39 5 32 12 C 24 18 21 28 23 42 C 24 54 29 64 37 71 C 45 77 55 81 67 81 C 78 81 87 76 95 68 C 103 60 106 49 105 36 C 103 16 96 -1 85 -19 C 73 -37 62 -51 52 -63 L 15 -63 Z" unicode="‚" />
<glyph horiz-adv-x="256" d="M 87 237 C 75 237 66 241 58 249 C 50 257 46 268 48 282 C 50 301 56 319 68 337 C 79 355 90 369 101 381 L 138 381 C 129 371 120 360 112 347 C 104 334 99 324 98 317 C 107 316 115 312 122 304 C 128 296 131 286 130 276 C 128 263 123 253 115 247 C 107 240 97 237 87 237 Z M 201 237 C 189 237 180 241 172 249 C 164 257 160 268 162 282 C 164 301 170 319 182 337 C 193 355 204 369 215 381 L 252 381 C 243 371 234 360 226 347 C 218 334 213 324 212 317 C 221 316 229 312 236 304 C 242 296 245 286 244 276 C 242 263 237 253 229 247 C 221 240 211 237 201 237 Z" unicode="“" />
<glyph horiz-adv-x="256" d="M 100 387 C 111 387 120 382 128 374 C 136 366 139 355 138 342 C 136 322 129 304 118 286 C 106 268 95 254 85 243 L 48 243 C 56 252 65 263 73 276 C 81 289 86 299 88 307 C 80 307 72 311 65 318 C 57 324 54 334 56 348 C 57 360 62 370 70 377 C 78 383 88 387 100 387 Z M 214 387 C 225 387 234 382 242 374 C 250 366 253 355 252 342 C 250 322 243 304 232 286 C 220 268 209 254 199 243 L 162 243 C 170 252 179 263 187 276 C 195 289 200 299 202 307 C 194 307 186 311 179 318 C 171 324 168 334 170 348 C 171 360 176 370 184 377 C 192 383 202 387 214 387 Z" unicode="”" />
<glyph horiz-adv-x="256" d="M -6 -63 C 2 -53 11 -42 19 -29 C 27 -16 32 -6 34 1 C 26 1 18 5 11 12 C 3 18 0 28 2 42 C 3 54 8 64 16 71 C 24 77 34 81 46 81 C 57 81 66 76 74 68 C 82 60 85 49 84 36 C 82 16 75 -1 64 -19 C 52 -37 41 -51 31 -63 L -6 -63 Z M 108 -63 C 116 -53 125 -42 133 -29 C 141 -16 146 -6 148 1 C 140 1 132 5 125 12 C 117 18 114 28 116 42 C 117 54 122 64 130 71 C 138 77 148 81 160 81 C 171 81 180 76 188 68 C 196 60 199 49 198 36 C 196 16 189 -1 178 -19 C 166 -37 155 -51 145 -63 L 108 -63 Z" unicode="„" />
<glyph horiz-adv-x="160" d="" unicode=" " />
<glyph horiz-adv-x="192" d="M 65 126 L 92 387 L 161 387 L 102 126 L 65 126 Z M 72 -6 C 60 -6 51 -2 43 6 C 35 14 32 23 32 34 C 32 44 35 54 43 62 C 51 70 60 74 72 74 C 83 74 92 70 100 62 C 108 54 112 44 112 34 C 112 23 108 14 100 6 C 92 -2 83 -6 72 -6 Z" unicode="!" />
<glyph horiz-adv-x="288" d="M 194 245 L 201 387 L 262 387 L 226 245 L 194 245 Z M 78 245 L 85 387 L 146 387 L 110 245 L 78 245 Z" unicode="&#x22;" />
<glyph horiz-adv-x="416" d="M 27 127 L 359 127 L 352 76 L 20 76 L 27 127 Z M 64 288 L 396 288 L 392 237 L 60 237 L 64 288 Z M 183 381 L 224 381 L 104 -17 L 63 -17 L 183 381 Z M 313 381 L 354 381 L 234 -17 L 193 -17 L 313 381 Z" unicode="#" />
<glyph horiz-adv-x="320" d="M 108 -45 L 115 0 C 93 1 72 6 53 14 C 34 22 20 32 10 46 L 36 82 C 46 70 58 61 74 55 C 89 48 105 44 122 42 L 141 172 C 107 182 83 196 69 215 C 55 234 50 256 53 281 C 56 307 68 330 88 349 C 108 367 137 378 175 380 L 178 403 L 211 403 L 207 380 C 229 376 248 371 264 363 C 279 355 292 347 303 337 L 272 300 C 266 307 256 314 244 321 C 231 328 217 333 202 337 L 184 212 C 217 200 241 185 256 165 C 271 145 277 123 274 100 C 272 80 261 59 240 38 C 219 17 189 4 150 0 L 142 -45 L 108 -45 Z M 153 221 L 172 339 C 150 337 133 331 122 320 C 110 309 104 297 103 284 C 101 264 105 249 115 241 C 125 232 137 225 153 221 Z M 154 42 C 178 44 196 50 206 60 C 216 69 221 80 223 94 C 225 110 222 123 214 133 C 206 143 192 152 172 162 L 154 42 Z" unicode="$" />
<glyph horiz-adv-x="512" d="M 88 0 L 377 381 L 417 381 L 127 0 L 88 0 Z M 145 387 C 173 387 195 377 210 358 C 225 338 231 310 227 273 C 223 237 212 208 193 188 C 173 167 150 157 122 157 C 94 157 72 166 56 186 C 40 205 35 233 39 271 C 43 307 54 335 74 356 C 93 376 117 387 145 387 Z M 123 190 C 137 190 150 196 162 210 C 173 223 180 244 183 272 C 185 300 183 320 176 332 C 169 344 157 351 141 351 C 124 351 111 344 101 330 C 91 316 84 296 82 272 C 79 244 81 223 89 210 C 97 196 108 190 123 190 Z M 392 224 C 420 224 442 214 457 195 C 472 175 478 147 474 110 C 470 74 459 45 440 25 C 420 4 397 -6 369 -6 C 340 -6 318 3 303 23 C 287 42 282 70 286 108 C 290 144 301 172 321 193 C 340 213 364 224 392 224 Z M 371 27 C 386 27 399 33 411 47 C 422 60 429 81 432 110 C 434 138 432 158 425 170 C 417 182 405 189 389 189 C 371 189 358 182 348 168 C 338 154 331 135 329 110 C 326 81 328 60 336 47 C 344 33 355 27 371 27 Z" unicode="%" />
<glyph horiz-adv-x="416" d="M 378 -5 C 374 -5 370 -6 366 -6 C 362 -6 355 -6 346 -6 C 294 -6 242 31 188 106 C 134 180 111 243 118 294 C 122 322 134 345 154 362 C 174 378 202 387 240 387 C 270 387 293 378 309 362 C 325 346 331 326 328 303 C 324 281 311 261 287 241 C 263 221 226 203 176 185 C 145 173 121 161 105 148 C 89 134 79 118 76 100 C 72 78 78 61 92 49 C 106 37 125 31 151 31 C 193 31 233 48 270 82 C 307 116 334 154 352 196 L 388 173 C 366 123 333 80 290 46 C 247 11 198 -6 142 -6 C 94 -6 60 3 41 21 C 21 39 14 63 20 92 C 24 117 38 140 62 161 C 85 182 118 200 161 215 C 197 227 224 240 243 254 C 262 268 273 284 277 302 C 279 316 277 328 269 337 C 261 346 250 351 236 351 C 216 351 200 345 188 333 C 175 321 168 307 167 291 C 161 247 183 192 231 126 C 279 60 332 27 392 27 L 378 -5 Z" unicode="&#x26;" />
<glyph horiz-adv-x="160" d="M 63 245 L 68 387 L 139 387 L 100 245 L 63 245 Z" unicode="'" />
<glyph horiz-adv-x="224" d="M 95 175 C 88 133 91 94 103 60 C 115 26 137 -5 168 -35 L 144 -59 C 106 -26 78 8 60 45 C 42 82 38 126 46 176 C 53 225 71 268 100 305 C 128 341 168 377 218 412 L 239 386 C 193 354 159 321 138 288 C 116 254 102 217 95 175 Z" unicode="(" />
<glyph horiz-adv-x="224" d="M 125 178 C 131 220 128 258 116 292 C 104 326 82 358 52 388 L 76 412 C 114 379 141 344 159 307 C 177 270 182 227 174 177 C 166 127 148 84 120 48 C 91 11 52 -24 2 -59 L -19 -33 C 27 -1 60 31 82 65 C 103 98 117 136 125 178 Z" unicode=")" />
<glyph horiz-adv-x="288" d="M 152 189 L 141 263 L 72 232 L 63 248 L 123 294 L 63 340 L 72 356 L 141 326 L 152 399 L 167 399 L 178 326 L 247 356 L 255 340 L 197 294 L 255 248 L 247 232 L 178 263 L 167 189 L 152 189 Z" unicode="*" />
<glyph horiz-adv-x="384" d="M 165 59 L 165 175 L 52 175 L 52 220 L 165 220 L 165 336 L 218 336 L 218 220 L 332 220 L 332 175 L 218 175 L 218 59 L 165 59 Z" unicode="+" />
<glyph horiz-adv-x="160" d="M 18 -63 C 26 -54 35 -43 43 -30 C 51 -16 56 -6 58 1 C 49 1 41 4 35 11 C 28 18 25 28 26 42 C 27 54 32 64 40 70 C 48 76 58 80 70 80 C 81 80 90 76 98 68 C 106 60 109 47 108 30 C 106 14 99 -2 88 -20 C 76 -37 65 -51 55 -63 L 18 -63 Z" unicode="," />
<glyph horiz-adv-x="224" d="M 27 134 L 35 186 L 189 186 L 181 134 L 27 134 Z" unicode="-" />
<glyph horiz-adv-x="160" d="M 60 -6 C 48 -6 38 -1 30 7 C 22 15 18 25 18 37 C 18 48 22 58 30 66 C 38 74 48 79 60 79 C 71 79 81 74 89 66 C 97 58 102 48 102 37 C 102 25 97 15 89 7 C 81 -1 71 -6 60 -6 Z" unicode="." />
<glyph horiz-adv-x="256" d="M -53 -45 L 257 397 L 305 397 L -4 -45 L -53 -45 Z" unicode="/" />
<glyph horiz-adv-x="320" d="M 22 191 C 30 255 47 304 75 337 C 102 370 136 387 178 387 C 221 387 252 371 271 339 C 289 307 295 257 287 191 C 278 125 261 75 235 43 C 209 10 174 -6 130 -6 C 86 -6 55 10 37 42 C 19 74 14 123 22 191 Z M 74 190 C 67 137 68 98 76 74 C 84 49 104 37 135 37 C 161 37 183 49 200 73 C 216 97 228 136 235 190 C 241 252 238 294 228 314 C 218 334 199 344 172 344 C 144 344 123 331 107 306 C 91 280 80 242 74 190 Z" unicode="0" />
<glyph horiz-adv-x="288" d="M 26 0 L 32 39 L 104 39 L 150 325 L 75 308 L 80 340 L 191 383 L 208 381 L 153 39 L 223 39 L 217 0 L 26 0 Z" unicode="1" />
<glyph horiz-adv-x="288" d="M -1 0 L 7 44 L 126 146 C 158 174 182 198 197 218 C 211 238 219 259 221 279 C 222 296 218 310 208 321 C 198 332 185 338 168 338 C 154 338 139 334 125 327 C 110 320 94 309 77 294 L 55 332 C 70 347 88 360 110 371 C 132 381 156 387 183 387 C 210 387 233 377 252 359 C 270 341 278 316 276 286 C 274 261 266 238 253 216 C 239 194 216 169 184 141 L 70 43 L 247 43 L 240 0 L -1 0 Z" unicode="2" />
<glyph horiz-adv-x="288" d="M 103 -6 C 77 -6 55 -1 37 7 C 18 15 1 27 -13 42 L 18 79 C 30 65 43 55 59 48 C 75 40 92 37 110 37 C 138 37 158 44 172 58 C 185 72 193 89 196 109 C 198 131 193 148 181 160 C 168 172 146 178 114 178 L 96 178 L 102 220 L 122 220 C 148 220 169 224 185 233 C 201 241 211 258 215 284 C 216 302 211 316 201 327 C 191 338 176 344 156 344 C 142 344 128 340 112 334 C 96 328 81 319 67 307 L 53 345 C 67 356 84 366 102 374 C 120 382 142 387 166 387 C 200 387 226 377 243 359 C 260 340 267 317 265 289 C 262 262 253 242 238 229 C 223 215 206 206 186 201 C 206 195 222 185 234 169 C 245 153 249 133 246 107 C 241 71 226 44 201 24 C 176 4 143 -6 103 -6 Z" unicode="3" />
<glyph horiz-adv-x="288" d="M 154 0 L 169 94 L -7 94 L -1 134 L 204 382 L 262 382 L 223 134 L 273 134 L 267 94 L 217 94 L 202 0 L 154 0 Z M 50 134 L 175 134 L 205 322 L 50 134 Z" unicode="4" />
<glyph horiz-adv-x="288" d="M 117 -6 C 89 -6 65 -2 45 6 C 25 14 6 26 -11 44 L 20 78 C 31 66 45 56 62 48 C 78 40 96 36 116 36 C 140 36 161 42 179 55 C 197 68 207 89 210 117 C 212 147 206 168 194 181 C 181 193 165 200 146 200 C 127 200 111 196 98 189 C 84 182 73 175 65 167 L 36 186 L 83 381 L 294 381 L 284 337 L 118 337 L 88 220 C 96 226 107 231 120 236 C 133 240 148 243 165 243 C 199 243 225 231 242 208 C 259 184 266 155 263 121 C 258 77 242 44 214 24 C 186 4 153 -6 117 -6 Z" unicode="5" />
<glyph horiz-adv-x="320" d="M 146 -6 C 99 -6 66 9 47 41 C 28 72 23 119 31 182 C 38 240 57 288 89 328 C 121 367 163 387 215 387 C 240 387 260 383 276 377 C 291 371 304 364 314 357 L 289 318 C 279 326 268 333 255 339 C 242 344 228 347 214 347 C 179 347 151 335 129 311 C 107 287 92 250 84 200 C 94 209 108 218 126 226 C 144 234 166 239 192 239 C 227 239 253 227 270 205 C 287 183 294 155 290 121 C 285 82 270 51 244 28 C 218 5 186 -6 146 -6 Z M 152 33 C 177 33 197 41 212 58 C 227 75 236 95 238 117 C 241 139 238 159 228 175 C 218 191 201 200 176 200 C 153 200 133 195 117 186 C 100 176 87 167 77 157 C 73 115 76 83 87 63 C 98 43 120 33 152 33 Z" unicode="6" />
<glyph horiz-adv-x="288" d="M 52 0 C 61 43 82 96 114 160 C 146 224 187 283 236 337 L 30 337 L 37 381 L 299 381 L 294 348 C 246 300 206 246 176 186 C 146 126 123 64 108 0 L 52 0 Z" unicode="7" />
<glyph horiz-adv-x="288" d="M 118 -6 C 79 -6 49 3 28 22 C 6 40 -2 66 0 98 C 1 120 10 139 27 157 C 44 175 66 190 92 202 C 74 212 61 225 53 239 C 45 253 42 270 44 290 C 47 316 60 339 82 358 C 104 377 134 387 172 387 C 212 387 241 378 259 360 C 277 342 284 319 281 293 C 279 272 269 254 253 240 C 237 225 218 213 198 204 C 222 192 239 179 251 163 C 262 147 266 125 263 96 C 259 66 244 42 217 23 C 190 3 157 -6 118 -6 Z M 153 223 C 173 230 192 240 208 252 C 224 264 234 279 236 297 C 238 312 233 324 223 334 C 213 344 194 349 168 349 C 144 349 125 344 113 335 C 100 325 93 313 91 297 C 89 284 91 271 99 259 C 107 247 125 235 153 223 Z M 124 34 C 148 34 170 39 188 51 C 206 63 217 78 219 98 C 221 116 214 132 199 146 C 184 159 163 171 135 182 C 105 170 83 157 69 144 C 55 131 47 116 46 100 C 44 78 49 61 63 50 C 77 39 97 34 124 34 Z" unicode="8" />
<glyph horiz-adv-x="320" d="M 106 -6 C 75 -6 52 -2 38 3 C 23 9 12 16 4 24 L 27 60 C 35 53 46 47 60 42 C 74 37 92 35 114 35 C 144 35 170 47 190 71 C 210 95 225 130 235 178 C 220 168 205 160 190 154 C 175 148 157 144 136 144 C 100 143 72 153 52 174 C 32 195 24 224 29 262 C 33 300 47 330 70 353 C 92 375 126 387 170 387 C 216 387 250 370 270 338 C 290 306 296 260 289 201 C 280 136 260 85 228 49 C 196 12 155 -6 106 -6 Z M 155 184 C 170 184 185 186 200 191 C 215 195 228 201 240 207 C 246 254 242 289 229 313 C 215 336 194 348 166 348 C 136 348 114 339 102 323 C 90 306 83 287 81 266 C 78 242 81 223 91 207 C 101 191 122 184 155 184 Z" unicode="9" />
<glyph horiz-adv-x="192" d="M 64 -6 C 52 -6 42 -1 34 7 C 26 15 22 25 22 37 C 22 48 26 58 34 66 C 42 74 52 79 64 79 C 75 79 85 74 93 66 C 101 58 106 48 106 37 C 106 25 101 15 93 7 C 85 -1 75 -6 64 -6 Z M 96 209 C 84 209 74 213 66 221 C 58 229 54 239 54 251 C 54 262 58 272 66 281 C 74 289 84 294 96 294 C 108 294 118 289 126 281 C 134 272 138 262 138 251 C 138 239 134 229 126 221 C 118 213 108 209 96 209 Z" unicode=":" />
<glyph horiz-adv-x="192" d="M 96 209 C 84 209 74 213 66 221 C 58 229 54 239 54 251 C 54 262 58 272 66 281 C 74 289 84 294 96 294 C 108 294 118 289 126 281 C 134 272 138 262 138 251 C 138 239 134 229 126 221 C 118 213 108 209 96 209 Z M 17 -63 C 25 -54 34 -43 42 -30 C 50 -16 54 -6 56 1 C 48 3 40 7 33 14 C 25 21 22 31 24 44 C 25 56 30 65 38 71 C 46 77 56 80 68 80 C 79 80 89 75 97 67 C 105 59 109 46 107 30 C 106 13 99 -3 87 -21 C 75 -39 63 -53 53 -63 L 17 -63 Z" unicode=";" />
<glyph horiz-adv-x="384" d="M 332 63 L 52 174 L 52 221 L 332 332 L 332 285 L 103 198 L 332 110 L 332 63 Z" unicode="&#x3C;" />
<glyph horiz-adv-x="384" d="M 52 245 L 52 291 L 332 291 L 332 245 L 52 245 Z M 52 101 L 52 148 L 332 148 L 332 101 L 52 101 Z" unicode="=" />
<glyph horiz-adv-x="384" d="M 52 63 L 52 110 L 278 198 L 52 285 L 52 332 L 332 221 L 332 174 L 52 63 Z" unicode="&#x3E;" />
<glyph horiz-adv-x="320" d="M 103 132 C 105 150 112 165 123 175 C 133 185 150 197 174 209 C 190 217 203 227 215 239 C 226 250 232 265 234 285 C 236 305 231 320 221 330 C 210 339 196 344 178 344 C 160 344 142 338 124 328 C 106 318 90 304 78 288 L 46 317 C 60 337 78 354 102 367 C 125 380 152 387 182 387 C 218 387 245 377 264 359 C 282 340 290 316 288 286 C 286 258 277 237 262 222 C 247 206 229 193 207 183 C 182 170 167 161 162 155 C 156 149 152 142 150 132 L 103 132 Z M 111 -6 C 99 -6 90 -2 82 6 C 74 14 71 23 71 34 C 71 44 74 54 82 62 C 90 70 99 74 111 74 C 122 74 131 70 139 62 C 147 54 151 44 151 34 C 151 23 147 14 139 6 C 131 -2 122 -6 111 -6 Z" unicode="?" />
<glyph horiz-adv-x="512" d="M 240 -75 C 204 -75 171 -70 143 -62 C 114 -53 90 -39 71 -21 C 52 -2 38 21 28 51 C 18 81 15 117 17 159 C 19 197 27 230 43 260 C 58 290 78 315 103 336 C 127 356 155 372 187 383 C 218 393 250 399 284 399 C 313 399 341 394 368 384 C 394 374 417 360 437 342 C 456 324 471 302 482 278 C 492 253 496 226 494 196 C 489 141 472 101 443 75 C 414 49 379 36 337 36 C 319 36 305 39 297 46 C 289 52 284 61 283 73 C 271 60 258 51 243 46 C 227 41 212 39 197 39 C 175 39 159 45 148 58 C 137 71 132 88 134 108 C 136 138 153 163 184 183 C 214 202 257 213 311 216 C 312 220 313 224 314 228 C 314 231 315 234 316 236 C 317 246 314 255 308 262 C 301 268 289 272 272 272 C 260 272 245 269 227 263 C 209 257 193 249 177 239 L 182 281 C 192 288 206 295 224 301 C 241 307 262 310 286 310 C 310 310 329 303 343 290 C 357 277 361 257 356 231 L 327 102 C 323 80 332 70 356 70 C 380 70 401 80 421 100 C 440 120 452 152 456 194 C 458 216 455 237 448 258 C 440 278 429 296 413 312 C 397 328 378 340 355 350 C 331 359 305 364 276 364 C 245 364 216 358 190 348 C 164 338 141 323 121 305 C 101 287 86 265 74 240 C 62 215 56 188 55 159 C 52 89 66 38 97 6 C 127 -26 176 -43 243 -43 C 277 -43 304 -39 324 -32 C 343 -24 359 -16 373 -8 L 390 -34 C 374 -44 354 -54 330 -62 C 306 -70 276 -75 240 -75 Z M 216 74 C 228 74 239 76 251 82 C 262 87 273 95 285 105 L 305 184 C 267 178 237 169 216 156 C 194 142 183 127 181 110 C 179 98 182 89 189 83 C 195 77 204 74 216 74 Z" unicode="@" />
<glyph horiz-adv-x="384" d="M -11 0 L 201 384 L 259 384 L 349 0 L 294 0 L 276 91 L 89 91 L 41 0 L -11 0 Z M 112 133 L 267 133 L 221 331 L 112 133 Z" unicode="A" />
<glyph horiz-adv-x="384" d="M 28 0 L 88 381 L 226 381 C 270 381 302 373 324 358 C 345 343 355 319 353 287 C 351 264 343 246 328 232 C 313 218 295 208 275 203 C 296 198 313 188 326 173 C 338 158 343 135 340 105 C 334 69 318 42 292 25 C 266 8 233 0 195 0 L 28 0 Z M 114 218 L 202 218 C 234 218 258 223 274 234 C 290 245 298 261 300 282 C 301 300 296 315 286 325 C 275 335 255 340 227 340 L 133 340 L 114 218 Z M 87 42 L 189 42 C 218 42 241 47 259 58 C 277 68 287 85 289 109 C 291 133 284 150 270 161 C 256 172 234 178 205 178 L 108 178 L 87 42 Z" unicode="B" />
<glyph horiz-adv-x="384" d="M 179 -6 C 124 -6 84 10 59 43 C 33 76 24 123 30 184 C 36 247 56 297 90 333 C 124 369 168 387 223 387 C 265 387 299 376 323 356 C 347 335 362 309 366 279 L 320 265 C 314 293 302 313 286 325 C 270 337 247 344 218 344 C 179 344 147 329 122 299 C 96 269 82 231 80 183 C 76 136 83 100 99 75 C 115 50 143 38 182 38 C 210 38 233 43 251 55 C 269 67 287 88 303 119 L 342 99 C 324 61 301 34 273 18 C 244 2 213 -6 179 -6 Z" unicode="C" />
<glyph horiz-adv-x="416" d="M 28 0 L 88 381 L 214 381 C 272 381 315 365 344 333 C 373 301 384 254 377 191 C 368 125 343 77 302 46 C 261 15 211 0 151 0 L 28 0 Z M 86 41 L 154 41 C 198 41 235 52 266 74 C 296 96 316 134 325 190 C 331 236 325 272 305 299 C 285 326 254 340 210 340 L 133 340 L 86 41 Z" unicode="D" />
<glyph horiz-adv-x="320" d="M 28 0 L 88 381 L 333 381 L 326 338 L 132 338 L 113 219 L 270 219 L 263 176 L 106 176 L 85 43 L 286 43 L 280 0 L 28 0 Z" unicode="E" />
<glyph horiz-adv-x="320" d="M 28 0 L 88 381 L 331 381 L 324 338 L 133 338 L 114 220 L 272 220 L 265 175 L 107 175 L 79 0 L 28 0 Z" unicode="F" />
<glyph horiz-adv-x="384" d="M 177 -6 C 124 -6 85 10 60 44 C 35 78 25 121 29 173 C 33 237 53 289 88 328 C 122 367 167 387 223 387 C 267 387 301 377 325 357 C 349 337 363 312 367 282 L 320 265 C 316 290 306 309 289 323 C 272 337 249 344 219 344 C 178 344 145 329 121 299 C 97 269 83 229 79 177 C 75 132 81 97 98 73 C 115 49 145 37 189 37 C 211 37 231 40 249 48 C 267 55 282 66 296 80 L 307 151 L 218 151 L 224 195 L 363 195 L 331 -2 L 309 -2 L 299 41 C 287 29 272 19 253 9 C 234 -1 209 -6 177 -6 Z" unicode="G" />
<glyph horiz-adv-x="416" d="M 28 0 L 88 381 L 140 381 L 114 220 L 311 220 L 337 381 L 388 381 L 328 0 L 276 0 L 304 175 L 107 175 L 80 0 L 28 0 Z" unicode="H" />
<glyph horiz-adv-x="192" d="M 39 0 L 99 381 L 152 381 L 91 0 L 39 0 Z" unicode="I" />
<glyph horiz-adv-x="256" d="M -12 -1 L -5 46 C 1 44 8 43 16 42 C 24 41 35 41 49 41 C 76 41 95 45 107 54 C 119 62 126 77 130 97 L 175 381 L 227 381 L 184 107 C 177 66 163 37 143 20 C 123 2 91 -6 49 -6 C 33 -6 21 -5 11 -4 C 1 -3 -6 -2 -12 -1 Z" unicode="J" />
<glyph horiz-adv-x="352" d="M 28 0 L 88 381 L 140 381 L 109 185 L 323 381 L 385 381 L 205 217 L 346 0 L 286 0 L 167 184 L 100 125 L 80 0 L 28 0 Z" unicode="K" />
<glyph horiz-adv-x="288" d="M 28 0 L 88 381 L 140 381 L 86 43 L 282 43 L 275 0 L 28 0 Z" unicode="L" />
<glyph horiz-adv-x="512" d="M 28 0 L 88 381 L 161 381 L 235 59 L 403 381 L 484 381 L 424 0 L 372 0 L 425 333 L 248 0 L 200 0 L 124 324 L 72 0 L 28 0 Z" unicode="M" />
<glyph horiz-adv-x="416" d="M 28 0 L 88 381 L 136 381 L 298 75 L 341 381 L 388 381 L 328 0 L 280 0 L 123 308 L 75 0 L 28 0 Z" unicode="N" />
<glyph horiz-adv-x="416" d="M 186 -6 C 131 -6 90 13 64 51 C 38 89 29 135 37 189 C 41 241 61 287 95 327 C 129 367 174 387 230 387 C 282 387 321 369 349 335 C 377 300 387 251 381 189 C 374 127 353 79 319 45 C 284 11 240 -6 186 -6 Z M 190 37 C 228 37 259 50 285 77 C 310 104 325 141 331 189 C 336 237 329 275 311 303 C 292 330 264 344 228 344 C 190 344 159 329 133 301 C 107 273 92 235 87 189 C 81 139 88 101 108 75 C 127 49 154 37 190 37 Z" unicode="O" />
<glyph horiz-adv-x="352" d="M 28 0 L 88 381 L 209 381 C 259 381 294 369 315 347 C 335 324 344 294 340 256 C 335 216 317 185 285 165 C 253 145 213 135 165 135 L 101 135 L 80 0 L 28 0 Z M 106 176 L 179 176 C 205 176 228 182 249 194 C 270 206 283 226 287 255 C 290 283 284 304 270 318 C 255 332 234 340 206 340 L 134 340 L 106 176 Z" unicode="P" />
<glyph horiz-adv-x="416" d="M 209 -5 C 207 -5 205 -7 204 -9 C 203 -11 203 -13 203 -16 C 201 -28 204 -37 210 -43 C 216 -49 228 -53 246 -53 C 255 -53 264 -52 274 -50 C 284 -48 292 -47 300 -46 L 292 -83 C 281 -87 271 -89 261 -91 C 251 -92 240 -93 228 -93 C 200 -93 179 -85 166 -71 C 152 -57 149 -35 155 -5 C 115 2 83 22 60 56 C 36 90 28 134 36 188 C 42 246 64 293 100 331 C 136 368 181 387 235 387 C 283 387 321 370 349 336 C 377 302 387 252 381 188 C 375 132 357 87 325 53 C 293 19 255 0 209 -5 Z M 190 34 C 228 34 259 47 285 75 C 310 103 325 141 331 189 C 336 237 329 275 311 303 C 292 330 264 344 228 344 C 190 344 159 329 133 301 C 107 273 91 235 86 189 C 80 138 87 99 107 73 C 127 47 154 34 190 34 Z" unicode="Q" />
<glyph horiz-adv-x="352" d="M 28 0 L 88 381 L 218 381 C 264 381 297 370 316 350 C 335 329 343 301 339 267 C 335 237 324 213 306 196 C 288 179 266 167 242 160 L 312 0 L 255 0 L 190 154 L 104 154 L 80 0 L 28 0 Z M 110 194 L 186 194 C 216 194 240 200 258 212 C 276 224 286 242 290 266 C 292 287 287 305 275 319 C 262 333 240 340 208 340 L 133 340 L 110 194 Z" unicode="R" />
<glyph horiz-adv-x="352" d="M 158 -6 C 117 -6 84 -1 59 7 C 33 16 14 27 2 41 L 34 80 C 44 70 59 61 81 52 C 103 42 130 38 162 38 C 219 38 250 56 256 94 C 258 112 254 127 242 140 C 230 152 204 163 166 173 C 125 182 96 195 78 213 C 60 231 52 255 56 286 C 60 317 75 342 101 360 C 127 378 162 387 205 387 C 239 387 266 381 288 371 C 309 361 325 350 336 340 L 301 303 C 289 312 274 321 255 330 C 235 338 213 343 187 343 C 166 343 147 338 131 329 C 115 320 106 307 105 291 C 103 272 108 257 122 247 C 135 236 160 226 196 216 C 235 204 264 190 283 172 C 302 154 310 129 306 96 C 302 62 287 36 260 19 C 233 2 199 -6 158 -6 Z" unicode="S" />
<glyph horiz-adv-x="352" d="M 116 0 L 170 338 L 28 338 L 35 381 L 371 381 L 364 338 L 221 338 L 168 0 L 116 0 Z" unicode="T" />
<glyph horiz-adv-x="384" d="M 162 -6 C 113 -6 78 6 58 32 C 37 57 31 93 39 140 L 77 381 L 129 381 L 89 127 C 84 101 88 80 101 63 C 113 46 136 38 169 38 C 201 38 227 45 247 60 C 267 74 279 97 284 128 L 325 381 L 374 381 L 336 143 C 328 95 312 58 286 32 C 260 6 219 -6 162 -6 Z" unicode="U" />
<glyph horiz-adv-x="384" d="M 138 0 L 38 381 L 91 381 L 175 56 L 355 381 L 409 381 L 193 0 L 138 0 Z" unicode="V" />
<glyph horiz-adv-x="544" d="M 97 0 L 44 381 L 97 381 L 140 70 L 271 381 L 323 381 L 366 73 L 509 381 L 556 381 L 380 0 L 326 0 L 283 297 L 152 0 L 97 0 Z" unicode="W" />
<glyph horiz-adv-x="352" d="M 187 175 L 184 175 L 38 0 L -23 0 L 163 218 L 168 218 L 306 381 L 364 381 L 187 175 Z M 315 0 L 255 0 L 51 381 L 111 381 L 315 0 Z" unicode="X" />
<glyph horiz-adv-x="352" d="M 123 0 L 146 143 L 44 381 L 102 381 L 179 191 L 318 381 L 374 381 L 199 147 L 175 0 L 123 0 Z" unicode="Y" />
<glyph horiz-adv-x="352" d="M 8 0 L 14 39 L 279 338 L 74 338 L 80 381 L 355 381 L 350 350 L 77 43 L 302 43 L 295 0 L 8 0 Z" unicode="Z" />
<glyph horiz-adv-x="224" d="M 13 -72 L 84 381 L 220 381 L 214 342 L 124 342 L 65 -32 L 155 -32 L 148 -72 L 13 -72 Z" unicode="[" />
<glyph horiz-adv-x="256" d="M 192 -45 L 22 397 L 68 397 L 239 -45 L 192 -45 Z" unicode="\" />
<glyph horiz-adv-x="224" d="M -8 -72 L -2 -32 L 88 -32 L 147 342 L 57 342 L 63 381 L 199 381 L 127 -72 L -8 -72 Z" unicode="]" />
<glyph horiz-adv-x="288" d="M 55 250 L 154 381 L 189 381 L 246 250 L 209 250 L 162 328 L 91 250 L 55 250 Z" unicode="^" />
<glyph horiz-adv-x="320" d="M -47 -103 L -40 -58 L 300 -58 L 293 -103 L -47 -103 Z" unicode="_" />
<glyph horiz-adv-x="256" d="M 152 323 L 78 409 L 151 409 L 188 323 L 152 323 Z" unicode="`" />
<glyph horiz-adv-x="320" d="M 239 -6 C 224 -6 214 -2 208 6 C 202 14 200 23 202 35 C 186 21 170 11 152 4 C 134 -2 113 -6 89 -6 C 63 -6 43 2 28 19 C 13 35 7 58 11 88 C 15 120 33 145 65 164 C 97 183 149 195 223 199 L 226 218 C 228 232 225 243 217 253 C 209 262 194 267 173 267 C 151 267 131 263 112 255 C 92 247 75 238 60 228 L 43 267 C 61 279 82 288 106 295 C 129 302 153 306 178 306 C 217 306 243 297 257 281 C 271 264 275 241 271 212 L 249 63 C 246 51 246 43 250 39 C 253 34 258 32 266 32 C 269 32 273 32 278 32 C 283 32 288 33 294 35 L 289 5 C 276 -2 259 -6 239 -6 Z M 110 34 C 130 34 147 37 162 45 C 176 53 190 61 204 71 L 218 163 C 153 156 110 147 90 136 C 70 124 59 109 58 89 C 56 72 58 59 66 49 C 74 39 88 34 110 34 Z" unicode="a" />
<glyph horiz-adv-x="352" d="M 162 -6 C 138 -6 118 -1 102 6 C 86 14 73 26 64 41 L 47 0 L 17 0 L 82 409 L 129 409 L 111 293 L 102 247 C 114 263 131 277 153 289 C 174 300 197 306 222 306 C 256 306 281 292 299 265 C 316 238 321 200 314 152 C 305 98 287 58 260 32 C 233 6 200 -6 162 -6 Z M 153 30 C 185 28 210 37 228 57 C 246 77 258 108 265 152 C 271 187 270 215 260 235 C 250 255 231 266 205 266 C 183 266 161 259 141 246 C 121 233 105 217 95 198 L 76 78 C 80 68 88 58 99 48 C 110 37 128 31 153 30 Z" unicode="b" />
<glyph horiz-adv-x="320" d="M 149 -6 C 102 -6 68 8 48 38 C 27 68 19 106 25 152 C 27 172 33 192 42 211 C 50 229 61 246 75 260 C 89 274 105 285 123 293 C 141 301 162 306 184 306 C 220 306 248 297 266 281 C 284 264 296 243 302 218 L 254 203 C 251 221 243 236 230 248 C 217 260 200 267 179 267 C 148 267 124 256 106 234 C 88 212 77 185 74 153 C 70 117 75 87 87 65 C 99 43 121 32 153 32 C 174 32 192 37 207 47 C 221 57 233 70 243 87 L 284 73 C 270 47 252 28 229 14 C 205 0 179 -6 149 -6 Z" unicode="c" />
<glyph horiz-adv-x="352" d="M 124 -6 C 86 -6 58 8 42 37 C 25 66 20 104 27 152 C 33 200 49 237 77 265 C 105 292 139 306 181 306 C 197 306 213 302 229 295 C 245 288 258 277 269 262 L 292 409 L 338 409 L 273 0 L 233 0 L 234 39 C 220 25 205 14 189 6 C 173 -2 151 -6 124 -6 Z M 145 32 C 163 32 179 36 195 44 C 210 52 224 63 238 77 L 260 220 C 252 232 241 243 227 252 C 213 260 197 265 180 265 C 147 265 122 255 105 235 C 88 215 78 185 74 145 C 70 105 74 76 87 58 C 99 40 119 32 145 32 Z" unicode="d" />
<glyph horiz-adv-x="320" d="M 151 -6 C 98 -6 62 8 44 38 C 26 67 20 105 26 152 C 29 194 45 230 74 260 C 102 290 139 306 185 306 C 230 306 262 291 281 263 C 300 234 306 197 300 153 C 299 147 298 141 296 135 L 70 135 C 66 105 71 80 85 61 C 99 42 123 33 159 33 C 175 33 192 36 209 43 C 226 49 241 59 253 71 L 280 39 C 261 22 241 10 220 4 C 198 -2 175 -6 151 -6 Z M 74 172 L 255 172 C 258 202 254 225 243 242 C 231 258 211 267 181 267 C 157 267 135 258 114 242 C 92 226 79 202 74 172 Z" unicode="e" />
<glyph horiz-adv-x="224" d="M 44 0 L 85 257 L 15 257 L 20 294 L 91 294 L 97 329 C 99 353 108 372 122 387 C 136 402 158 410 186 410 C 199 410 210 409 219 407 C 227 405 234 403 240 401 L 229 364 C 225 366 220 368 213 370 C 205 372 198 373 191 373 C 175 373 164 369 158 362 C 151 355 146 342 143 323 L 138 294 L 224 294 L 218 257 L 132 257 L 91 0 L 44 0 Z" unicode="f" />
<glyph horiz-adv-x="352" d="M 122 -106 C 95 -106 71 -102 50 -94 C 29 -86 11 -77 -3 -68 L 17 -29 C 33 -41 50 -50 69 -57 C 87 -63 107 -67 128 -67 C 154 -67 175 -61 192 -49 C 209 -37 220 -16 226 15 L 233 59 C 223 48 211 38 195 29 C 179 20 161 16 139 16 C 101 16 72 27 51 50 C 30 73 22 107 28 153 C 32 197 48 233 78 262 C 108 291 142 306 180 306 C 201 306 219 301 233 293 C 247 284 259 274 268 262 L 283 294 L 317 294 L 274 19 C 266 -23 250 -54 226 -75 C 201 -95 166 -106 122 -106 Z M 151 52 C 164 52 179 55 195 62 C 211 69 226 79 239 93 L 259 220 C 252 232 242 243 228 253 C 214 263 198 268 179 268 C 153 268 131 257 111 236 C 91 215 79 188 75 154 C 71 122 76 97 88 79 C 100 61 121 52 151 52 Z" unicode="g" />
<glyph horiz-adv-x="352" d="M 17 0 L 82 409 L 129 409 L 101 244 C 117 263 136 278 158 289 C 180 300 204 306 228 306 C 258 306 279 297 293 280 C 307 262 311 239 307 211 L 274 0 L 227 0 L 258 200 C 262 224 259 241 249 251 C 239 260 224 265 206 265 C 183 265 162 258 143 244 C 123 230 107 215 95 199 L 64 0 L 17 0 Z" unicode="h" />
<glyph horiz-adv-x="160" d="M 76 351 L 86 409 L 144 409 L 134 351 L 76 351 Z M 26 0 L 73 294 L 120 294 L 74 0 L 26 0 Z" unicode="i" />
<glyph horiz-adv-x="160" d="M 76 351 L 86 409 L 144 409 L 134 351 L 76 351 Z M -11 -106 C -27 -106 -39 -105 -46 -103 L -40 -63 C -32 -64 -24 -65 -17 -65 C -7 -65 1 -62 8 -56 C 15 -50 20 -40 22 -27 L 73 294 L 121 294 L 67 -41 C 63 -61 55 -77 43 -89 C 31 -100 13 -106 -11 -106 Z" unicode="j" />
<glyph horiz-adv-x="320" d="M 17 0 L 82 409 L 129 409 L 87 150 L 259 294 L 319 294 L 183 182 L 291 0 L 236 0 L 147 155 L 79 100 L 64 0 L 17 0 Z" unicode="k" />
<glyph horiz-adv-x="160" d="M 26 0 L 91 409 L 139 409 L 74 0 L 26 0 Z" unicode="l" />
<glyph horiz-adv-x="512" d="M 17 0 L 63 294 L 103 294 L 100 243 C 115 263 132 278 152 289 C 171 300 191 306 213 306 C 233 306 250 300 262 288 C 274 276 280 261 282 243 C 297 262 314 277 332 289 C 350 300 371 306 394 306 C 419 306 439 298 453 283 C 467 267 471 245 467 215 L 433 0 L 387 0 L 419 203 C 423 227 420 244 411 252 C 402 260 390 265 376 265 C 358 265 342 259 326 247 C 310 235 295 220 281 203 L 276 171 L 249 0 L 202 0 L 233 195 C 237 221 234 240 225 250 C 216 260 204 265 188 265 C 173 265 157 259 141 247 C 125 235 110 221 96 203 L 63 0 L 17 0 Z" unicode="m" />
<glyph horiz-adv-x="352" d="M 17 0 L 63 294 L 103 294 L 99 243 C 116 263 136 278 158 289 C 180 300 204 306 228 306 C 258 306 279 297 293 280 C 307 262 311 239 307 211 L 274 0 L 227 0 L 258 200 C 262 224 259 241 249 251 C 239 260 224 265 206 265 C 183 265 162 258 143 244 C 123 230 107 215 95 199 L 64 0 L 17 0 Z" unicode="n" />
<glyph horiz-adv-x="352" d="M 145 -6 C 99 -6 66 8 46 37 C 26 65 19 103 25 150 C 31 196 49 234 79 263 C 109 291 146 306 192 306 C 237 306 270 291 291 262 C 311 233 319 194 313 146 C 307 101 290 64 261 36 C 232 8 193 -6 145 -6 Z M 152 33 C 186 33 212 42 231 62 C 249 82 261 111 266 149 C 270 186 266 215 253 236 C 239 256 217 267 185 267 C 150 267 124 256 106 235 C 88 214 77 186 73 150 C 67 110 72 80 87 61 C 101 42 123 33 152 33 Z" unicode="o" />
<glyph horiz-adv-x="352" d="M 1 -103 L 63 294 L 103 294 L 100 245 C 111 262 127 276 149 288 C 170 300 193 306 218 306 C 253 306 280 292 298 266 C 316 240 322 202 314 153 C 304 101 286 61 259 34 C 232 7 200 -6 163 -6 C 141 -6 122 -2 106 6 C 90 14 77 24 69 36 L 48 -103 L 1 -103 Z M 154 30 C 182 30 206 39 224 58 C 242 77 255 108 263 152 C 269 192 267 221 256 239 C 244 257 226 266 200 266 C 178 266 157 258 137 244 C 117 229 103 214 96 198 L 76 78 C 80 68 88 58 101 47 C 113 35 131 30 154 30 Z" unicode="p" />
<glyph horiz-adv-x="352" d="M 209 -103 L 227 3 L 233 38 C 219 24 204 14 188 6 C 172 -2 151 -6 126 -6 C 86 -6 57 8 41 37 C 25 66 20 104 27 152 C 33 200 50 237 78 265 C 106 292 140 306 181 306 C 201 306 220 301 236 292 C 252 282 264 271 274 259 L 291 302 L 321 302 L 257 -103 L 209 -103 Z M 145 32 C 162 32 178 36 194 44 C 210 52 224 63 238 77 L 260 220 C 252 232 241 243 227 252 C 212 260 196 265 180 265 C 147 265 122 255 105 235 C 88 215 78 185 74 145 C 70 105 74 76 87 58 C 99 40 119 32 145 32 Z" unicode="q" />
<glyph horiz-adv-x="224" d="M 17 0 L 63 294 L 104 294 L 100 247 C 112 264 128 278 147 289 C 166 300 185 306 203 306 C 215 306 227 305 237 304 L 228 252 C 217 254 208 255 200 256 C 192 257 185 258 177 258 C 161 258 147 253 133 243 C 119 233 106 220 96 205 L 64 0 L 17 0 Z" unicode="r" />
<glyph horiz-adv-x="288" d="M 120 -6 C 90 -6 65 -1 45 8 C 25 17 9 27 -2 39 L 27 72 C 36 61 49 52 67 44 C 85 36 105 33 128 33 C 149 33 166 36 180 44 C 194 51 201 62 203 78 C 204 90 200 101 191 111 C 182 121 164 128 138 134 C 106 140 81 150 63 166 C 45 182 37 203 41 231 C 44 254 55 272 75 286 C 94 299 122 306 158 306 C 182 306 203 302 223 295 C 242 288 258 280 271 270 L 241 235 C 215 256 187 267 155 267 C 131 267 115 263 105 257 C 95 251 89 242 88 232 C 86 220 90 210 98 200 C 106 190 125 182 155 176 C 187 169 211 158 227 144 C 243 129 251 107 249 79 C 246 49 233 28 209 14 C 185 0 156 -6 120 -6 Z" unicode="s" />
<glyph horiz-adv-x="224" d="M 114 -6 C 90 -6 71 0 57 14 C 43 27 40 52 46 89 L 71 251 L 19 251 L 25 288 L 76 288 L 102 381 L 139 381 L 124 288 L 218 288 L 212 251 L 118 251 L 94 91 C 90 74 92 60 98 49 C 104 38 118 33 140 34 C 163 34 183 36 201 41 L 191 6 C 181 1 170 -1 157 -3 C 144 -5 130 -6 114 -6 Z" unicode="t" />
<glyph horiz-adv-x="352" d="M 114 -6 C 81 -6 57 2 42 18 C 26 34 21 59 27 95 L 58 294 L 106 294 L 73 91 C 69 67 72 52 82 44 C 92 36 108 32 130 32 C 156 32 178 38 196 50 C 214 62 227 77 237 95 L 269 294 L 316 294 L 278 59 L 274 0 L 233 0 L 233 40 C 221 26 206 15 187 7 C 167 -1 143 -6 114 -6 Z" unicode="u" />
<glyph horiz-adv-x="320" d="M 103 0 L 20 294 L 71 294 L 137 55 L 267 294 L 317 294 L 149 0 L 103 0 Z" unicode="v" />
<glyph horiz-adv-x="480" d="M 92 0 L 35 294 L 84 294 L 123 57 L 234 294 L 278 294 L 321 57 L 437 294 L 482 294 L 332 0 L 287 0 L 245 232 L 136 0 L 92 0 Z" unicode="w" />
<glyph horiz-adv-x="320" d="M 160 135 L 158 135 L 41 0 L -12 0 L 140 167 L 141 167 L 250 294 L 304 294 L 160 135 Z M 265 0 L 210 0 L 135 135 L 42 294 L 97 294 L 166 170 L 265 0 Z" unicode="x" />
<glyph horiz-adv-x="320" d="M 16 -106 C -2 -106 -15 -104 -23 -102 L -17 -64 C -7 -66 4 -67 16 -67 C 24 -67 32 -66 40 -65 C 48 -63 55 -60 62 -56 C 69 -51 76 -44 83 -35 C 89 -26 96 -14 103 1 L 20 294 L 71 294 L 137 53 L 267 294 L 317 294 L 147 -4 C 137 -24 128 -41 118 -55 C 108 -68 98 -78 87 -86 C 76 -93 65 -98 53 -101 C 41 -104 28 -106 16 -106 Z" unicode="y" />
<glyph horiz-adv-x="288" d="M -10 0 L -6 27 L 207 257 L 40 257 L 47 294 L 281 294 L 277 268 L 61 37 L 241 37 L 234 0 L -10 0 Z" unicode="z" />
<glyph horiz-adv-x="224" d="M 121 -72 C 89 -72 69 -64 60 -49 C 50 -33 48 -10 54 20 L 63 80 C 67 105 66 122 58 130 C 50 138 34 142 12 142 L 17 178 C 39 178 55 182 66 190 C 77 198 85 214 89 240 L 96 289 C 101 321 111 344 125 359 C 139 373 161 381 193 381 L 238 381 L 232 347 L 209 347 C 184 347 167 342 158 334 C 149 325 143 308 140 283 L 135 247 C 130 217 123 196 114 184 C 105 172 90 164 70 161 L 70 159 C 89 154 101 146 106 135 C 111 123 111 103 107 73 L 98 12 C 94 -6 96 -19 103 -26 C 109 -33 124 -37 148 -37 L 172 -37 L 166 -72 L 121 -72 Z" unicode="{" />
<glyph horiz-adv-x="160" d="M 59 -103 L 59 409 L 101 409 L 101 -103 L 59 -103 Z" unicode="|" />
<glyph horiz-adv-x="224" d="M -28 -72 L -23 -37 L 1 -37 C 24 -37 40 -33 49 -26 C 58 -19 64 -6 68 12 L 77 73 C 80 98 86 117 94 131 C 102 145 118 154 142 159 L 142 161 C 122 164 110 172 105 184 C 100 196 100 217 105 247 L 110 283 C 113 307 112 324 106 333 C 100 342 85 347 61 347 L 38 347 L 44 381 L 90 381 C 120 381 140 373 150 359 C 159 344 161 321 156 289 L 148 240 C 144 214 146 198 154 190 C 162 182 177 178 200 178 L 195 142 C 171 142 155 138 145 130 C 135 122 127 105 123 80 L 114 20 C 108 -10 99 -33 85 -49 C 71 -64 48 -72 18 -72 L -28 -72 Z" unicode="}" />
<glyph horiz-adv-x="288" d="M 187 176 C 177 176 169 177 163 180 C 157 183 149 187 141 192 C 132 197 125 201 119 203 C 113 205 107 207 103 207 C 95 207 89 204 85 199 C 81 194 78 187 77 177 L 46 177 C 48 201 54 219 64 231 C 73 242 86 248 103 248 C 112 248 120 246 126 243 C 132 240 140 237 148 233 C 152 230 159 227 167 223 C 175 219 181 217 186 217 C 194 217 200 219 204 224 C 208 229 210 237 212 247 L 243 247 C 240 221 234 203 224 192 C 214 181 202 176 187 176 Z" unicode="~" />
<glyph horiz-adv-x="352" d="M 109 -77 L 143 50 L 10 37 L 19 93 L 148 80 L 147 166 L 175 252 L 42 240 L 51 295 L 180 283 L 186 409 L 242 409 L 208 283 L 341 295 L 332 240 L 203 252 L 203 166 L 176 80 L 309 93 L 300 37 L 171 50 L 165 -77 L 109 -77 Z" unicode="‡" />
<glyph horiz-adv-x="160" d="M 79 141 C 67 141 57 145 49 154 C 41 162 37 172 37 184 C 37 195 41 205 49 213 C 57 221 67 226 79 226 C 91 226 101 221 109 213 C 117 205 122 195 122 184 C 122 172 117 162 109 154 C 101 145 91 141 79 141 Z" unicode="∙" />
<glyph horiz-adv-x="384" d="M 117 304 C 141 304 161 297 176 283 C 191 269 203 245 212 210 C 213 180 219 160 230 152 C 240 143 253 139 268 139 C 282 139 294 144 304 156 C 314 168 320 184 320 204 C 320 220 316 235 308 247 C 300 259 288 265 270 265 C 252 265 238 257 230 242 C 221 226 214 208 209 188 C 202 162 190 140 172 124 C 154 107 133 99 110 99 C 84 99 63 108 47 127 C 31 145 24 170 24 202 C 24 231 33 255 52 275 C 70 294 92 304 117 304 Z M 268 99 C 243 99 224 106 210 120 C 196 134 185 158 178 191 C 171 217 163 236 153 246 C 143 256 132 262 118 262 C 102 262 89 256 79 245 C 69 234 64 218 64 198 C 64 177 67 162 75 152 C 83 142 95 138 112 138 C 127 138 140 144 152 156 C 163 168 172 188 179 216 C 187 246 199 268 215 282 C 231 296 251 304 275 304 C 299 304 320 295 336 278 C 352 260 361 236 361 205 C 361 175 352 149 335 129 C 317 109 295 99 268 99 Z" unicode="∞" />
<glyph horiz-adv-x="320" d="M 20 111 L 6 153 L 92 224 L 130 64 L 313 387 L 360 387 L 121 -32 L 114 -32 L 69 152 L 20 111 Z" unicode="√" />
<glyph horiz-adv-x="160" d="" unicode=" " />
<glyph horiz-adv-x="192" d="M 128 255 L 101 -6 L 32 -6 L 91 255 L 128 255 Z M 121 388 C 132 388 141 384 149 376 C 157 368 161 358 161 348 C 161 337 157 328 149 320 C 141 312 132 308 121 308 C 109 308 100 312 92 320 C 84 328 81 337 81 348 C 81 358 84 368 92 376 C 100 384 109 388 121 388 Z" unicode="¡" />
<glyph horiz-adv-x="320" d="M 112 -43 L 121 14 C 93 18 70 32 53 55 C 36 78 31 116 37 170 C 43 218 60 256 88 282 C 116 308 143 324 171 328 L 177 369 L 226 369 L 219 328 C 239 325 258 317 274 305 C 290 293 301 272 306 243 L 256 226 C 254 246 249 260 239 268 C 229 276 218 281 207 283 L 171 52 C 186 54 200 59 212 69 C 224 78 234 91 242 109 L 283 94 C 269 68 253 48 234 36 C 214 23 193 15 170 12 L 161 -43 L 112 -43 Z M 133 54 L 169 284 C 145 280 127 268 113 248 C 99 227 90 201 87 171 C 83 138 84 111 91 91 C 97 71 111 58 133 54 Z" unicode="¢" />
<glyph horiz-adv-x="320" d="M -3 0 L 3 40 C 25 42 43 48 58 56 C 73 64 84 80 90 102 C 94 116 94 129 92 141 C 89 153 86 161 83 167 L 23 167 L 29 206 L 64 206 C 60 216 57 227 55 239 C 52 251 52 267 56 286 C 61 313 75 337 98 357 C 121 377 152 387 190 387 C 216 387 240 381 261 369 C 281 357 296 344 306 330 L 271 293 C 263 305 251 316 235 326 C 219 336 202 342 183 342 C 163 342 146 336 134 326 C 121 315 113 300 110 280 C 108 265 108 252 111 240 C 113 228 117 216 121 206 L 226 206 L 219 167 L 137 167 C 139 161 141 153 143 144 C 145 135 144 124 142 112 C 138 94 131 80 119 68 C 107 56 95 47 83 42 L 187 42 C 209 42 224 45 234 53 C 244 60 250 70 254 84 L 296 75 C 292 53 283 35 268 21 C 252 7 233 0 210 0 L -3 0 Z" unicode="£" />
<glyph horiz-adv-x="320" d="M 276 98 L 247 71 L 197 125 C 185 117 171 113 155 113 C 139 113 126 117 114 125 L 64 71 L 35 98 L 87 152 C 82 158 79 165 77 171 C 75 177 75 185 75 195 C 75 203 75 210 77 217 C 79 224 82 231 87 238 L 35 292 L 64 319 L 114 265 C 126 273 139 277 155 277 C 171 277 185 273 197 265 L 248 319 L 277 289 L 225 238 C 229 231 232 224 234 218 C 236 211 237 203 237 195 C 237 179 232 164 224 152 L 276 98 Z M 199 195 C 199 208 194 219 186 227 C 178 235 167 240 155 240 C 142 240 132 235 124 227 C 116 219 112 208 112 195 C 112 181 116 171 124 163 C 132 155 143 151 155 151 C 168 151 179 155 187 163 C 195 171 199 181 199 195 Z" unicode="¤" />
<glyph horiz-adv-x="352" d="M 363 381 L 188 147 L 165 0 L 115 0 L 137 143 L 39 381 L 96 381 L 170 192 L 309 381 L 363 381 Z M 9 49 L 15 82 L 299 82 L 293 49 L 9 49 Z M 309 151 L 304 118 L 20 118 L 25 151 L 309 151 Z" unicode="¥" />
<glyph horiz-adv-x="160" d="M 53 197 L 53 409 L 105 409 L 105 197 L 53 197 Z M 53 -103 L 53 110 L 105 110 L 105 -103 L 53 -103 Z" unicode="¦" />
<glyph horiz-adv-x="352" d="M 148 -100 C 114 -100 87 -94 67 -84 C 47 -74 31 -62 19 -50 L 50 -12 C 60 -23 74 -33 90 -42 C 106 -51 125 -56 147 -56 C 189 -56 211 -41 214 -13 C 214 -5 213 1 211 7 C 208 13 203 18 197 24 C 190 29 181 34 170 39 C 159 44 145 50 129 57 C 93 70 68 84 56 100 C 43 116 38 135 42 157 C 44 173 50 188 61 202 C 72 216 89 229 111 241 C 101 248 92 257 86 268 C 79 279 77 295 79 316 C 83 338 96 356 120 369 C 143 382 170 389 200 389 C 228 389 251 384 270 376 C 289 368 304 358 316 346 L 284 308 C 270 321 256 331 242 337 C 228 343 211 346 193 346 C 178 346 164 343 152 338 C 140 333 133 325 131 314 C 129 305 130 298 133 292 C 135 286 140 281 147 277 C 154 272 163 268 174 264 C 184 260 197 255 212 250 C 246 238 268 224 280 208 C 291 192 295 174 292 153 C 288 119 263 93 217 75 C 232 67 245 55 255 40 C 265 25 269 7 266 -15 C 262 -42 249 -63 227 -78 C 204 -92 178 -100 148 -100 Z M 174 93 C 192 98 207 105 221 115 C 234 125 241 137 243 152 C 244 168 237 181 223 191 C 208 201 183 211 147 222 C 135 218 124 211 113 201 C 101 191 95 179 94 166 C 91 151 95 138 107 127 C 119 116 141 105 174 93 Z" unicode="§" />
<glyph horiz-adv-x="256" d="M 176 347 L 186 403 L 244 403 L 233 347 L 176 347 Z M 78 347 L 89 403 L 146 403 L 136 347 L 78 347 Z" unicode="¨" />
<glyph horiz-adv-x="416" d="M 204 66 C 178 66 156 75 140 93 C 124 111 116 137 116 169 C 116 203 125 230 143 249 C 161 267 182 277 207 277 C 228 277 246 271 260 260 C 274 249 284 234 290 215 L 260 202 C 255 216 248 226 239 233 C 230 239 219 243 207 243 C 191 243 178 236 168 222 C 158 208 154 190 154 169 C 154 146 158 128 168 116 C 178 104 191 98 208 98 C 222 98 233 101 243 108 C 252 114 259 125 265 140 L 293 127 C 286 107 275 91 260 81 C 245 71 226 66 204 66 Z M 208 -19 C 157 -19 113 -1 75 33 C 37 68 19 114 19 171 C 19 224 37 268 75 304 C 113 340 157 358 209 358 C 257 358 301 340 339 304 C 377 268 397 224 397 171 C 397 115 378 70 342 34 C 305 -1 260 -19 208 -19 Z M 207 -1 C 252 -1 291 15 325 47 C 359 79 376 120 376 170 C 376 218 359 258 325 290 C 291 322 252 338 207 338 C 163 338 124 321 90 289 C 56 257 40 217 40 170 C 40 120 56 79 89 47 C 121 15 161 -1 207 -1 Z" unicode="©" />
<glyph horiz-adv-x="320" d="M 16 46 L 22 85 L 283 85 L 277 46 L 16 46 Z M 251 104 C 235 104 225 108 219 117 C 213 125 211 135 211 147 C 197 131 182 119 166 113 C 149 107 133 104 117 104 C 93 104 74 111 60 125 C 46 139 40 159 43 185 C 46 213 62 236 91 253 C 119 269 166 279 230 283 L 234 313 C 235 322 232 330 225 338 C 217 346 202 350 180 350 C 164 350 148 347 134 341 C 119 335 104 327 90 318 L 81 353 C 96 363 113 371 132 378 C 151 384 172 388 194 388 C 230 388 254 380 266 365 C 278 350 282 330 279 306 L 259 174 C 257 160 257 151 261 147 C 264 143 270 141 278 141 C 282 141 285 141 288 141 C 290 141 294 142 300 144 L 295 116 C 289 112 282 109 274 107 C 266 105 259 104 251 104 Z M 139 141 C 152 141 165 143 178 148 C 191 153 202 160 211 169 L 225 256 C 173 250 138 241 121 229 C 103 216 94 203 94 190 C 92 175 95 163 102 154 C 108 145 121 141 139 141 Z" unicode="ª" />
<glyph horiz-adv-x="320" d="M 267 47 L 164 127 L 173 186 L 302 267 L 292 206 L 211 157 L 277 107 L 267 47 Z M 133 47 L 30 127 L 39 186 L 168 267 L 158 206 L 77 157 L 143 107 L 133 47 Z" unicode="«" />
<glyph horiz-adv-x="384" d="M 283 88 L 283 182 L 56 182 L 56 230 L 328 230 L 328 88 L 283 88 Z" unicode="¬" />
<glyph horiz-adv-x="224" d="M 27 134 L 35 186 L 189 186 L 181 134 L 27 134 Z" unicode="­" />
<glyph horiz-adv-x="384" d="M 137 141 L 137 335 L 211 335 C 237 335 256 329 269 318 C 281 307 288 292 288 274 C 288 259 283 247 274 237 C 265 227 255 222 243 220 L 293 141 L 251 141 L 206 215 L 175 215 L 175 141 L 137 141 Z M 175 247 L 200 247 C 219 247 232 249 238 255 C 244 260 247 267 247 276 C 247 284 244 291 238 296 C 232 300 219 303 200 303 L 175 303 L 175 247 Z M 205 59 C 161 59 122 74 86 106 C 50 137 33 179 33 233 C 33 284 50 326 86 358 C 122 390 162 407 206 407 C 252 407 293 391 327 360 C 361 328 378 286 378 233 C 378 179 361 137 327 106 C 293 74 252 59 205 59 Z M 204 77 C 246 77 283 91 314 119 C 345 147 361 185 361 233 C 361 280 345 318 314 346 C 283 374 246 389 204 389 C 163 389 127 374 97 345 C 66 316 51 279 51 233 C 51 185 66 147 97 119 C 127 91 163 77 204 77 Z" unicode="®" />
<glyph horiz-adv-x="256" d="M 65 341 L 72 381 L 231 381 L 225 341 L 65 341 Z" unicode="¯" />
<glyph horiz-adv-x="256" d="M 154 225 C 126 225 104 233 86 251 C 68 268 60 290 60 317 C 60 344 68 366 86 383 C 104 400 126 409 154 409 C 180 409 202 400 220 383 C 238 366 247 344 247 317 C 247 290 238 268 220 251 C 202 233 180 225 154 225 Z M 154 263 C 169 263 181 268 191 278 C 201 288 206 301 206 317 C 206 333 201 346 191 356 C 181 366 169 371 154 371 C 138 371 126 366 116 356 C 106 346 101 333 101 317 C 101 301 106 288 116 278 C 126 268 138 263 154 263 Z" unicode="°" />
<glyph horiz-adv-x="384" d="M 168 88 L 168 191 L 50 191 L 50 234 L 168 234 L 168 338 L 216 338 L 216 234 L 334 234 L 334 191 L 216 191 L 216 88 L 168 88 Z M 51 6 L 51 54 L 334 54 L 334 6 L 51 6 Z" unicode="±" />
<glyph horiz-adv-x="224" d="M 9 157 L 15 193 L 110 278 C 125 292 135 302 141 310 C 147 317 150 325 152 334 C 153 342 151 350 147 356 C 142 362 134 365 124 365 C 111 365 99 361 89 355 C 78 349 70 343 65 337 L 38 368 C 47 376 60 385 76 393 C 92 401 112 405 135 405 C 157 405 175 398 187 385 C 199 372 203 356 201 338 C 197 320 188 303 174 287 C 159 271 143 257 125 244 L 64 197 L 186 197 L 180 157 L 9 157 Z" unicode="²" />
<glyph horiz-adv-x="224" d="M 11 182 L 40 215 C 46 209 54 204 64 200 C 74 196 85 194 98 194 C 111 194 122 197 130 203 C 138 209 143 219 145 231 C 147 243 143 252 134 258 C 125 264 114 267 100 267 L 83 267 L 90 303 L 104 303 C 121 303 133 305 141 311 C 148 316 152 323 154 332 C 156 341 154 349 149 355 C 143 361 135 364 125 364 C 111 364 99 361 89 357 C 78 352 70 348 66 345 L 51 378 C 57 384 68 390 83 396 C 98 402 115 405 134 405 C 157 405 174 398 186 386 C 198 374 202 358 199 339 C 195 321 188 308 177 300 C 166 292 154 287 140 287 C 156 285 170 279 180 268 C 190 256 194 241 190 223 C 186 203 176 186 159 173 C 141 160 120 153 96 153 C 74 153 57 155 44 161 C 30 166 19 173 11 182 Z" unicode="³" />
<glyph horiz-adv-x="256" d="M 99 323 L 166 409 L 240 409 L 143 323 L 99 323 Z" unicode="´" />
<glyph horiz-adv-x="352" d="M 34 -96 C 26 -96 20 -93 15 -87 C 10 -81 9 -72 11 -60 C 16 -30 22 -5 28 16 C 34 38 39 55 41 67 C 43 79 45 89 46 95 L 77 294 L 125 294 L 92 91 C 88 67 92 50 104 41 C 116 32 132 28 154 29 C 174 30 193 37 209 50 C 225 62 238 77 248 95 L 280 294 L 327 294 L 290 60 L 285 0 L 244 0 L 243 45 C 229 27 213 13 195 4 C 176 -5 157 -10 137 -10 C 124 -10 111 -8 98 -4 C 85 0 76 5 70 15 C 68 0 67 -13 68 -25 C 68 -37 68 -47 67 -57 C 65 -70 61 -80 56 -86 C 50 -92 43 -96 34 -96 Z" unicode="µ" />
<glyph horiz-adv-x="320" d="M 110 -103 L 152 160 C 110 161 78 171 55 189 C 32 207 24 235 30 271 C 35 307 51 334 79 353 C 106 371 142 381 187 381 L 303 381 L 226 -103 L 188 -103 L 259 343 L 218 343 L 148 -103 L 110 -103 Z" unicode="¶" />
<glyph horiz-adv-x="160" d="M 79 141 C 67 141 57 145 49 154 C 41 162 37 172 37 184 C 37 195 41 205 49 213 C 57 221 67 226 79 226 C 91 226 101 221 109 213 C 117 205 122 195 122 184 C 122 172 117 162 109 154 C 101 145 91 141 79 141 Z" unicode="·" />
<glyph horiz-adv-x="256" d="M 82 -96 C 70 -96 60 -94 51 -92 C 41 -89 33 -86 26 -82 L 42 -54 C 48 -58 55 -62 62 -64 C 69 -66 77 -67 86 -67 C 95 -67 103 -65 109 -62 C 115 -58 118 -53 119 -47 C 119 -42 118 -38 115 -35 C 112 -32 107 -31 101 -31 C 95 -31 91 -31 87 -32 C 83 -33 79 -35 76 -37 L 73 -11 C 77 -9 82 -7 90 -6 C 98 -4 105 -4 113 -4 C 125 -4 135 -7 143 -15 C 151 -22 154 -32 153 -46 C 151 -63 143 -76 129 -84 C 115 -92 99 -96 82 -96 Z" unicode="¸" />
<glyph horiz-adv-x="192" d="M 77 157 L 109 360 L 48 342 L 54 377 L 132 409 L 161 409 L 123 157 L 77 157 Z" unicode="¹" />
<glyph horiz-adv-x="320" d="M 18 46 L 25 85 L 288 85 L 282 46 L 18 46 Z M 159 105 C 121 105 92 118 73 144 C 54 170 47 204 51 246 C 54 286 69 320 97 346 C 124 372 155 385 191 385 C 227 385 256 372 277 347 C 297 321 306 288 302 246 C 297 203 281 169 254 143 C 226 117 195 105 159 105 Z M 162 141 C 186 141 207 150 224 168 C 241 186 251 212 255 245 C 258 275 254 299 243 318 C 231 337 213 347 187 347 C 161 347 141 337 125 318 C 109 299 99 275 96 245 C 92 213 96 187 107 169 C 117 150 136 141 162 141 Z" unicode="º" />
<glyph horiz-adv-x="320" d="M 150 46 L 160 107 L 242 157 L 175 206 L 185 267 L 289 186 L 280 127 L 150 46 Z M 17 46 L 27 107 L 109 157 L 42 206 L 52 267 L 155 186 L 146 127 L 17 46 Z" unicode="»" />
<glyph horiz-adv-x="480" d="M 54 0 L 358 381 L 403 381 L 99 0 L 54 0 Z M 61 157 L 93 360 L 32 342 L 38 377 L 116 409 L 145 409 L 107 157 L 61 157 Z M 350 1 L 358 56 L 244 56 L 250 92 L 388 246 L 432 246 L 408 95 L 438 95 L 432 56 L 402 56 L 393 1 L 350 1 Z M 294 93 L 364 93 L 380 189 L 294 93 Z" unicode="¼" />
<glyph horiz-adv-x="480" d="M 29 0 L 333 381 L 378 381 L 74 0 L 29 0 Z M 55 157 L 87 360 L 26 342 L 32 377 L 110 409 L 139 409 L 101 157 L 55 157 Z M 253 1 L 259 37 L 354 122 C 369 136 379 146 385 154 C 391 161 394 169 396 178 C 397 186 395 194 391 200 C 386 206 378 209 368 209 C 355 209 343 205 333 199 C 322 193 314 187 309 181 L 282 212 C 291 220 304 229 320 237 C 336 245 356 249 379 249 C 401 249 419 242 431 229 C 443 216 447 200 445 182 C 441 164 432 147 418 131 C 403 115 387 101 369 88 L 308 41 L 430 41 L 424 1 L 253 1 Z" unicode="½" />
<glyph horiz-adv-x="512" d="M 87 0 L 391 381 L 436 381 L 132 0 L 87 0 Z M 11 182 L 40 215 C 46 209 54 204 64 200 C 74 196 85 194 98 194 C 111 194 122 197 130 203 C 138 209 143 219 145 231 C 147 243 143 252 134 258 C 125 264 114 267 100 267 L 83 267 L 90 303 L 104 303 C 121 303 133 305 141 311 C 148 316 152 323 154 332 C 156 341 154 349 149 355 C 143 361 135 364 125 364 C 111 364 99 361 89 357 C 78 352 70 348 66 345 L 51 378 C 57 384 68 390 83 396 C 98 402 115 405 134 405 C 157 405 174 398 186 386 C 198 374 202 358 199 339 C 195 321 188 308 177 300 C 166 292 154 287 140 287 C 156 285 170 279 180 268 C 190 256 194 241 190 223 C 186 203 176 186 159 173 C 141 160 120 153 96 153 C 74 153 57 155 44 161 C 30 166 19 173 11 182 Z M 378 1 L 386 56 L 272 56 L 278 92 L 416 246 L 460 246 L 436 95 L 466 95 L 460 56 L 430 56 L 421 1 L 378 1 Z M 322 93 L 392 93 L 408 189 L 322 93 Z" unicode="¾" />
<glyph horiz-adv-x="320" d="M 226 252 C 223 234 216 220 206 209 C 195 198 178 187 155 175 C 138 166 124 156 113 145 C 101 133 95 118 94 99 C 92 78 97 63 108 54 C 118 44 133 40 151 40 C 169 40 186 45 204 55 C 222 65 237 79 250 96 L 283 70 C 268 49 249 32 226 18 C 203 4 177 -3 147 -3 C 111 -3 83 6 65 25 C 46 43 38 68 40 98 C 42 125 51 146 66 162 C 80 177 100 191 126 205 C 144 213 157 221 164 227 C 171 233 176 242 179 252 L 226 252 Z M 225 308 C 213 308 204 312 196 320 C 188 328 185 337 185 348 C 185 358 188 368 196 376 C 204 384 213 388 225 388 C 236 388 245 384 253 376 C 261 368 265 358 265 348 C 265 337 261 328 253 320 C 245 312 236 308 225 308 Z" unicode="¿" />
<glyph horiz-adv-x="384" d="M -11 0 L 201 384 L 259 384 L 349 0 L 294 0 L 276 91 L 89 91 L 41 0 L -11 0 Z M 112 133 L 267 133 L 221 331 L 112 133 Z M 229 410 L 155 496 L 228 496 L 265 410 L 229 410 Z" unicode="À" />
<glyph horiz-adv-x="384" d="M -11 0 L 201 384 L 259 384 L 349 0 L 294 0 L 276 91 L 89 91 L 41 0 L -11 0 Z M 112 133 L 267 133 L 221 331 L 112 133 Z M 186 410 L 253 496 L 327 496 L 230 410 L 186 410 Z" unicode="Á" />
<glyph horiz-adv-x="384" d="M -11 0 L 201 384 L 259 384 L 349 0 L 294 0 L 276 91 L 89 91 L 41 0 L -11 0 Z M 112 133 L 267 133 L 221 331 L 112 133 Z M 143 410 L 218 496 L 264 496 L 312 410 L 270 410 L 235 454 L 185 410 L 143 410 Z" unicode="Â" />
<glyph horiz-adv-x="384" d="M -11 0 L 201 384 L 259 384 L 349 0 L 294 0 L 276 91 L 89 91 L 41 0 L -11 0 Z M 112 133 L 267 133 L 221 331 L 112 133 Z M 185 422 L 148 422 C 150 444 156 459 165 469 C 174 479 185 484 199 484 C 207 484 214 482 220 479 C 226 476 231 473 235 470 C 239 467 243 464 247 462 C 251 460 256 459 261 459 C 265 459 269 460 273 464 C 277 468 279 473 281 481 L 318 481 C 314 457 307 441 298 432 C 289 423 279 419 267 419 C 259 419 253 420 248 422 C 243 424 237 426 231 430 C 224 434 218 437 214 439 C 210 441 206 442 204 442 C 199 442 195 440 192 437 C 189 433 187 428 185 422 Z" unicode="Ã" />
<glyph horiz-adv-x="384" d="M -11 0 L 201 384 L 259 384 L 349 0 L 294 0 L 276 91 L 89 91 L 41 0 L -11 0 Z M 112 133 L 267 133 L 221 331 L 112 133 Z M 253 434 L 263 490 L 321 490 L 310 434 L 253 434 Z M 155 434 L 166 490 L 223 490 L 213 434 L 155 434 Z" unicode="Ä" />
<glyph horiz-adv-x="384" d="M -11 0 L 201 384 L 259 384 L 349 0 L 294 0 L 276 91 L 89 91 L 41 0 L -11 0 Z M 112 133 L 267 133 L 221 331 L 112 133 Z M 234 373 C 216 373 201 378 189 390 C 177 402 172 417 172 435 C 172 453 177 467 189 479 C 201 491 216 497 234 497 C 252 497 266 491 278 479 C 290 467 296 453 296 435 C 296 417 290 402 278 390 C 266 378 252 373 234 373 Z M 234 402 C 243 402 250 405 256 411 C 262 417 265 425 265 435 C 265 444 262 452 256 458 C 250 464 243 467 234 467 C 224 467 217 464 211 458 C 205 452 202 444 202 435 C 202 425 205 417 211 411 C 217 405 224 402 234 402 Z" unicode="Å" />
<glyph horiz-adv-x="512" d="M -29 0 L 232 381 L 525 381 L 519 338 L 331 338 L 312 219 L 469 219 L 462 176 L 305 176 L 284 43 L 480 43 L 473 0 L 227 0 L 243 104 L 95 104 L 25 0 L -29 0 Z M 125 147 L 250 147 L 280 338 L 257 338 L 125 147 Z" unicode="Æ" />
<glyph horiz-adv-x="384" d="M 179 -6 C 124 -6 84 10 59 43 C 33 76 24 123 30 184 C 36 247 56 297 90 333 C 124 369 168 387 223 387 C 265 387 299 376 323 356 C 347 335 362 309 366 279 L 320 265 C 314 293 302 313 286 325 C 270 337 247 344 218 344 C 179 344 147 329 122 299 C 96 269 82 231 80 183 C 76 136 83 100 99 75 C 115 50 143 38 182 38 C 210 38 233 43 251 55 C 269 67 287 88 303 119 L 342 99 C 324 61 301 34 273 18 C 244 2 213 -6 179 -6 Z M 146 -96 C 134 -96 124 -94 115 -92 C 105 -89 97 -86 90 -82 L 106 -54 C 112 -58 119 -62 126 -64 C 133 -66 141 -67 150 -67 C 159 -67 167 -65 173 -62 C 179 -58 182 -53 183 -47 C 183 -42 182 -38 179 -35 C 176 -32 171 -31 165 -31 C 159 -31 155 -31 151 -32 C 147 -33 143 -35 140 -37 L 137 -11 C 141 -9 146 -7 154 -6 C 162 -4 169 -4 177 -4 C 189 -4 199 -7 207 -15 C 215 -22 218 -32 217 -46 C 215 -63 207 -76 193 -84 C 179 -92 163 -96 146 -96 Z" unicode="Ç" />
<glyph horiz-adv-x="320" d="M 28 0 L 88 381 L 333 381 L 326 338 L 132 338 L 113 219 L 270 219 L 263 176 L 106 176 L 85 43 L 286 43 L 280 0 L 28 0 Z M 207 410 L 133 496 L 206 496 L 243 410 L 207 410 Z" unicode="È" />
<glyph horiz-adv-x="320" d="M 28 0 L 88 381 L 333 381 L 326 338 L 132 338 L 113 219 L 270 219 L 263 176 L 106 176 L 85 43 L 286 43 L 280 0 L 28 0 Z M 184 410 L 251 496 L 325 496 L 228 410 L 184 410 Z" unicode="É" />
<glyph horiz-adv-x="320" d="M 28 0 L 88 381 L 333 381 L 326 338 L 132 338 L 113 219 L 270 219 L 263 176 L 106 176 L 85 43 L 286 43 L 280 0 L 28 0 Z M 135 410 L 210 496 L 256 496 L 304 410 L 262 410 L 227 454 L 177 410 L 135 410 Z" unicode="Ê" />
<glyph horiz-adv-x="320" d="M 28 0 L 88 381 L 333 381 L 326 338 L 132 338 L 113 219 L 270 219 L 263 176 L 106 176 L 85 43 L 286 43 L 280 0 L 28 0 Z M 241 434 L 251 490 L 309 490 L 298 434 L 241 434 Z M 143 434 L 154 490 L 211 490 L 201 434 L 143 434 Z" unicode="Ë" />
<glyph horiz-adv-x="192" d="M 39 0 L 99 381 L 152 381 L 91 0 L 39 0 Z M 129 410 L 55 496 L 128 496 L 165 410 L 129 410 Z" unicode="Ì" />
<glyph horiz-adv-x="192" d="M 39 0 L 99 381 L 152 381 L 91 0 L 39 0 Z M 91 410 L 158 496 L 232 496 L 135 410 L 91 410 Z" unicode="Í" />
<glyph horiz-adv-x="192" d="M 39 0 L 99 381 L 152 381 L 91 0 L 39 0 Z M 46 410 L 121 496 L 167 496 L 215 410 L 173 410 L 138 454 L 88 410 L 46 410 Z" unicode="Î" />
<glyph horiz-adv-x="192" d="M 39 0 L 99 381 L 152 381 L 91 0 L 39 0 Z M 158 434 L 168 490 L 226 490 L 215 434 L 158 434 Z M 60 434 L 71 490 L 128 490 L 118 434 L 60 434 Z" unicode="Ï" />
<glyph horiz-adv-x="416" d="M 28 0 L 88 381 L 214 381 C 272 381 315 365 344 333 C 373 301 384 254 377 191 C 368 125 343 77 302 46 C 261 15 211 0 151 0 L 28 0 Z M 86 41 L 154 41 C 198 41 235 52 266 74 C 296 96 316 134 325 190 C 331 236 325 272 305 299 C 285 326 254 340 210 340 L 133 340 L 86 41 Z M 16 175 L 23 220 L 179 220 L 172 175 L 16 175 Z" unicode="Ð" />
<glyph horiz-adv-x="416" d="M 28 0 L 88 381 L 136 381 L 298 75 L 341 381 L 388 381 L 328 0 L 280 0 L 123 308 L 75 0 L 28 0 Z M 201 422 L 164 422 C 166 444 172 459 181 469 C 190 479 201 484 215 484 C 223 484 230 482 236 479 C 242 476 247 473 251 470 C 255 467 259 464 263 462 C 267 460 272 459 277 459 C 281 459 285 460 289 464 C 293 468 295 473 297 481 L 334 481 C 330 457 323 441 314 432 C 305 423 295 419 283 419 C 275 419 269 420 264 422 C 259 424 253 426 247 430 C 240 434 234 437 230 439 C 226 441 222 442 220 442 C 215 442 211 440 208 437 C 205 433 203 428 201 422 Z" unicode="Ñ" />
<glyph horiz-adv-x="416" d="M 186 -6 C 131 -6 90 13 64 51 C 38 89 29 135 37 189 C 41 241 61 287 95 327 C 129 367 174 387 230 387 C 282 387 321 369 349 335 C 377 300 387 251 381 189 C 374 127 353 79 319 45 C 284 11 240 -6 186 -6 Z M 190 37 C 228 37 259 50 285 77 C 310 104 325 141 331 189 C 336 237 329 275 311 303 C 292 330 264 344 228 344 C 190 344 159 329 133 301 C 107 273 92 235 87 189 C 81 139 88 101 108 75 C 127 49 154 37 190 37 Z M 245 410 L 171 496 L 244 496 L 281 410 L 245 410 Z" unicode="Ò" />
<glyph horiz-adv-x="416" d="M 186 -6 C 131 -6 90 13 64 51 C 38 89 29 135 37 189 C 41 241 61 287 95 327 C 129 367 174 387 230 387 C 282 387 321 369 349 335 C 377 300 387 251 381 189 C 374 127 353 79 319 45 C 284 11 240 -6 186 -6 Z M 190 37 C 228 37 259 50 285 77 C 310 104 325 141 331 189 C 336 237 329 275 311 303 C 292 330 264 344 228 344 C 190 344 159 329 133 301 C 107 273 92 235 87 189 C 81 139 88 101 108 75 C 127 49 154 37 190 37 Z M 192 410 L 259 496 L 333 496 L 236 410 L 192 410 Z" unicode="Ó" />
<glyph horiz-adv-x="416" d="M 186 -6 C 131 -6 90 13 64 51 C 38 89 29 135 37 189 C 41 241 61 287 95 327 C 129 367 174 387 230 387 C 282 387 321 369 349 335 C 377 300 387 251 381 189 C 374 127 353 79 319 45 C 284 11 240 -6 186 -6 Z M 190 37 C 228 37 259 50 285 77 C 310 104 325 141 331 189 C 336 237 329 275 311 303 C 292 330 264 344 228 344 C 190 344 159 329 133 301 C 107 273 92 235 87 189 C 81 139 88 101 108 75 C 127 49 154 37 190 37 Z M 159 410 L 234 496 L 280 496 L 328 410 L 286 410 L 251 454 L 201 410 L 159 410 Z" unicode="Ô" />
<glyph horiz-adv-x="416" d="M 186 -6 C 131 -6 90 13 64 51 C 38 89 29 135 37 189 C 41 241 61 287 95 327 C 129 367 174 387 230 387 C 282 387 321 369 349 335 C 377 300 387 251 381 189 C 374 127 353 79 319 45 C 284 11 240 -6 186 -6 Z M 190 37 C 228 37 259 50 285 77 C 310 104 325 141 331 189 C 336 237 329 275 311 303 C 292 330 264 344 228 344 C 190 344 159 329 133 301 C 107 273 92 235 87 189 C 81 139 88 101 108 75 C 127 49 154 37 190 37 Z M 201 422 L 164 422 C 166 444 172 459 181 469 C 190 479 201 484 215 484 C 223 484 230 482 236 479 C 242 476 247 473 251 470 C 255 467 259 464 263 462 C 267 460 272 459 277 459 C 281 459 285 460 289 464 C 293 468 295 473 297 481 L 334 481 C 330 457 323 441 314 432 C 305 423 295 419 283 419 C 275 419 269 420 264 422 C 259 424 253 426 247 430 C 240 434 234 437 230 439 C 226 441 222 442 220 442 C 215 442 211 440 208 437 C 205 433 203 428 201 422 Z" unicode="Õ" />
<glyph horiz-adv-x="416" d="M 186 -6 C 131 -6 90 13 64 51 C 38 89 29 135 37 189 C 41 241 61 287 95 327 C 129 367 174 387 230 387 C 282 387 321 369 349 335 C 377 300 387 251 381 189 C 374 127 353 79 319 45 C 284 11 240 -6 186 -6 Z M 190 37 C 228 37 259 50 285 77 C 310 104 325 141 331 189 C 336 237 329 275 311 303 C 292 330 264 344 228 344 C 190 344 159 329 133 301 C 107 273 92 235 87 189 C 81 139 88 101 108 75 C 127 49 154 37 190 37 Z M 269 434 L 279 490 L 337 490 L 326 434 L 269 434 Z M 171 434 L 182 490 L 239 490 L 229 434 L 171 434 Z" unicode="Ö" />
<glyph horiz-adv-x="384" d="M 118 94 L 88 123 L 162 198 L 88 272 L 119 303 L 192 228 L 266 302 L 296 272 L 222 198 L 296 123 L 266 94 L 192 167 L 118 94 Z" unicode="×" />
<glyph horiz-adv-x="416" d="M 345 409 L 390 409 L 82 -32 L 36 -32 L 345 409 Z M 186 -6 C 131 -6 90 13 64 51 C 38 89 29 135 37 189 C 41 241 61 287 95 327 C 129 367 174 387 230 387 C 282 387 321 369 349 335 C 377 300 387 251 381 189 C 374 127 353 79 319 45 C 284 11 240 -6 186 -6 Z M 190 37 C 228 37 259 50 285 77 C 310 104 325 141 331 189 C 336 237 329 275 311 303 C 292 330 264 344 228 344 C 190 344 159 329 133 301 C 107 273 92 235 87 189 C 81 139 88 101 108 75 C 127 49 154 37 190 37 Z" unicode="Ø" />
<glyph horiz-adv-x="384" d="M 162 -6 C 113 -6 78 6 58 32 C 37 57 31 93 39 140 L 77 381 L 129 381 L 89 127 C 84 101 88 80 101 63 C 113 46 136 38 169 38 C 201 38 227 45 247 60 C 267 74 279 97 284 128 L 325 381 L 374 381 L 336 143 C 328 95 312 58 286 32 C 260 6 219 -6 162 -6 Z M 219 410 L 145 496 L 218 496 L 255 410 L 219 410 Z" unicode="Ù" />
<glyph horiz-adv-x="384" d="M 162 -6 C 113 -6 78 6 58 32 C 37 57 31 93 39 140 L 77 381 L 129 381 L 89 127 C 84 101 88 80 101 63 C 113 46 136 38 169 38 C 201 38 227 45 247 60 C 267 74 279 97 284 128 L 325 381 L 374 381 L 336 143 C 328 95 312 58 286 32 C 260 6 219 -6 162 -6 Z M 191 410 L 258 496 L 332 496 L 235 410 L 191 410 Z" unicode="Ú" />
<glyph horiz-adv-x="384" d="M 162 -6 C 113 -6 78 6 58 32 C 37 57 31 93 39 140 L 77 381 L 129 381 L 89 127 C 84 101 88 80 101 63 C 113 46 136 38 169 38 C 201 38 227 45 247 60 C 267 74 279 97 284 128 L 325 381 L 374 381 L 336 143 C 328 95 312 58 286 32 C 260 6 219 -6 162 -6 Z M 143 410 L 218 496 L 264 496 L 312 410 L 270 410 L 235 454 L 185 410 L 143 410 Z" unicode="Û" />
<glyph horiz-adv-x="384" d="M 162 -6 C 113 -6 78 6 58 32 C 37 57 31 93 39 140 L 77 381 L 129 381 L 89 127 C 84 101 88 80 101 63 C 113 46 136 38 169 38 C 201 38 227 45 247 60 C 267 74 279 97 284 128 L 325 381 L 374 381 L 336 143 C 328 95 312 58 286 32 C 260 6 219 -6 162 -6 Z M 253 434 L 263 490 L 321 490 L 310 434 L 253 434 Z M 155 434 L 166 490 L 223 490 L 213 434 L 155 434 Z" unicode="Ü" />
<glyph horiz-adv-x="352" d="M 123 0 L 146 143 L 44 381 L 102 381 L 179 191 L 318 381 L 374 381 L 199 147 L 175 0 L 123 0 Z M 175 410 L 242 496 L 316 496 L 219 410 L 175 410 Z" unicode="Ý" />
<glyph horiz-adv-x="352" d="M 28 0 L 88 381 L 140 381 L 131 323 L 199 323 C 249 323 284 311 305 288 C 325 265 334 235 330 197 C 325 156 307 125 276 105 C 244 85 205 75 159 75 L 91 75 L 80 0 L 28 0 Z M 97 116 L 170 116 C 196 116 220 122 241 136 C 262 149 274 169 277 196 C 280 224 274 245 260 260 C 245 274 224 282 196 282 L 125 282 L 97 116 Z" unicode="Þ" />
<glyph horiz-adv-x="352" d="M 181 -6 C 159 -6 142 -4 131 -1 C 119 2 110 6 103 12 L 127 49 C 130 46 136 43 145 39 C 154 35 167 33 183 33 C 202 33 218 39 232 51 C 246 63 254 80 258 104 C 262 132 256 157 241 178 C 225 199 193 211 145 215 L 151 245 C 187 245 213 250 230 260 C 246 270 256 285 259 307 C 260 326 255 340 243 350 C 231 359 215 364 195 364 C 169 364 149 356 135 341 C 121 326 112 307 109 284 L 64 0 L 17 0 L 63 290 C 68 324 82 351 104 372 C 126 392 159 403 203 403 C 235 403 262 395 282 380 C 302 364 310 343 307 315 C 305 293 296 275 282 261 C 267 246 248 236 225 231 C 251 223 272 209 288 188 C 304 167 310 140 306 106 C 302 70 289 43 265 23 C 241 3 213 -6 181 -6 Z" unicode="ß" />
<glyph horiz-adv-x="320" d="M 239 -6 C 224 -6 214 -2 208 6 C 202 14 200 23 202 35 C 186 21 170 11 152 4 C 134 -2 113 -6 89 -6 C 63 -6 43 2 28 19 C 13 35 7 58 11 88 C 15 120 33 145 65 164 C 97 183 149 195 223 199 L 226 218 C 228 232 225 243 217 253 C 209 262 194 267 173 267 C 151 267 131 263 112 255 C 92 247 75 238 60 228 L 43 267 C 61 279 82 288 106 295 C 129 302 153 306 178 306 C 217 306 243 297 257 281 C 271 264 275 241 271 212 L 249 63 C 246 51 246 43 250 39 C 253 34 258 32 266 32 C 269 32 273 32 278 32 C 283 32 288 33 294 35 L 289 5 C 276 -2 259 -6 239 -6 Z M 110 34 C 130 34 147 37 162 45 C 176 53 190 61 204 71 L 218 163 C 153 156 110 147 90 136 C 70 124 59 109 58 89 C 56 72 58 59 66 49 C 74 39 88 34 110 34 Z M 169 323 L 95 409 L 168 409 L 205 323 L 169 323 Z" unicode="à" />
<glyph horiz-adv-x="320" d="M 239 -6 C 224 -6 214 -2 208 6 C 202 14 200 23 202 35 C 186 21 170 11 152 4 C 134 -2 113 -6 89 -6 C 63 -6 43 2 28 19 C 13 35 7 58 11 88 C 15 120 33 145 65 164 C 97 183 149 195 223 199 L 226 218 C 228 232 225 243 217 253 C 209 262 194 267 173 267 C 151 267 131 263 112 255 C 92 247 75 238 60 228 L 43 267 C 61 279 82 288 106 295 C 129 302 153 306 178 306 C 217 306 243 297 257 281 C 271 264 275 241 271 212 L 249 63 C 246 51 246 43 250 39 C 253 34 258 32 266 32 C 269 32 273 32 278 32 C 283 32 288 33 294 35 L 289 5 C 276 -2 259 -6 239 -6 Z M 110 34 C 130 34 147 37 162 45 C 176 53 190 61 204 71 L 218 163 C 153 156 110 147 90 136 C 70 124 59 109 58 89 C 56 72 58 59 66 49 C 74 39 88 34 110 34 Z M 131 323 L 198 409 L 272 409 L 175 323 L 131 323 Z" unicode="á" />
<glyph horiz-adv-x="320" d="M 239 -6 C 224 -6 214 -2 208 6 C 202 14 200 23 202 35 C 186 21 170 11 152 4 C 134 -2 113 -6 89 -6 C 63 -6 43 2 28 19 C 13 35 7 58 11 88 C 15 120 33 145 65 164 C 97 183 149 195 223 199 L 226 218 C 228 232 225 243 217 253 C 209 262 194 267 173 267 C 151 267 131 263 112 255 C 92 247 75 238 60 228 L 43 267 C 61 279 82 288 106 295 C 129 302 153 306 178 306 C 217 306 243 297 257 281 C 271 264 275 241 271 212 L 249 63 C 246 51 246 43 250 39 C 253 34 258 32 266 32 C 269 32 273 32 278 32 C 283 32 288 33 294 35 L 289 5 C 276 -2 259 -6 239 -6 Z M 110 34 C 130 34 147 37 162 45 C 176 53 190 61 204 71 L 218 163 C 153 156 110 147 90 136 C 70 124 59 109 58 89 C 56 72 58 59 66 49 C 74 39 88 34 110 34 Z M 88 323 L 163 409 L 209 409 L 257 323 L 215 323 L 180 367 L 130 323 L 88 323 Z" unicode="â" />
<glyph horiz-adv-x="320" d="M 239 -6 C 224 -6 214 -2 208 6 C 202 14 200 23 202 35 C 186 21 170 11 152 4 C 134 -2 113 -6 89 -6 C 63 -6 43 2 28 19 C 13 35 7 58 11 88 C 15 120 33 145 65 164 C 97 183 149 195 223 199 L 226 218 C 228 232 225 243 217 253 C 209 262 194 267 173 267 C 151 267 131 263 112 255 C 92 247 75 238 60 228 L 43 267 C 61 279 82 288 106 295 C 129 302 153 306 178 306 C 217 306 243 297 257 281 C 271 264 275 241 271 212 L 249 63 C 246 51 246 43 250 39 C 253 34 258 32 266 32 C 269 32 273 32 278 32 C 283 32 288 33 294 35 L 289 5 C 276 -2 259 -6 239 -6 Z M 110 34 C 130 34 147 37 162 45 C 176 53 190 61 204 71 L 218 163 C 153 156 110 147 90 136 C 70 124 59 109 58 89 C 56 72 58 59 66 49 C 74 39 88 34 110 34 Z M 130 335 L 93 335 C 95 357 101 372 110 382 C 119 392 130 397 144 397 C 152 397 159 395 165 392 C 171 389 176 386 180 383 C 184 380 188 377 192 375 C 196 373 201 372 206 372 C 210 372 214 373 218 377 C 222 381 224 386 226 394 L 263 394 C 259 370 252 354 243 345 C 234 336 224 332 212 332 C 204 332 198 333 193 335 C 188 337 182 339 176 343 C 169 347 163 350 159 352 C 155 354 151 355 149 355 C 144 355 140 353 137 350 C 134 346 132 341 130 335 Z" unicode="ã" />
<glyph horiz-adv-x="320" d="M 239 -6 C 224 -6 214 -2 208 6 C 202 14 200 23 202 35 C 186 21 170 11 152 4 C 134 -2 113 -6 89 -6 C 63 -6 43 2 28 19 C 13 35 7 58 11 88 C 15 120 33 145 65 164 C 97 183 149 195 223 199 L 226 218 C 228 232 225 243 217 253 C 209 262 194 267 173 267 C 151 267 131 263 112 255 C 92 247 75 238 60 228 L 43 267 C 61 279 82 288 106 295 C 129 302 153 306 178 306 C 217 306 243 297 257 281 C 271 264 275 241 271 212 L 249 63 C 246 51 246 43 250 39 C 253 34 258 32 266 32 C 269 32 273 32 278 32 C 283 32 288 33 294 35 L 289 5 C 276 -2 259 -6 239 -6 Z M 110 34 C 130 34 147 37 162 45 C 176 53 190 61 204 71 L 218 163 C 153 156 110 147 90 136 C 70 124 59 109 58 89 C 56 72 58 59 66 49 C 74 39 88 34 110 34 Z M 187 347 L 197 403 L 255 403 L 244 347 L 187 347 Z M 89 347 L 100 403 L 157 403 L 147 347 L 89 347 Z" unicode="ä" />
<glyph horiz-adv-x="320" d="M 239 -6 C 224 -6 214 -2 208 6 C 202 14 200 23 202 35 C 186 21 170 11 152 4 C 134 -2 113 -6 89 -6 C 63 -6 43 2 28 19 C 13 35 7 58 11 88 C 15 120 33 145 65 164 C 97 183 149 195 223 199 L 226 218 C 228 232 225 243 217 253 C 209 262 194 267 173 267 C 151 267 131 263 112 255 C 92 247 75 238 60 228 L 43 267 C 61 279 82 288 106 295 C 129 302 153 306 178 306 C 217 306 243 297 257 281 C 271 264 275 241 271 212 L 249 63 C 246 51 246 43 250 39 C 253 34 258 32 266 32 C 269 32 273 32 278 32 C 283 32 288 33 294 35 L 289 5 C 276 -2 259 -6 239 -6 Z M 110 34 C 130 34 147 37 162 45 C 176 53 190 61 204 71 L 218 163 C 153 156 110 147 90 136 C 70 124 59 109 58 89 C 56 72 58 59 66 49 C 74 39 88 34 110 34 Z M 171 318 C 153 318 138 323 126 335 C 114 347 109 362 109 380 C 109 398 114 412 126 424 C 138 436 153 442 171 442 C 189 442 203 436 215 424 C 227 412 233 398 233 380 C 233 362 227 347 215 335 C 203 323 189 318 171 318 Z M 171 347 C 180 347 187 350 193 356 C 199 362 202 370 202 380 C 202 389 199 397 193 403 C 187 409 180 412 171 412 C 161 412 154 409 148 403 C 142 397 139 389 139 380 C 139 370 142 362 148 356 C 154 350 161 347 171 347 Z" unicode="å" />
<glyph horiz-adv-x="480" d="M 220 49 C 208 37 192 24 170 12 C 148 0 123 -6 95 -6 C 67 -6 45 2 29 19 C 13 36 8 59 13 88 C 17 117 33 141 63 161 C 92 180 145 193 221 199 C 224 207 226 214 228 221 C 230 231 226 241 218 250 C 209 259 195 264 175 264 C 151 264 130 260 113 253 C 96 245 80 236 65 226 L 54 264 C 71 276 90 286 111 294 C 132 302 155 306 180 306 C 207 306 227 301 240 293 C 253 284 261 273 264 259 C 270 268 282 278 298 289 C 314 300 335 306 359 306 C 399 306 427 291 444 261 C 461 231 466 195 460 153 C 459 148 458 143 457 139 L 254 139 C 250 106 255 80 268 60 C 280 40 302 31 333 31 C 347 31 361 33 375 38 C 389 42 405 52 422 68 L 439 43 C 423 26 405 14 387 6 C 368 -2 348 -6 328 -6 C 300 -6 277 -1 260 8 C 242 17 229 31 220 49 Z M 114 32 C 129 32 145 35 162 42 C 178 49 195 60 211 76 C 207 90 206 103 206 117 C 206 131 207 144 209 157 C 209 161 210 164 212 168 C 154 162 115 153 95 140 C 75 126 63 110 60 91 C 57 75 60 62 69 50 C 77 38 92 32 114 32 Z M 258 171 L 415 171 C 418 201 414 224 404 242 C 394 260 376 269 351 269 C 327 269 307 259 290 241 C 273 223 262 199 258 171 Z" unicode="æ" />
<glyph horiz-adv-x="320" d="M 149 -6 C 102 -6 68 8 48 38 C 27 68 19 106 25 152 C 27 172 33 192 42 211 C 50 229 61 246 75 260 C 89 274 105 285 123 293 C 141 301 162 306 184 306 C 220 306 248 297 266 281 C 284 264 296 243 302 218 L 254 203 C 251 221 243 236 230 248 C 217 260 200 267 179 267 C 148 267 124 256 106 234 C 88 212 77 185 74 153 C 70 117 75 87 87 65 C 99 43 121 32 153 32 C 174 32 192 37 207 47 C 221 57 233 70 243 87 L 284 73 C 270 47 252 28 229 14 C 205 0 179 -6 149 -6 Z M 114 -96 C 102 -96 92 -94 83 -92 C 73 -89 65 -86 58 -82 L 74 -54 C 80 -58 87 -62 94 -64 C 101 -66 109 -67 118 -67 C 127 -67 135 -65 141 -62 C 147 -58 150 -53 151 -47 C 151 -42 150 -38 147 -35 C 144 -32 139 -31 133 -31 C 127 -31 123 -31 119 -32 C 115 -33 111 -35 108 -37 L 105 -11 C 109 -9 114 -7 122 -6 C 130 -4 137 -4 145 -4 C 157 -4 167 -7 175 -15 C 183 -22 186 -32 185 -46 C 183 -63 175 -76 161 -84 C 147 -92 131 -96 114 -96 Z" unicode="ç" />
<glyph horiz-adv-x="320" d="M 151 -6 C 98 -6 62 8 44 38 C 26 67 20 105 26 152 C 29 194 45 230 74 260 C 102 290 139 306 185 306 C 230 306 262 291 281 263 C 300 234 306 197 300 153 C 299 147 298 141 296 135 L 70 135 C 66 105 71 80 85 61 C 99 42 123 33 159 33 C 175 33 192 36 209 43 C 226 49 241 59 253 71 L 280 39 C 261 22 241 10 220 4 C 198 -2 175 -6 151 -6 Z M 74 172 L 255 172 C 258 202 254 225 243 242 C 231 258 211 267 181 267 C 157 267 135 258 114 242 C 92 226 79 202 74 172 Z M 184 323 L 110 409 L 183 409 L 220 323 L 184 323 Z" unicode="è" />
<glyph horiz-adv-x="320" d="M 151 -6 C 98 -6 62 8 44 38 C 26 67 20 105 26 152 C 29 194 45 230 74 260 C 102 290 139 306 185 306 C 230 306 262 291 281 263 C 300 234 306 197 300 153 C 299 147 298 141 296 135 L 70 135 C 66 105 71 80 85 61 C 99 42 123 33 159 33 C 175 33 192 36 209 43 C 226 49 241 59 253 71 L 280 39 C 261 22 241 10 220 4 C 198 -2 175 -6 151 -6 Z M 74 172 L 255 172 C 258 202 254 225 243 242 C 231 258 211 267 181 267 C 157 267 135 258 114 242 C 92 226 79 202 74 172 Z M 131 323 L 198 409 L 272 409 L 175 323 L 131 323 Z" unicode="é" />
<glyph horiz-adv-x="320" d="M 151 -6 C 98 -6 62 8 44 38 C 26 67 20 105 26 152 C 29 194 45 230 74 260 C 102 290 139 306 185 306 C 230 306 262 291 281 263 C 300 234 306 197 300 153 C 299 147 298 141 296 135 L 70 135 C 66 105 71 80 85 61 C 99 42 123 33 159 33 C 175 33 192 36 209 43 C 226 49 241 59 253 71 L 280 39 C 261 22 241 10 220 4 C 198 -2 175 -6 151 -6 Z M 74 172 L 255 172 C 258 202 254 225 243 242 C 231 258 211 267 181 267 C 157 267 135 258 114 242 C 92 226 79 202 74 172 Z M 102 323 L 177 409 L 223 409 L 271 323 L 229 323 L 194 367 L 144 323 L 102 323 Z" unicode="ê" />
<glyph horiz-adv-x="320" d="M 151 -6 C 98 -6 62 8 44 38 C 26 67 20 105 26 152 C 29 194 45 230 74 260 C 102 290 139 306 185 306 C 230 306 262 291 281 263 C 300 234 306 197 300 153 C 299 147 298 141 296 135 L 70 135 C 66 105 71 80 85 61 C 99 42 123 33 159 33 C 175 33 192 36 209 43 C 226 49 241 59 253 71 L 280 39 C 261 22 241 10 220 4 C 198 -2 175 -6 151 -6 Z M 74 172 L 255 172 C 258 202 254 225 243 242 C 231 258 211 267 181 267 C 157 267 135 258 114 242 C 92 226 79 202 74 172 Z M 208 347 L 218 403 L 276 403 L 265 347 L 208 347 Z M 110 347 L 121 403 L 178 403 L 168 347 L 110 347 Z" unicode="ë" />
<glyph horiz-adv-x="160" d="M 26 0 L 73 294 L 120 294 L 74 0 L 26 0 Z M 99 323 L 25 409 L 98 409 L 135 323 L 99 323 Z" unicode="ì" />
<glyph horiz-adv-x="160" d="M 26 0 L 73 294 L 120 294 L 74 0 L 26 0 Z M 62 323 L 129 409 L 203 409 L 106 323 L 62 323 Z" unicode="í" />
<glyph horiz-adv-x="160" d="M 26 0 L 73 294 L 120 294 L 74 0 L 26 0 Z M 15 323 L 90 409 L 136 409 L 184 323 L 142 323 L 107 367 L 57 323 L 15 323 Z" unicode="î" />
<glyph horiz-adv-x="160" d="M 26 0 L 73 294 L 120 294 L 74 0 L 26 0 Z M 126 347 L 136 403 L 194 403 L 183 347 L 126 347 Z M 28 347 L 39 403 L 96 403 L 86 347 L 28 347 Z" unicode="ï" />
<glyph horiz-adv-x="352" d="M 254 248 C 248 276 236 303 217 327 C 198 351 178 371 156 388 L 186 417 C 232 379 265 339 284 296 C 302 252 309 205 303 155 C 299 105 282 66 252 37 C 222 8 185 -6 143 -6 C 99 -6 68 7 48 34 C 28 61 20 96 25 140 C 31 186 48 222 77 248 C 105 274 139 288 178 288 C 195 288 209 284 221 278 C 232 271 243 261 254 248 Z M 146 34 C 174 34 197 43 216 62 C 235 80 246 107 250 142 C 253 174 248 200 236 221 C 223 242 202 253 174 253 C 146 253 123 242 105 222 C 87 201 76 175 73 143 C 69 109 73 82 85 63 C 96 43 116 34 146 34 Z M 128 302 L 115 327 L 286 420 L 300 394 L 128 302 Z" unicode="ð" />
<glyph horiz-adv-x="352" d="M 17 0 L 63 294 L 103 294 L 99 243 C 116 263 136 278 158 289 C 180 300 204 306 228 306 C 258 306 279 297 293 280 C 307 262 311 239 307 211 L 274 0 L 227 0 L 258 200 C 262 224 259 241 249 251 C 239 260 224 265 206 265 C 183 265 162 258 143 244 C 123 230 107 215 95 199 L 64 0 L 17 0 Z M 156 335 L 119 335 C 121 357 127 372 136 382 C 145 392 156 397 170 397 C 178 397 185 395 191 392 C 197 389 202 386 206 383 C 210 380 214 377 218 375 C 222 373 227 372 232 372 C 236 372 240 373 244 377 C 248 381 250 386 252 394 L 289 394 C 285 370 278 354 269 345 C 260 336 250 332 238 332 C 230 332 224 333 219 335 C 214 337 208 339 202 343 C 195 347 189 350 185 352 C 181 354 177 355 175 355 C 170 355 166 353 163 350 C 160 346 158 341 156 335 Z" unicode="ñ" />
<glyph horiz-adv-x="352" d="M 145 -6 C 99 -6 66 8 46 37 C 26 65 19 103 25 150 C 31 196 49 234 79 263 C 109 291 146 306 192 306 C 237 306 270 291 291 262 C 311 233 319 194 313 146 C 307 101 290 64 261 36 C 232 8 193 -6 145 -6 Z M 152 33 C 186 33 212 42 231 62 C 249 82 261 111 266 149 C 270 186 266 215 253 236 C 239 256 217 267 185 267 C 150 267 124 256 106 235 C 88 214 77 186 73 150 C 67 110 72 80 87 61 C 101 42 123 33 152 33 Z M 200 323 L 126 409 L 199 409 L 236 323 L 200 323 Z" unicode="ò" />
<glyph horiz-adv-x="352" d="M 145 -6 C 99 -6 66 8 46 37 C 26 65 19 103 25 150 C 31 196 49 234 79 263 C 109 291 146 306 192 306 C 237 306 270 291 291 262 C 311 233 319 194 313 146 C 307 101 290 64 261 36 C 232 8 193 -6 145 -6 Z M 152 33 C 186 33 212 42 231 62 C 249 82 261 111 266 149 C 270 186 266 215 253 236 C 239 256 217 267 185 267 C 150 267 124 256 106 235 C 88 214 77 186 73 150 C 67 110 72 80 87 61 C 101 42 123 33 152 33 Z M 147 323 L 214 409 L 288 409 L 191 323 L 147 323 Z" unicode="ó" />
<glyph horiz-adv-x="352" d="M 145 -6 C 99 -6 66 8 46 37 C 26 65 19 103 25 150 C 31 196 49 234 79 263 C 109 291 146 306 192 306 C 237 306 270 291 291 262 C 311 233 319 194 313 146 C 307 101 290 64 261 36 C 232 8 193 -6 145 -6 Z M 152 33 C 186 33 212 42 231 62 C 249 82 261 111 266 149 C 270 186 266 215 253 236 C 239 256 217 267 185 267 C 150 267 124 256 106 235 C 88 214 77 186 73 150 C 67 110 72 80 87 61 C 101 42 123 33 152 33 Z M 114 323 L 189 409 L 235 409 L 283 323 L 241 323 L 206 367 L 156 323 L 114 323 Z" unicode="ô" />
<glyph horiz-adv-x="352" d="M 145 -6 C 99 -6 66 8 46 37 C 26 65 19 103 25 150 C 31 196 49 234 79 263 C 109 291 146 306 192 306 C 237 306 270 291 291 262 C 311 233 319 194 313 146 C 307 101 290 64 261 36 C 232 8 193 -6 145 -6 Z M 152 33 C 186 33 212 42 231 62 C 249 82 261 111 266 149 C 270 186 266 215 253 236 C 239 256 217 267 185 267 C 150 267 124 256 106 235 C 88 214 77 186 73 150 C 67 110 72 80 87 61 C 101 42 123 33 152 33 Z M 156 335 L 119 335 C 121 357 127 372 136 382 C 145 392 156 397 170 397 C 178 397 185 395 191 392 C 197 389 202 386 206 383 C 210 380 214 377 218 375 C 222 373 227 372 232 372 C 236 372 240 373 244 377 C 248 381 250 386 252 394 L 289 394 C 285 370 278 354 269 345 C 260 336 250 332 238 332 C 230 332 224 333 219 335 C 214 337 208 339 202 343 C 195 347 189 350 185 352 C 181 354 177 355 175 355 C 170 355 166 353 163 350 C 160 346 158 341 156 335 Z" unicode="õ" />
<glyph horiz-adv-x="352" d="M 145 -6 C 99 -6 66 8 46 37 C 26 65 19 103 25 150 C 31 196 49 234 79 263 C 109 291 146 306 192 306 C 237 306 270 291 291 262 C 311 233 319 194 313 146 C 307 101 290 64 261 36 C 232 8 193 -6 145 -6 Z M 152 33 C 186 33 212 42 231 62 C 249 82 261 111 266 149 C 270 186 266 215 253 236 C 239 256 217 267 185 267 C 150 267 124 256 106 235 C 88 214 77 186 73 150 C 67 110 72 80 87 61 C 101 42 123 33 152 33 Z M 224 347 L 234 403 L 292 403 L 281 347 L 224 347 Z M 126 347 L 137 403 L 194 403 L 184 347 L 126 347 Z" unicode="ö" />
<glyph horiz-adv-x="384" d="M 52 174 L 52 224 L 332 224 L 332 174 L 52 174 Z M 191 57 C 179 57 170 60 163 68 C 155 76 152 85 152 97 C 152 108 155 117 163 125 C 170 133 179 137 191 137 C 202 137 211 133 219 125 C 227 117 231 108 231 97 C 231 85 227 76 219 68 C 211 60 202 57 191 57 Z M 191 257 C 179 257 170 260 163 268 C 155 276 152 285 152 297 C 152 308 155 317 163 325 C 170 333 179 337 191 337 C 202 337 211 333 219 325 C 227 317 231 308 231 297 C 231 285 227 276 219 268 C 211 260 202 257 191 257 Z" unicode="÷" />
<glyph horiz-adv-x="352" d="M 289 303 L 336 303 L 52 -10 L 5 -10 L 289 303 Z M 145 -6 C 99 -6 66 8 46 37 C 26 65 19 103 25 150 C 31 196 49 234 79 263 C 109 291 146 306 192 306 C 237 306 270 291 291 262 C 311 233 319 194 313 146 C 307 101 290 64 261 36 C 232 8 193 -6 145 -6 Z M 152 33 C 186 33 212 42 231 62 C 249 82 261 111 266 149 C 270 186 266 215 253 236 C 239 256 217 267 185 267 C 150 267 124 256 106 235 C 88 214 77 186 73 150 C 67 110 72 80 87 61 C 101 42 123 33 152 33 Z" unicode="ø" />
<glyph horiz-adv-x="352" d="M 114 -6 C 81 -6 57 2 42 18 C 26 34 21 59 27 95 L 58 294 L 106 294 L 73 91 C 69 67 72 52 82 44 C 92 36 108 32 130 32 C 156 32 178 38 196 50 C 214 62 227 77 237 95 L 269 294 L 316 294 L 278 59 L 274 0 L 233 0 L 233 40 C 221 26 206 15 187 7 C 167 -1 143 -6 114 -6 Z M 180 323 L 106 409 L 179 409 L 216 323 L 180 323 Z" unicode="ù" />
<glyph horiz-adv-x="352" d="M 114 -6 C 81 -6 57 2 42 18 C 26 34 21 59 27 95 L 58 294 L 106 294 L 73 91 C 69 67 72 52 82 44 C 92 36 108 32 130 32 C 156 32 178 38 196 50 C 214 62 227 77 237 95 L 269 294 L 316 294 L 278 59 L 274 0 L 233 0 L 233 40 C 221 26 206 15 187 7 C 167 -1 143 -6 114 -6 Z M 162 323 L 229 409 L 303 409 L 206 323 L 162 323 Z" unicode="ú" />
<glyph horiz-adv-x="352" d="M 114 -6 C 81 -6 57 2 42 18 C 26 34 21 59 27 95 L 58 294 L 106 294 L 73 91 C 69 67 72 52 82 44 C 92 36 108 32 130 32 C 156 32 178 38 196 50 C 214 62 227 77 237 95 L 269 294 L 316 294 L 278 59 L 274 0 L 233 0 L 233 40 C 221 26 206 15 187 7 C 167 -1 143 -6 114 -6 Z M 109 323 L 184 409 L 230 409 L 278 323 L 236 323 L 201 367 L 151 323 L 109 323 Z" unicode="û" />
<glyph horiz-adv-x="352" d="M 114 -6 C 81 -6 57 2 42 18 C 26 34 21 59 27 95 L 58 294 L 106 294 L 73 91 C 69 67 72 52 82 44 C 92 36 108 32 130 32 C 156 32 178 38 196 50 C 214 62 227 77 237 95 L 269 294 L 316 294 L 278 59 L 274 0 L 233 0 L 233 40 C 221 26 206 15 187 7 C 167 -1 143 -6 114 -6 Z M 216 347 L 226 403 L 284 403 L 273 347 L 216 347 Z M 118 347 L 129 403 L 186 403 L 176 347 L 118 347 Z" unicode="ü" />
<glyph horiz-adv-x="320" d="M 16 -106 C -2 -106 -15 -104 -23 -102 L -17 -64 C -7 -66 4 -67 16 -67 C 24 -67 32 -66 40 -65 C 48 -63 55 -60 62 -56 C 69 -51 76 -44 83 -35 C 89 -26 96 -14 103 1 L 20 294 L 71 294 L 137 53 L 267 294 L 317 294 L 147 -4 C 137 -24 128 -41 118 -55 C 108 -68 98 -78 87 -86 C 76 -93 65 -98 53 -101 C 41 -104 28 -106 16 -106 Z M 136 323 L 203 409 L 277 409 L 180 323 L 136 323 Z" unicode="ý" />
<glyph horiz-adv-x="352" d="M 1 -103 L 81 409 L 129 409 L 102 247 C 112 263 127 276 149 288 C 170 300 193 306 218 306 C 253 306 280 292 298 266 C 316 240 322 202 314 153 C 304 101 286 61 259 34 C 232 7 200 -6 163 -6 C 139 -6 119 -2 104 6 C 89 14 78 23 70 35 L 48 -103 L 1 -103 Z M 155 30 C 183 30 206 39 224 58 C 242 77 255 108 263 152 C 269 192 267 221 256 239 C 244 257 226 266 200 266 C 178 266 157 258 137 244 C 117 229 103 214 96 198 L 76 78 C 80 68 88 58 101 47 C 113 35 131 30 155 30 Z" unicode="þ" />
<glyph horiz-adv-x="320" d="M 16 -106 C -2 -106 -15 -104 -23 -102 L -17 -64 C -7 -66 4 -67 16 -67 C 24 -67 32 -66 40 -65 C 48 -63 55 -60 62 -56 C 69 -51 76 -44 83 -35 C 89 -26 96 -14 103 1 L 20 294 L 71 294 L 137 53 L 267 294 L 317 294 L 147 -4 C 137 -24 128 -41 118 -55 C 108 -68 98 -78 87 -86 C 76 -93 65 -98 53 -101 C 41 -104 28 -106 16 -106 Z M 195 347 L 205 403 L 263 403 L 252 347 L 195 347 Z M 97 347 L 108 403 L 165 403 L 155 347 L 97 347 Z" unicode="ÿ" />
<glyph horiz-adv-x="352" d="M 44 0 L 85 257 L 23 257 L 28 294 L 91 294 L 94 312 C 97 338 109 360 129 380 C 149 400 174 410 206 410 C 221 410 235 408 248 406 C 261 403 271 400 279 397 L 264 355 C 257 358 248 361 238 364 C 228 366 218 368 209 368 C 187 368 171 363 161 353 C 151 343 144 329 141 313 L 138 294 L 322 294 L 275 0 L 227 0 L 268 257 L 132 257 L 91 0 L 44 0 Z" unicode="ﬁ" />
<glyph horiz-adv-x="352" d="M 227 0 L 293 409 L 341 409 L 275 0 L 227 0 Z M 91 294 L 94 312 C 97 338 109 361 129 381 C 149 400 176 410 208 410 C 223 410 237 408 249 405 C 261 402 271 399 279 396 L 263 354 C 257 357 249 360 239 363 C 229 366 220 368 211 368 C 188 368 171 362 160 350 C 149 338 142 324 140 306 L 138 294 L 221 294 L 215 257 L 132 257 L 91 0 L 44 0 L 85 257 L 23 257 L 28 294 L 91 294 Z" unicode="ﬂ" />
<glyph horiz-adv-x="224" d="M 108 97 C 84 97 65 104 50 120 C 35 135 28 154 28 177 C 28 199 35 218 50 234 C 65 249 84 257 108 257 C 130 257 149 249 164 234 C 179 218 187 199 187 177 C 187 154 179 135 164 120 C 149 104 130 97 108 97 Z" unicode="•" />
<glyph horiz-adv-x="256" d="M 152 333 C 130 333 114 339 104 353 C 94 366 89 385 91 409 L 125 409 C 124 396 127 386 133 379 C 139 372 147 369 158 369 C 168 369 177 372 185 378 C 193 384 199 395 204 409 L 238 409 C 231 385 220 366 206 353 C 191 339 173 333 152 333 Z" unicode="˘" />
<glyph horiz-adv-x="256" d="M 122 332 L 132 392 L 189 392 L 180 332 L 122 332 Z" unicode="˙" />
<glyph horiz-adv-x="256" d="M 157 318 C 139 318 124 323 112 335 C 100 347 95 362 95 380 C 95 398 100 412 112 424 C 124 436 139 442 157 442 C 175 442 189 436 201 424 C 213 412 219 398 219 380 C 219 362 213 347 201 335 C 189 323 175 318 157 318 Z M 157 347 C 166 347 173 350 179 356 C 185 362 188 370 188 380 C 188 389 185 397 179 403 C 173 409 166 412 157 412 C 147 412 140 409 134 403 C 128 397 125 389 125 380 C 125 370 128 362 134 356 C 140 350 147 347 157 347 Z" unicode="˚" />
<glyph horiz-adv-x="704" d="M 80 0 L 369 381 L 409 381 L 119 0 L 80 0 Z M 137 387 C 165 387 187 377 202 358 C 217 338 223 310 219 273 C 215 237 204 208 185 188 C 165 167 142 157 114 157 C 86 157 64 166 48 186 C 32 205 27 233 31 271 C 35 307 46 335 66 356 C 85 376 109 387 137 387 Z M 115 190 C 129 190 142 196 154 210 C 165 223 172 244 175 272 C 177 300 175 320 168 332 C 161 344 149 351 133 351 C 116 351 103 344 93 330 C 83 316 76 296 74 272 C 71 244 73 223 81 210 C 89 196 100 190 115 190 Z M 384 224 C 412 224 434 214 449 195 C 464 175 470 147 466 110 C 462 74 451 45 432 25 C 412 4 389 -6 361 -6 C 332 -6 310 3 295 23 C 279 42 274 70 278 108 C 282 144 293 172 313 193 C 332 213 356 224 384 224 Z M 363 27 C 378 27 391 33 403 47 C 414 60 421 81 424 110 C 426 138 424 158 417 170 C 409 182 397 189 381 189 C 363 189 350 182 340 168 C 330 154 323 135 321 110 C 318 81 320 60 328 47 C 336 33 347 27 363 27 Z M 606 224 C 634 224 656 214 671 195 C 686 175 692 147 688 110 C 684 74 673 45 654 25 C 634 4 611 -6 583 -6 C 554 -6 532 3 517 23 C 501 42 496 70 500 108 C 504 144 515 172 535 193 C 554 213 578 224 606 224 Z M 585 27 C 600 27 613 33 625 47 C 636 60 643 81 646 110 C 648 138 646 158 639 170 C 631 182 619 189 603 189 C 585 189 572 182 562 168 C 552 154 545 135 543 110 C 540 81 542 60 550 47 C 558 33 569 27 585 27 Z" unicode="‰" />
<glyph horiz-adv-x="480" d="M 237 183 L 237 381 L 280 381 L 346 234 L 412 381 L 456 381 L 456 183 L 417 183 L 417 303 L 364 183 L 328 183 L 275 303 L 275 183 L 237 183 Z M 110 183 L 110 346 L 44 346 L 44 381 L 215 381 L 215 346 L 149 346 L 149 183 L 110 183 Z" unicode="™" />
<glyph horiz-adv-x="256" d="M 165 -77 C 154 -83 143 -88 133 -92 C 123 -95 112 -97 102 -97 C 86 -97 73 -92 64 -84 C 55 -76 51 -64 52 -49 C 52 -39 56 -29 64 -21 C 71 -12 81 -5 94 0 L 133 0 C 116 -8 104 -16 97 -24 C 90 -32 87 -39 87 -46 C 86 -52 88 -57 92 -61 C 96 -65 103 -67 112 -67 C 119 -67 126 -66 132 -64 C 138 -62 146 -58 155 -54 L 165 -77 Z" unicode="˛" />
<glyph horiz-adv-x="416" d="M 227 341 C 191 341 161 328 138 303 C 114 277 100 241 96 193 C 92 155 95 125 105 101 C 115 77 132 57 156 41 L 149 0 L -9 0 L -2 49 L 98 49 C 80 64 67 85 57 112 C 47 139 45 170 49 205 C 54 253 73 295 106 332 C 138 368 179 387 228 387 C 278 387 316 369 342 333 C 367 297 376 251 368 196 C 362 159 350 128 332 104 C 314 79 294 61 270 49 L 371 49 L 363 0 L 205 0 L 212 46 C 243 60 267 79 285 104 C 303 129 314 159 319 193 C 325 237 319 273 302 300 C 285 327 260 341 227 341 Z" unicode="Ω" />
<glyph horiz-adv-x="256" d="M 108 335 L 71 335 C 73 357 79 372 88 382 C 97 392 108 397 122 397 C 130 397 137 395 143 392 C 149 389 154 386 158 383 C 162 380 166 377 170 375 C 174 373 179 372 184 372 C 188 372 192 373 196 377 C 200 381 202 386 204 394 L 241 394 C 237 370 230 354 221 345 C 212 336 202 332 190 332 C 182 332 176 333 171 335 C 166 337 160 339 154 343 C 147 347 141 350 137 352 C 133 354 129 355 127 355 C 122 355 118 353 115 350 C 112 346 110 341 108 335 Z" unicode="˜" />
<glyph horiz-adv-x="192" d="M 112 157 L 120 212 L 6 212 L 12 248 L 150 402 L 194 402 L 170 251 L 200 251 L 194 212 L 164 212 L 155 157 L 112 157 Z M 56 249 L 126 249 L 142 345 L 56 249 Z" unicode="⁴" />
<glyph horiz-adv-x="256" d="M 144 321 L 210 409 L 274 409 L 180 321 L 144 321 Z M 53 321 L 119 409 L 183 409 L 90 321 L 53 321 Z" unicode="˝" />
<glyph horiz-adv-x="160" d="M 26 0 L 73 294 L 120 294 L 74 0 L 26 0 Z" unicode="ı" />
<glyph horiz-adv-x="288" d="M 28 0 L 88 381 L 140 381 L 86 43 L 282 43 L 275 0 L 28 0 Z M 22 180 L 195 232 L 187 186 L 14 134 L 22 180 Z" unicode="Ł" />
<glyph horiz-adv-x="160" d="M 26 0 L 91 409 L 139 409 L 74 0 L 26 0 Z M 17 200 L 150 235 L 144 196 L 11 160 L 17 200 Z" unicode="ł" />
<glyph horiz-adv-x="256" d="M 66 323 L 141 409 L 187 409 L 235 323 L 193 323 L 158 367 L 108 323 L 66 323 Z" unicode="ˆ" />
<glyph horiz-adv-x="544" d="M 178 0 C 152 0 129 4 110 14 C 91 24 76 37 64 54 C 52 70 43 90 39 113 C 34 136 33 161 37 189 C 45 253 68 301 107 333 C 146 365 197 381 260 381 L 544 381 L 537 338 L 357 338 L 338 219 L 482 219 L 475 176 L 331 176 L 310 43 L 498 43 L 491 0 L 178 0 Z M 186 43 L 260 43 L 306 338 L 243 338 C 197 338 160 324 134 298 C 108 272 92 235 87 189 C 84 168 84 149 87 131 C 89 113 95 98 103 85 C 111 72 121 62 135 54 C 149 46 166 43 186 43 Z" unicode="Œ" />
<glyph horiz-adv-x="544" d="M 149 29 C 177 29 200 40 218 63 C 236 86 247 114 253 148 C 259 183 256 212 246 234 C 235 256 215 267 185 267 C 153 267 127 256 108 234 C 88 212 77 184 73 149 C 68 114 71 85 83 63 C 95 40 117 29 149 29 Z M 263 57 C 246 34 227 18 207 8 C 186 -1 164 -6 140 -6 C 99 -6 68 8 48 38 C 27 67 19 104 25 150 C 29 196 46 234 76 263 C 106 291 141 306 181 306 C 206 306 228 300 246 290 C 264 280 278 264 288 243 C 300 263 316 278 336 289 C 355 300 378 306 406 306 C 448 306 479 291 499 263 C 519 234 525 197 519 151 C 517 145 516 139 515 135 L 297 135 C 293 105 297 80 309 61 C 320 42 341 33 373 33 C 397 33 417 36 432 43 C 446 49 461 59 475 72 L 499 44 C 483 28 465 15 445 7 C 424 -1 400 -6 373 -6 C 340 -6 315 0 298 11 C 280 22 269 37 263 57 Z M 303 172 L 472 172 C 475 201 471 224 460 241 C 448 258 429 267 401 267 C 373 267 351 258 335 241 C 319 223 308 200 303 172 Z" unicode="œ" />
<glyph horiz-adv-x="192" d="M 133 47 L 30 127 L 39 186 L 168 267 L 158 206 L 77 157 L 143 107 L 133 47 Z" unicode="‹" />
<glyph horiz-adv-x="192" d="M 17 46 L 27 107 L 109 157 L 42 206 L 52 267 L 155 186 L 146 127 L 17 46 Z" unicode="›" />
<glyph horiz-adv-x="352" d="M 158 -6 C 117 -6 84 -1 59 7 C 33 16 14 27 2 41 L 34 80 C 44 70 59 61 81 52 C 103 42 130 38 162 38 C 219 38 250 56 256 94 C 258 112 254 127 242 140 C 230 152 204 163 166 173 C 125 182 96 195 78 213 C 60 231 52 255 56 286 C 60 317 75 342 101 360 C 127 378 162 387 205 387 C 239 387 266 381 288 371 C 309 361 325 350 336 340 L 301 303 C 289 312 274 321 255 330 C 235 338 213 343 187 343 C 166 343 147 338 131 329 C 115 320 106 307 105 291 C 103 272 108 257 122 247 C 135 236 160 226 196 216 C 235 204 264 190 283 172 C 302 154 310 129 306 96 C 302 62 287 36 260 19 C 233 2 199 -6 158 -6 Z M 310 496 L 235 410 L 189 410 L 141 496 L 183 496 L 218 452 L 268 496 L 310 496 Z" unicode="Š" />
<glyph horiz-adv-x="288" d="M 120 -6 C 90 -6 65 -1 45 8 C 25 17 9 27 -2 39 L 27 72 C 36 61 49 52 67 44 C 85 36 105 33 128 33 C 149 33 166 36 180 44 C 194 51 201 62 203 78 C 204 90 200 101 191 111 C 182 121 164 128 138 134 C 106 140 81 150 63 166 C 45 182 37 203 41 231 C 44 254 55 272 75 286 C 94 299 122 306 158 306 C 182 306 203 302 223 295 C 242 288 258 280 271 270 L 241 235 C 215 256 187 267 155 267 C 131 267 115 263 105 257 C 95 251 89 242 88 232 C 86 220 90 210 98 200 C 106 190 125 182 155 176 C 187 169 211 158 227 144 C 243 129 251 107 249 79 C 246 49 233 28 209 14 C 185 0 156 -6 120 -6 Z M 265 409 L 190 323 L 144 323 L 96 409 L 138 409 L 173 365 L 223 409 L 265 409 Z" unicode="š" />
<glyph horiz-adv-x="288" d="M -2 -98 L 14 -65 C 18 -66 22 -67 26 -68 C 30 -69 35 -70 41 -70 C 49 -70 55 -67 60 -61 C 65 -55 69 -44 72 -28 L 129 306 C 133 332 143 352 159 366 C 174 379 194 386 220 386 C 235 386 248 384 260 380 C 272 376 281 373 288 369 L 272 326 C 264 330 256 335 247 339 C 237 343 227 345 217 345 C 201 345 190 340 182 330 C 174 320 170 309 168 297 L 112 -56 C 108 -74 100 -87 87 -95 C 74 -103 60 -108 44 -108 C 34 -108 24 -107 16 -105 C 8 -103 2 -100 -2 -98 Z" unicode="∫" />
<glyph horiz-adv-x="256" d="M 249 409 L 174 323 L 128 323 L 80 409 L 122 409 L 157 365 L 207 409 L 249 409 Z" unicode="ˇ" />
<glyph horiz-adv-x="352" d="M 123 0 L 146 143 L 44 381 L 102 381 L 179 191 L 318 381 L 374 381 L 199 147 L 175 0 L 123 0 Z M 234 434 L 244 490 L 302 490 L 291 434 L 234 434 Z M 136 434 L 147 490 L 204 490 L 194 434 L 136 434 Z" unicode="Ÿ" />
<glyph horiz-adv-x="448" d="M 44 -3 C 32 -3 22 1 14 10 C 6 18 2 28 2 40 C 2 51 6 61 14 69 C 22 77 32 82 44 82 C 55 82 65 77 73 69 C 81 61 86 51 86 40 C 86 28 81 18 73 10 C 65 1 55 -3 44 -3 Z M 197 -3 C 185 -3 175 1 167 10 C 159 18 155 28 155 40 C 155 51 159 61 167 69 C 175 77 185 82 197 82 C 208 82 218 77 226 69 C 234 61 239 51 239 40 C 239 28 234 18 226 10 C 218 1 208 -3 197 -3 Z M 349 -3 C 337 -3 327 1 319 10 C 311 18 307 28 307 40 C 307 51 311 61 319 69 C 327 77 337 82 349 82 C 360 82 370 77 378 69 C 386 61 391 51 391 40 C 391 28 386 18 378 10 C 370 1 360 -3 349 -3 Z" unicode="…" />
<glyph horiz-adv-x="352" d="M 8 0 L 14 39 L 279 338 L 74 338 L 80 381 L 355 381 L 350 350 L 77 43 L 302 43 L 295 0 L 8 0 Z M 310 496 L 235 410 L 189 410 L 141 496 L 183 496 L 218 452 L 268 496 L 310 496 Z" unicode="Ž" />
<glyph horiz-adv-x="288" d="M -10 0 L -6 27 L 207 257 L 40 257 L 47 294 L 281 294 L 277 268 L 61 37 L 241 37 L 234 0 L -10 0 Z M 265 409 L 190 323 L 144 323 L 96 409 L 138 409 L 173 365 L 223 409 L 265 409 Z" unicode="ž" />
<glyph horiz-adv-x="384" d="M 53 59 L 53 110 L 282 198 L 53 285 L 53 336 L 338 218 L 338 177 L 53 59 Z M 53 10 L 53 54 L 337 54 L 337 10 L 53 10 Z" unicode="≥" />
<glyph horiz-adv-x="288" d="M 47 174 L 58 214 L 242 214 L 231 174 L 47 174 Z M -28 -99 L -10 -60 C -6 -62 -3 -63 1 -65 C 5 -66 10 -67 18 -67 C 25 -67 32 -64 38 -58 C 44 -52 49 -41 53 -25 L 139 310 C 146 336 159 355 177 367 C 195 379 215 386 237 386 C 250 386 263 384 275 381 C 287 377 297 373 305 369 L 286 327 C 278 332 271 336 263 340 C 255 343 245 345 234 345 C 218 345 206 340 198 332 C 190 323 184 311 181 297 L 99 -42 C 93 -65 83 -82 68 -92 C 53 -102 35 -108 14 -108 C 4 -108 -3 -107 -10 -105 C -16 -103 -22 -101 -28 -99 Z" unicode="ƒ" />
<glyph horiz-adv-x="384" d="M -13 0 L 192 384 L 250 384 L 332 0 L -13 0 Z M 62 37 L 265 37 L 206 314 L 62 37 Z" unicode="Δ" />
<glyph horiz-adv-x="96" d="M -126 0 L 178 381 L 223 381 L -81 0 L -126 0 Z" unicode="⁄" />
<glyph horiz-adv-x="416" d="M 227 341 C 191 341 161 328 138 303 C 114 277 100 241 96 193 C 92 155 95 125 105 101 C 115 77 132 57 156 41 L 149 0 L -9 0 L -2 49 L 98 49 C 80 64 67 85 57 112 C 47 139 45 170 49 205 C 54 253 73 295 106 332 C 138 368 179 387 228 387 C 278 387 316 369 342 333 C 367 297 376 251 368 196 C 362 159 350 128 332 104 C 314 79 294 61 270 49 L 371 49 L 363 0 L 205 0 L 212 46 C 243 60 267 79 285 104 C 303 129 314 159 319 193 C 325 237 319 273 302 300 C 285 327 260 341 227 341 Z" unicode="Ω" />
<glyph horiz-adv-x="256" d="M 65 341 L 72 381 L 231 381 L 225 341 L 65 341 Z" unicode="ˉ" />
<glyph horiz-adv-x="384" d="M 59 107 C 57 114 57 121 57 127 C 57 143 62 158 72 170 C 82 182 97 188 119 188 C 135 188 150 185 162 180 C 174 175 186 170 197 165 C 207 160 218 156 228 153 C 238 149 247 148 255 148 C 267 148 276 150 282 156 C 287 162 290 169 290 177 C 290 179 289 182 289 186 L 325 186 C 326 178 327 172 327 166 C 327 149 322 135 312 123 C 302 111 286 105 265 105 C 248 105 233 107 221 112 C 209 117 197 122 187 127 C 176 132 166 136 156 140 C 146 143 137 145 129 145 C 116 145 107 142 102 136 C 96 130 94 124 94 116 C 94 113 94 110 95 107 L 59 107 Z M 59 217 C 57 224 57 231 57 237 C 57 253 62 268 72 280 C 82 292 97 298 119 298 C 135 298 150 295 162 290 C 174 285 186 280 197 275 C 207 270 218 266 228 263 C 238 259 247 258 255 258 C 267 258 276 260 282 266 C 287 272 290 279 290 287 C 290 289 289 292 289 296 L 325 296 C 326 288 327 282 327 276 C 327 259 322 245 312 233 C 302 221 286 215 265 215 C 248 215 233 217 221 222 C 209 227 197 232 187 237 C 176 242 166 246 156 250 C 146 253 137 255 129 255 C 116 255 107 252 102 246 C 96 240 94 234 94 226 C 94 223 94 220 95 217 L 59 217 Z" unicode="≈" />
<glyph horiz-adv-x="352" d="M 34 -96 C 26 -96 20 -93 15 -87 C 10 -81 9 -72 11 -60 C 16 -30 22 -5 28 16 C 34 38 39 55 41 67 C 43 79 45 89 46 95 L 77 294 L 125 294 L 92 91 C 88 67 92 50 104 41 C 116 32 132 28 154 29 C 174 30 193 37 209 50 C 225 62 238 77 248 95 L 280 294 L 327 294 L 290 60 L 285 0 L 244 0 L 243 45 C 229 27 213 13 195 4 C 176 -5 157 -10 137 -10 C 124 -10 111 -8 98 -4 C 85 0 76 5 70 15 C 68 0 67 -13 68 -25 C 68 -37 68 -47 67 -57 C 65 -70 61 -80 56 -86 C 50 -92 43 -96 34 -96 Z" unicode="μ" />
<glyph horiz-adv-x="352" d="M 44 0 L 85 257 L 15 257 L 21 294 L 354 294 L 348 257 L 269 257 L 243 90 C 239 67 240 52 246 45 C 251 38 262 35 278 35 C 286 35 292 35 296 35 C 299 35 303 36 309 38 L 302 5 C 296 2 289 0 281 -1 C 273 -3 263 -4 251 -4 C 222 -4 204 2 197 16 C 190 29 189 50 194 79 L 222 257 L 131 257 L 91 0 L 44 0 Z" unicode="π" />
<glyph horiz-adv-x="384" d="M 137 47 L 93 47 L 249 339 L 292 339 L 137 47 Z M 52 245 L 52 291 L 332 291 L 332 245 L 52 245 Z M 52 101 L 52 148 L 332 148 L 332 101 L 52 101 Z" unicode="≠" />
<glyph horiz-adv-x="288" d="M 118 -12 L 17 189 L 118 390 L 164 390 L 265 189 L 164 -12 L 118 -12 Z M 140 39 L 216 192 L 143 339 L 66 185 L 140 39 Z" unicode="◊" />
<glyph horiz-adv-x="384" d="M 337 59 L 52 177 L 52 218 L 337 336 L 337 285 L 109 198 L 337 110 L 337 59 Z M 53 10 L 53 54 L 337 54 L 337 10 L 53 10 Z" unicode="≤" />
<glyph horiz-adv-x="352" d="M 112 -103 L 127 74 L 162 213 L 30 200 L 38 253 L 166 241 L 181 409 L 236 409 L 196 241 L 328 253 L 320 200 L 192 213 L 183 74 L 141 -103 L 112 -103 Z" unicode="†" />
</font>
</defs>
</svg>
