<?xml version="1.0" standalone="yes"?><svg version="1.1" xmlns = 'http://www.w3.org/2000/svg'><defs><font id='web' horiz-adv-x="1000">
<font-face font-family="web" descent="-106" cap-height="381" units-per-em="512" bbox="-132,-108,783,496" x-height="294" ascent="410" />
<missing-glyph horiz-adv-x="256" d="" /><glyph horiz-adv-x="320" d="M 113 -4 C 78 -4 51 4 33 22 C 15 40 6 64 8 94 C 11 142 26 180 54 210 C 82 239 116 254 157 254 C 171 254 183 252 193 248 C 203 244 212 239 220 233 C 221 246 222 257 223 267 C 223 283 220 296 214 307 C 207 317 195 323 179 324 C 163 324 148 320 134 314 C 120 308 107 299 94 289 L 76 350 C 92 361 110 370 129 377 C 148 383 172 387 200 387 C 238 387 267 374 285 348 C 303 322 312 289 310 251 C 306 182 285 122 248 72 C 211 21 166 -4 113 -4 Z M 126 62 C 143 62 158 70 171 88 C 184 106 195 132 205 168 C 201 173 196 178 190 182 C 184 186 176 189 167 189 C 146 189 129 179 115 161 C 101 142 93 122 92 101 C 91 87 94 77 100 71 C 106 65 114 62 126 62 Z" unicode="∂" />
<glyph horiz-adv-x="384" d="M -26 0 L 173 384 L 267 384 L 341 0 L -26 0 Z M 93 74 L 228 74 L 197 271 L 93 74 Z" unicode="∆" />
<glyph horiz-adv-x="352" d="M 270 203 L 32 203 L 38 244 L 277 244 L 270 203 Z M 316 56 C 301 34 284 17 266 7 C 248 -3 221 -9 185 -9 C 133 -9 96 7 76 39 C 55 71 50 122 62 191 C 71 254 91 302 121 336 C 151 370 190 387 238 387 C 273 387 299 379 317 364 C 335 349 346 329 350 304 L 270 271 C 269 279 265 287 259 295 C 253 303 242 308 226 308 C 204 308 188 299 178 281 C 168 263 159 231 152 186 C 145 142 144 110 149 92 C 154 74 170 65 196 65 C 212 65 224 67 234 71 C 243 75 250 82 256 92 L 316 56 Z M 258 129 L 21 129 L 27 170 L 265 170 L 258 129 Z" unicode="€" />
<glyph horiz-adv-x="416" d="M 27 0 L 76 307 L 18 307 L 30 381 L 428 381 L 416 307 L 354 307 L 305 0 L 204 0 L 253 309 L 177 309 L 128 0 L 27 0 Z" unicode="∏" />
<glyph horiz-adv-x="320" d="M -15 0 L -5 63 L 126 196 L 35 315 L 50 381 L 312 381 L 301 312 L 140 312 L 222 204 L 98 75 L 273 75 L 261 0 L -15 0 Z" unicode="∑" />
<glyph horiz-adv-x="384" d="M 50 156 L 50 239 L 334 239 L 334 156 L 50 156 Z" unicode="−" />
<glyph horiz-adv-x="256" d="M -6 118 L 6 203 L 262 203 L 249 118 L -6 118 Z" unicode="–" />
<glyph horiz-adv-x="512" d="M 49 118 L 62 203 L 462 203 L 449 118 L 49 118 Z" unicode="—" />
<glyph horiz-adv-x="96" d="M -132 0 L 169 381 L 228 381 L -71 0 L -132 0 Z" unicode="∕" />
<glyph horiz-adv-x="160" d="M 89 215 C 73 215 61 220 53 230 C 45 240 42 255 46 276 C 49 296 58 316 73 336 C 88 356 101 371 113 381 L 156 381 C 142 363 130 347 120 332 C 110 317 105 309 106 308 C 122 308 133 303 141 295 C 149 287 152 276 150 263 C 148 250 141 239 131 229 C 121 219 107 215 89 215 Z" unicode="‘" />
<glyph horiz-adv-x="160" d="M 107 387 C 122 387 134 382 142 373 C 150 364 153 350 150 332 C 147 312 138 291 123 269 C 107 246 94 230 83 221 L 40 221 C 54 238 66 254 76 269 C 86 284 90 293 89 295 C 73 295 62 299 54 307 C 46 315 44 326 46 339 C 48 352 54 363 66 373 C 78 382 91 387 107 387 Z" unicode="’" />
<glyph horiz-adv-x="160" d="M 15 -65 C 29 -47 41 -31 51 -16 C 61 -1 65 7 64 9 C 48 9 37 13 29 21 C 21 29 19 40 21 53 C 23 66 29 77 41 87 C 53 96 66 101 82 101 C 97 101 109 96 119 87 C 128 78 131 64 128 45 C 125 26 115 5 99 -17 C 83 -39 69 -55 58 -65 L 15 -65 Z" unicode="‚" />
<glyph horiz-adv-x="288" d="M 84 215 C 68 215 56 219 47 229 C 37 238 34 252 37 272 C 40 290 49 311 65 333 C 80 355 93 371 105 381 L 148 381 C 134 363 122 347 112 332 C 102 317 97 309 98 308 C 114 308 125 303 133 295 C 141 287 144 276 142 263 C 140 250 133 239 123 229 C 112 219 99 215 84 215 Z M 213 215 C 197 215 185 219 176 228 C 166 237 163 251 167 271 C 169 289 178 310 194 333 C 209 355 222 371 234 381 L 277 381 C 263 363 251 347 241 332 C 231 317 226 309 228 307 C 243 307 254 302 262 294 C 270 286 273 275 271 263 C 269 249 262 238 252 229 C 241 219 228 215 213 215 Z" unicode="“" />
<glyph horiz-adv-x="288" d="M 236 387 C 251 387 263 382 271 373 C 279 363 282 350 280 333 C 276 312 267 291 252 269 C 236 247 223 231 212 221 L 169 221 C 183 238 195 254 205 269 C 215 284 219 292 219 294 C 203 294 191 298 183 306 C 175 314 173 325 175 339 C 177 351 183 362 195 372 C 207 382 220 387 236 387 Z M 107 387 C 122 387 134 382 142 373 C 150 364 153 351 151 333 C 147 313 138 291 123 269 C 107 246 94 230 83 221 L 40 221 C 54 238 66 254 76 269 C 86 284 90 293 89 295 C 73 295 62 299 54 307 C 46 315 44 326 46 339 C 48 352 54 363 66 373 C 78 382 91 387 107 387 Z" unicode="”" />
<glyph horiz-adv-x="288" d="M 12 -65 C 26 -47 38 -31 48 -16 C 58 -1 62 7 61 9 C 45 9 34 13 26 21 C 18 29 16 40 18 53 C 20 66 26 77 38 87 C 50 96 63 101 79 101 C 94 101 106 95 114 85 C 122 74 124 60 122 42 C 118 22 109 1 94 -19 C 79 -40 66 -55 55 -65 L 12 -65 Z M 141 -65 C 155 -47 167 -31 177 -16 C 187 -1 191 6 191 8 C 175 8 163 12 155 20 C 147 28 144 38 146 48 C 148 64 155 76 167 86 C 179 96 192 101 208 101 C 223 101 235 95 243 84 C 251 73 253 59 251 42 C 247 21 238 0 223 -19 C 208 -39 195 -55 184 -65 L 141 -65 Z" unicode="„" />
<glyph horiz-adv-x="160" d="" unicode=" " />
<glyph horiz-adv-x="192" d="M 64 149 L 85 393 L 203 393 L 129 149 L 64 149 Z M 85 -8 C 68 -8 54 -2 43 10 C 31 22 26 36 26 52 C 26 67 31 81 43 93 C 54 105 68 112 85 112 C 102 112 116 105 127 93 C 138 81 144 67 144 52 C 144 36 138 22 127 10 C 116 -2 102 -8 85 -8 Z" unicode="!" />
<glyph horiz-adv-x="288" d="M 175 224 L 182 384 L 289 384 L 247 224 L 175 224 Z M 49 224 L 57 384 L 162 384 L 120 224 L 49 224 Z" unicode="&#x22;" />
<glyph horiz-adv-x="416" d="M 22 139 L 370 139 L 365 76 L 17 76 L 22 139 Z M 59 288 L 407 288 L 403 225 L 55 225 L 59 288 Z M 168 381 L 222 381 L 102 -17 L 48 -17 L 168 381 Z M 322 381 L 375 381 L 256 -17 L 203 -17 L 322 381 Z" unicode="#" />
<glyph horiz-adv-x="320" d="M 87 -63 L 97 3 C 73 5 52 11 32 21 C 12 30 -3 42 -13 56 L 40 111 C 53 96 66 86 79 80 C 91 74 105 71 119 70 L 133 156 C 95 171 67 188 51 206 C 35 224 29 247 33 275 C 37 304 52 327 77 345 C 101 362 128 372 156 376 L 162 409 L 227 409 L 222 377 C 240 375 258 371 276 364 C 293 357 308 348 322 337 L 266 275 C 258 283 248 290 236 297 C 224 303 212 308 200 311 L 187 230 C 221 215 248 199 268 182 C 288 164 295 141 291 112 C 285 78 269 52 244 35 C 218 17 191 7 162 4 L 152 -63 L 87 -63 Z M 146 242 L 157 311 C 150 309 143 306 136 300 C 129 294 125 287 124 279 C 122 269 124 261 129 255 C 133 249 139 244 146 242 Z M 162 71 C 171 73 178 77 184 83 C 189 88 192 95 194 105 C 195 113 194 121 190 127 C 186 133 180 137 173 141 L 162 71 Z" unicode="$" />
<glyph horiz-adv-x="544" d="M 96 0 L 386 381 L 442 381 L 152 0 L 96 0 Z M 143 387 C 174 387 199 376 218 356 C 237 336 245 306 241 268 C 237 232 223 203 200 181 C 177 159 150 148 119 148 C 87 148 61 159 42 182 C 23 204 16 233 20 267 C 24 303 38 332 61 354 C 84 376 111 387 143 387 Z M 125 211 C 132 211 138 214 143 220 C 147 226 151 242 153 266 C 155 291 155 307 152 313 C 149 319 144 322 136 322 C 128 322 122 318 118 311 C 114 304 110 290 108 268 C 104 241 105 225 109 219 C 113 213 118 211 125 211 Z M 422 233 C 454 233 479 223 498 203 C 517 183 524 153 520 114 C 516 77 503 48 480 26 C 456 4 429 -6 397 -6 C 365 -6 339 4 321 25 C 303 45 296 75 300 113 C 304 149 317 178 341 200 C 364 222 391 233 422 233 Z M 403 57 C 410 57 416 60 422 66 C 427 72 431 87 434 112 C 436 138 435 154 432 160 C 429 165 424 168 416 168 C 408 168 401 164 397 158 C 392 151 388 136 385 114 C 383 86 384 70 388 65 C 392 59 397 57 403 57 Z" unicode="%" />
<glyph horiz-adv-x="416" d="M 381 -3 C 373 -5 364 -6 356 -6 C 325 -6 296 3 268 21 C 240 39 211 69 181 109 C 150 149 129 183 117 211 C 105 239 101 265 107 291 C 112 319 127 342 151 360 C 175 378 208 387 248 387 C 285 387 312 377 329 359 C 345 340 351 318 347 294 C 341 267 325 244 299 226 C 272 208 237 190 193 173 C 165 163 144 153 132 144 C 119 134 112 123 111 111 C 108 97 111 86 120 79 C 128 71 139 68 153 68 C 185 68 217 79 249 102 C 280 125 308 164 332 218 L 405 191 C 380 126 345 77 299 44 C 253 10 197 -6 132 -6 C 85 -6 52 3 32 23 C 12 43 3 67 5 95 C 5 123 15 147 35 166 C 54 184 93 205 151 227 C 183 239 208 249 225 259 C 242 268 252 279 255 291 C 257 301 256 309 252 315 C 248 321 242 324 233 324 C 223 324 215 321 209 316 C 203 311 199 304 197 294 C 193 278 197 260 207 241 C 217 222 235 196 259 162 C 284 128 310 103 337 88 C 363 73 389 65 414 64 L 381 -3 Z" unicode="&#x26;" />
<glyph horiz-adv-x="160" d="M 43 213 L 53 384 L 169 384 L 125 213 L 43 213 Z" unicode="'" />
<glyph horiz-adv-x="224" d="M 121 162 C 114 120 117 81 129 46 C 141 10 158 -17 180 -39 L 123 -89 C 87 -67 57 -35 33 8 C 9 52 2 103 12 162 C 20 216 45 266 85 312 C 125 358 164 391 202 413 L 248 358 C 217 335 190 308 167 276 C 143 244 128 206 121 162 Z" unicode="(" />
<glyph horiz-adv-x="224" d="M 97 161 C 104 206 101 245 89 279 C 76 312 59 340 38 362 L 96 413 C 130 392 159 360 184 317 C 208 273 216 222 206 162 C 197 106 173 55 134 9 C 94 -36 55 -69 16 -90 L -28 -38 C 2 -14 29 14 52 48 C 75 81 90 119 97 161 Z" unicode=")" />
<glyph horiz-adv-x="288" d="M 146 112 L 129 211 L 36 173 L 23 195 L 99 260 L 23 324 L 36 347 L 129 310 L 146 407 L 168 407 L 185 310 L 280 347 L 290 324 L 215 260 L 290 195 L 280 173 L 185 211 L 168 112 L 146 112 Z" unicode="*" />
<glyph horiz-adv-x="384" d="M 160 48 L 160 161 L 46 161 L 46 234 L 160 234 L 160 347 L 235 347 L 235 234 L 348 234 L 348 161 L 235 161 L 235 48 L 160 48 Z" unicode="+" />
<glyph horiz-adv-x="160" d="M -3 -74 C 5 -64 14 -51 26 -36 C 38 -21 46 -9 52 -1 C 35 4 23 11 15 21 C 7 31 4 44 4 61 C 4 76 10 89 23 101 C 35 113 50 119 68 119 C 86 119 101 112 113 99 C 124 86 130 71 130 53 C 130 35 123 14 111 -8 C 98 -31 80 -53 58 -74 L -3 -74 Z" unicode="," />
<glyph horiz-adv-x="224" d="M 10 123 L 24 215 L 210 215 L 196 123 L 10 123 Z" unicode="-" />
<glyph horiz-adv-x="160" d="M 62 -6 C 42 -6 26 0 14 13 C 2 25 -3 41 -3 60 C -3 77 3 92 16 105 C 28 117 44 124 62 124 C 80 124 95 117 107 105 C 119 92 126 77 126 60 C 126 42 119 27 107 14 C 94 0 79 -6 62 -6 Z" unicode="." />
<glyph horiz-adv-x="256" d="M -52 -45 L 244 397 L 305 397 L 9 -45 L -52 -45 Z" unicode="/" />
<glyph horiz-adv-x="352" d="M 22 191 C 29 251 49 298 81 334 C 113 369 153 387 202 387 C 251 387 286 369 308 335 C 330 301 337 253 330 191 C 321 127 300 78 267 44 C 233 10 193 -6 147 -6 C 103 -6 69 10 45 44 C 21 78 13 127 22 191 Z M 131 190 C 123 140 121 106 125 90 C 129 73 140 65 159 65 C 175 65 187 73 196 91 C 204 109 212 142 220 190 C 226 242 227 275 223 291 C 219 306 209 314 193 314 C 174 314 161 306 153 291 C 145 275 137 242 131 190 Z" unicode="0" />
<glyph horiz-adv-x="288" d="M -2 0 L 9 71 L 86 71 L 121 291 L 43 281 L 52 340 L 161 386 L 229 381 L 179 71 L 254 71 L 243 0 L -2 0 Z" unicode="1" />
<glyph horiz-adv-x="320" d="M -7 0 L 2 65 L 117 153 C 144 173 165 192 180 210 C 194 227 203 246 206 267 C 207 279 205 288 199 294 C 193 300 185 304 175 304 C 161 304 147 300 133 293 C 119 285 105 274 90 259 L 45 322 C 61 338 83 352 110 366 C 136 380 167 387 201 387 C 238 387 266 377 286 359 C 306 341 313 316 309 286 C 305 257 295 231 281 209 C 267 187 243 162 210 136 L 132 77 L 284 77 L 272 0 L -7 0 Z" unicode="2" />
<glyph horiz-adv-x="320" d="M 111 -6 C 84 -6 59 -1 35 6 C 11 14 -8 25 -23 39 L 38 106 C 49 93 62 84 76 79 C 90 73 105 71 122 71 C 140 71 154 74 165 81 C 176 87 183 99 186 116 C 188 131 183 142 172 150 C 161 157 144 161 120 161 L 89 161 L 101 236 L 129 236 C 147 236 163 239 176 245 C 188 251 196 261 198 275 C 200 286 197 294 189 300 C 181 306 170 309 157 309 C 140 309 124 306 109 300 C 94 294 79 286 65 276 L 32 341 C 46 352 67 362 95 372 C 122 382 152 387 184 387 C 230 387 262 378 281 360 C 299 342 307 319 303 291 C 298 265 287 244 269 228 C 251 212 229 203 203 201 C 227 198 248 189 265 173 C 282 157 288 134 284 106 C 278 73 261 46 232 25 C 202 4 162 -6 111 -6 Z" unicode="3" />
<glyph horiz-adv-x="320" d="M 146 0 L 158 76 L -10 76 L 2 148 L 201 382 L 302 382 L 264 144 L 304 144 L 293 76 L 253 76 L 241 0 L 146 0 Z M 89 144 L 169 144 L 190 266 L 89 144 Z" unicode="4" />
<glyph horiz-adv-x="320" d="M 127 -6 C 89 -6 59 -1 35 7 C 11 16 -7 30 -23 49 L 39 113 C 49 99 61 88 75 82 C 89 75 105 72 124 72 C 144 72 161 76 173 85 C 185 93 193 106 196 123 C 198 138 194 151 185 161 C 175 171 163 176 148 176 C 131 176 117 173 105 167 C 93 161 83 155 75 148 L 16 181 L 70 381 L 313 381 L 294 303 L 134 303 L 111 226 C 124 234 137 240 151 244 C 164 247 179 249 195 249 C 231 249 257 236 275 212 C 293 188 299 157 293 121 C 287 81 269 50 239 28 C 209 5 171 -6 127 -6 Z" unicode="5" />
<glyph horiz-adv-x="320" d="M 139 -6 C 89 -6 54 10 34 43 C 13 76 7 122 17 182 C 27 247 50 297 85 333 C 120 369 163 387 213 387 C 239 387 259 383 274 377 C 288 371 301 364 312 356 L 266 288 C 257 296 247 303 237 307 C 227 311 215 313 201 313 C 181 313 164 304 150 286 C 136 268 126 242 120 208 C 129 219 141 228 156 234 C 171 240 189 243 209 243 C 239 243 264 231 282 208 C 300 184 306 153 300 114 C 293 74 275 44 247 24 C 218 4 182 -6 139 -6 Z M 149 67 C 163 67 174 71 182 79 C 190 87 196 99 199 117 C 201 133 199 146 191 155 C 183 164 173 169 161 169 C 149 169 138 166 128 162 C 118 157 113 153 111 150 C 107 122 108 101 114 87 C 120 73 132 67 149 67 Z" unicode="6" />
<glyph horiz-adv-x="288" d="M 40 0 C 57 73 81 136 113 190 C 144 243 172 281 196 303 L 20 303 L 33 381 L 315 381 L 306 328 C 265 286 230 239 201 187 C 171 135 150 72 138 0 L 40 0 Z" unicode="7" />
<glyph horiz-adv-x="320" d="M 125 -6 C 80 -6 46 3 22 22 C -2 41 -11 66 -7 98 C -3 120 6 139 24 155 C 41 171 64 184 94 194 C 70 205 53 218 45 234 C 37 250 34 268 38 290 C 42 318 59 341 88 359 C 116 377 151 387 191 387 C 231 387 262 378 285 361 C 307 344 316 321 312 293 C 308 272 299 255 285 241 C 271 227 254 216 234 209 C 258 198 275 184 286 168 C 297 152 301 130 297 103 C 291 70 273 44 242 24 C 211 4 172 -6 125 -6 Z M 185 241 C 195 249 203 256 208 262 C 213 268 216 277 218 287 C 219 297 216 305 210 312 C 203 318 192 322 177 322 C 163 322 152 319 144 315 C 135 311 130 304 129 296 C 127 287 129 279 134 272 C 139 265 156 255 185 241 Z M 139 55 C 153 55 167 59 179 67 C 191 75 199 88 202 104 C 204 116 199 126 189 136 C 179 145 161 156 136 170 C 126 163 117 154 109 143 C 101 131 96 119 94 105 C 91 88 94 75 103 67 C 111 59 123 55 139 55 Z" unicode="8" />
<glyph horiz-adv-x="320" d="M 111 -6 C 85 -6 63 -3 46 2 C 29 8 16 14 7 21 L 55 91 C 59 86 68 81 82 76 C 95 70 108 68 121 68 C 145 68 163 75 176 90 C 188 105 198 135 205 180 C 193 164 179 154 163 148 C 147 142 131 139 115 139 C 81 139 55 149 37 171 C 19 192 12 222 18 260 C 23 298 41 328 71 352 C 101 375 138 387 182 387 C 230 387 265 370 288 337 C 310 304 317 258 309 199 C 299 133 277 82 242 47 C 206 11 163 -6 111 -6 Z M 159 207 C 167 207 176 208 186 212 C 195 216 203 220 209 224 C 213 248 211 269 203 287 C 195 305 183 314 167 314 C 152 314 141 309 133 300 C 125 290 119 278 117 263 C 115 245 118 232 126 222 C 134 212 145 207 159 207 Z" unicode="9" />
<glyph horiz-adv-x="192" d="M 74 -6 C 58 -6 44 0 32 12 C 19 24 13 38 13 56 C 13 70 18 84 30 97 C 42 110 56 117 74 117 C 92 117 106 111 118 99 C 130 87 136 72 136 56 C 136 40 130 25 118 13 C 106 0 91 -6 74 -6 Z M 116 172 C 100 172 86 177 74 189 C 61 200 55 214 55 232 C 55 247 60 261 72 274 C 84 287 98 294 116 294 C 134 294 149 288 161 276 C 172 264 178 249 178 232 C 178 216 172 202 160 190 C 148 178 133 172 116 172 Z" unicode=":" />
<glyph horiz-adv-x="192" d="M 116 172 C 100 172 86 177 74 189 C 61 200 55 214 55 232 C 55 247 60 261 72 274 C 84 287 98 294 116 294 C 134 294 148 288 160 276 C 172 264 178 249 178 232 C 178 216 172 202 160 190 C 148 178 133 172 116 172 Z M 5 -74 C 13 -64 22 -51 34 -36 C 46 -21 54 -9 60 -1 C 43 4 31 11 23 21 C 15 31 12 44 12 61 C 12 76 18 89 31 101 C 43 113 58 119 76 119 C 94 119 109 112 121 99 C 132 86 138 71 138 53 C 138 35 131 14 119 -8 C 106 -31 88 -53 66 -74 L 5 -74 Z" unicode=";" />
<glyph horiz-adv-x="384" d="M 322 45 L 38 165 L 48 230 L 370 350 L 357 266 L 142 198 L 335 129 L 322 45 Z" unicode="&#x3C;" />
<glyph horiz-adv-x="384" d="M 47 233 L 58 305 L 361 305 L 350 233 L 47 233 Z M 24 90 L 36 162 L 339 162 L 327 90 L 24 90 Z" unicode="=" />
<glyph horiz-adv-x="384" d="M 17 45 L 30 129 L 249 198 L 52 266 L 65 350 L 350 230 L 340 165 L 17 45 Z" unicode="&#x3E;" />
<glyph horiz-adv-x="320" d="M 88 139 C 91 163 101 182 117 197 C 133 212 149 224 167 233 C 182 241 193 249 201 256 C 209 262 213 270 214 280 C 216 289 214 296 208 301 C 202 306 192 309 177 309 C 161 309 146 304 132 295 C 118 286 106 276 97 265 L 39 315 C 55 334 77 351 104 365 C 130 379 161 387 195 387 C 235 387 266 377 288 359 C 310 340 318 316 313 286 C 309 262 300 243 287 227 C 274 211 254 197 226 185 C 216 181 206 175 195 168 C 183 161 176 151 174 139 L 88 139 Z M 123 -8 C 106 -8 92 -2 81 10 C 69 22 64 36 64 52 C 64 67 69 81 81 93 C 92 105 106 112 123 112 C 140 112 154 105 165 93 C 176 81 182 67 182 52 C 182 36 176 22 165 10 C 154 -2 140 -8 123 -8 Z" unicode="?" />
<glyph horiz-adv-x="512" d="M 235 -75 C 167 -75 112 -55 70 -16 C 28 23 10 81 14 159 C 17 227 44 284 95 330 C 145 376 206 399 276 399 C 344 399 399 380 440 342 C 480 304 499 257 496 199 C 493 143 477 101 448 73 C 419 45 384 31 342 31 C 322 31 308 34 298 40 C 288 46 282 56 280 69 C 268 59 256 50 244 43 C 231 35 214 32 192 32 C 170 32 151 37 137 48 C 122 58 115 75 117 98 C 119 130 135 155 167 174 C 198 192 244 206 306 214 C 308 224 310 231 310 233 C 310 243 307 250 300 255 C 293 260 282 263 268 263 C 254 263 239 260 224 254 C 209 248 193 240 177 229 L 165 271 C 179 281 196 290 217 298 C 237 306 259 310 281 310 C 319 310 344 301 358 284 C 372 266 375 244 369 216 L 344 99 C 342 87 343 78 348 74 C 352 70 357 68 363 68 C 387 68 409 79 427 102 C 445 124 455 157 457 199 C 459 249 444 288 412 318 C 379 347 332 362 270 362 C 214 362 165 343 123 306 C 81 268 58 219 55 159 C 51 93 67 44 101 11 C 135 -22 181 -39 241 -39 C 277 -39 306 -35 328 -29 C 350 -23 368 -14 382 -4 L 402 -34 C 378 -49 353 -60 328 -66 C 302 -72 271 -75 235 -75 Z M 221 80 C 235 80 247 82 258 87 C 269 91 278 97 285 103 L 300 181 C 264 178 237 170 218 156 C 199 142 189 127 188 112 C 188 100 191 91 197 87 C 203 82 211 80 221 80 Z" unicode="@" />
<glyph horiz-adv-x="384" d="M -44 0 L 162 384 L 273 384 L 352 0 L 244 0 L 231 61 L 87 61 L 56 0 L -44 0 Z M 123 135 L 220 135 L 193 279 L 123 135 Z" unicode="A" />
<glyph horiz-adv-x="384" d="M 12 0 L 73 381 L 249 381 C 291 381 321 372 339 355 C 357 337 363 313 359 283 C 355 258 345 240 330 228 C 314 216 295 207 273 203 C 297 198 317 187 331 170 C 345 153 350 130 346 101 C 340 69 323 44 295 26 C 267 8 232 0 190 0 L 12 0 Z M 148 230 L 197 230 C 211 230 224 233 234 239 C 244 245 250 256 253 272 C 255 286 252 295 245 301 C 238 307 227 310 211 310 L 161 310 L 148 230 Z M 123 71 L 183 71 C 201 71 215 74 225 81 C 235 88 242 100 245 118 C 247 133 244 144 234 152 C 224 159 211 163 195 163 L 137 163 L 123 71 Z" unicode="B" />
<glyph horiz-adv-x="384" d="M 185 -6 C 131 -6 88 10 58 43 C 27 76 16 125 24 191 C 30 251 52 299 91 334 C 129 369 175 387 228 387 C 277 387 313 375 337 352 C 360 328 374 303 379 275 L 289 244 C 285 260 278 275 268 288 C 257 301 241 308 221 308 C 198 308 179 299 163 282 C 147 265 136 234 132 189 C 127 147 130 116 141 97 C 152 77 170 68 196 68 C 219 68 238 74 252 87 C 266 99 277 114 283 132 L 356 96 C 346 70 327 46 300 25 C 273 4 235 -6 185 -6 Z" unicode="C" />
<glyph horiz-adv-x="416" d="M 12 0 L 73 381 L 235 381 C 285 381 324 364 354 331 C 383 297 393 251 384 191 C 374 130 348 83 308 50 C 268 16 219 0 161 0 L 12 0 Z M 124 75 L 179 75 C 201 75 221 83 239 100 C 257 117 269 147 277 191 C 283 230 279 259 266 278 C 253 296 233 306 207 306 L 161 306 L 124 75 Z" unicode="D" />
<glyph horiz-adv-x="320" d="M 12 0 L 73 381 L 338 381 L 326 306 L 163 306 L 151 229 L 279 229 L 267 154 L 139 154 L 126 75 L 297 75 L 285 0 L 12 0 Z" unicode="E" />
<glyph horiz-adv-x="320" d="M 12 0 L 73 381 L 340 381 L 328 306 L 163 306 L 151 229 L 290 229 L 278 154 L 139 154 L 114 0 L 12 0 Z" unicode="F" />
<glyph horiz-adv-x="384" d="M 176 -6 C 121 -5 80 12 54 48 C 28 83 19 131 27 191 C 34 253 56 302 92 336 C 128 370 173 387 229 387 C 279 387 316 373 341 347 C 365 321 379 295 381 269 L 294 238 C 292 255 285 271 274 286 C 263 301 246 309 223 309 C 199 309 179 298 165 278 C 150 257 140 226 135 184 C 129 142 132 112 144 94 C 156 76 173 68 197 68 C 218 68 235 71 248 77 C 261 83 271 89 278 95 L 283 133 L 199 133 L 207 203 L 378 203 L 352 0 L 299 0 L 285 38 C 273 25 258 14 240 6 C 222 -1 200 -6 176 -6 Z" unicode="G" />
<glyph horiz-adv-x="416" d="M 12 0 L 73 381 L 175 381 L 152 238 L 277 238 L 300 381 L 403 381 L 342 0 L 239 0 L 264 158 L 139 158 L 114 0 L 12 0 Z" unicode="H" />
<glyph horiz-adv-x="192" d="M 13 0 L 75 381 L 179 381 L 117 0 L 13 0 Z" unicode="I" />
<glyph horiz-adv-x="256" d="M -10 0 L 3 84 C 9 82 16 81 25 81 C 34 80 44 80 55 80 C 67 80 77 83 85 89 C 93 95 98 107 101 123 L 142 381 L 245 381 L 202 111 C 196 73 181 44 159 24 C 137 4 107 -6 71 -6 C 50 -6 33 -5 19 -4 C 5 -2 -4 -1 -10 0 Z" unicode="J" />
<glyph horiz-adv-x="352" d="M 12 0 L 73 381 L 175 381 L 153 240 L 292 381 L 409 381 L 246 219 L 354 0 L 237 0 L 159 161 L 136 136 L 114 0 L 12 0 Z" unicode="K" />
<glyph horiz-adv-x="288" d="M 12 0 L 73 381 L 175 381 L 126 75 L 287 75 L 275 0 L 12 0 Z" unicode="L" />
<glyph horiz-adv-x="544" d="M 12 0 L 75 381 L 185 381 L 250 94 L 415 381 L 531 381 L 470 0 L 370 0 L 406 224 L 278 0 L 184 0 L 136 224 L 98 0 L 12 0 Z" unicode="M" />
<glyph horiz-adv-x="416" d="M 12 0 L 73 381 L 181 381 L 283 175 L 316 381 L 403 381 L 342 0 L 259 0 L 137 240 L 98 0 L 12 0 Z" unicode="N" />
<glyph horiz-adv-x="416" d="M 184 -6 C 126 -6 82 11 54 47 C 26 83 16 129 24 187 C 31 249 53 298 91 334 C 128 369 175 387 232 387 C 286 387 328 369 358 333 C 388 297 399 248 392 186 C 384 129 361 83 323 47 C 285 11 238 -6 184 -6 Z M 193 70 C 214 70 234 79 253 97 C 271 115 283 145 288 185 C 293 228 289 259 276 279 C 262 299 244 309 222 309 C 197 309 176 299 160 280 C 143 261 132 230 128 188 C 123 148 127 118 140 99 C 152 79 170 70 193 70 Z" unicode="O" />
<glyph horiz-adv-x="384" d="M 12 0 L 73 381 L 239 381 C 289 381 325 370 349 348 C 372 326 380 291 373 243 C 366 199 348 166 318 144 C 288 121 247 110 197 110 L 132 110 L 114 0 L 12 0 Z M 144 185 L 197 185 C 217 185 233 189 245 199 C 257 208 264 224 268 246 C 272 268 269 284 260 293 C 251 301 236 306 216 306 L 163 306 L 144 185 Z" unicode="P" />
<glyph horiz-adv-x="416" d="M 231 1 C 229 0 228 -1 227 -3 C 225 -5 225 -7 225 -10 C 223 -16 225 -21 229 -26 C 233 -31 241 -34 253 -34 C 259 -34 266 -33 274 -32 C 282 -30 288 -29 294 -28 L 281 -89 C 273 -91 264 -92 253 -94 C 241 -96 230 -97 218 -97 C 191 -97 170 -89 156 -74 C 142 -59 138 -34 144 1 L 231 1 Z M 184 -6 C 126 -6 82 11 54 47 C 26 83 16 129 24 187 C 31 249 53 298 91 334 C 128 369 175 387 232 387 C 286 387 328 369 358 333 C 388 297 399 248 392 186 C 384 129 361 83 323 47 C 285 11 238 -6 184 -6 Z M 193 70 C 214 70 234 79 253 97 C 271 115 283 145 288 185 C 293 228 289 259 276 279 C 262 299 244 309 222 309 C 197 309 176 299 160 280 C 143 261 132 230 128 188 C 123 148 127 118 140 99 C 152 79 170 70 193 70 Z" unicode="Q" />
<glyph horiz-adv-x="384" d="M 12 0 L 73 381 L 242 381 C 292 381 328 371 350 351 C 372 331 380 303 375 267 C 369 235 358 210 340 192 C 322 174 303 163 282 157 L 349 0 L 241 0 L 187 140 L 137 140 L 114 0 L 12 0 Z M 149 215 L 205 215 C 223 215 237 219 248 227 C 259 235 266 247 269 261 C 271 275 267 286 258 294 C 249 302 236 306 218 306 L 163 306 L 149 215 Z" unicode="R" />
<glyph horiz-adv-x="352" d="M 128 -6 C 91 -6 60 0 35 10 C 10 20 -7 33 -19 49 L 43 115 C 55 101 69 90 87 82 C 105 74 124 70 145 70 C 165 70 180 73 190 79 C 200 85 206 93 209 104 C 211 118 206 129 193 135 C 179 141 159 147 132 155 C 91 165 64 183 51 207 C 37 231 34 257 41 287 C 47 319 65 343 95 361 C 125 378 162 387 207 387 C 245 387 274 383 294 375 C 314 367 331 356 343 343 L 281 273 C 273 281 260 289 243 297 C 226 305 210 309 194 310 C 179 310 167 307 158 303 C 148 299 143 291 141 279 C 138 267 142 259 153 253 C 163 247 183 240 211 234 C 247 224 275 210 295 191 C 315 171 321 143 313 105 C 304 67 284 39 253 21 C 221 3 180 -6 128 -6 Z" unicode="S" />
<glyph horiz-adv-x="352" d="M 93 0 L 142 306 L 30 306 L 42 381 L 370 381 L 358 306 L 245 306 L 196 0 L 93 0 Z" unicode="T" />
<glyph horiz-adv-x="384" d="M 161 -6 C 109 -6 71 6 48 32 C 25 57 17 93 25 139 L 63 381 L 165 381 L 129 152 C 125 126 126 107 134 93 C 142 79 157 72 181 72 C 203 72 221 78 234 92 C 247 106 256 126 260 153 L 296 381 L 385 381 L 347 142 C 339 96 319 59 286 33 C 253 7 211 -6 161 -6 Z" unicode="U" />
<glyph horiz-adv-x="384" d="M 112 0 L 21 381 L 130 381 L 189 113 L 315 381 L 411 381 L 219 0 L 112 0 Z" unicode="V" />
<glyph horiz-adv-x="544" d="M 77 0 L 32 381 L 134 381 L 150 141 L 255 381 L 361 381 L 389 141 L 491 381 L 580 381 L 413 0 L 316 0 L 284 256 L 174 0 L 77 0 Z" unicode="W" />
<glyph horiz-adv-x="352" d="M 201 161 L 193 161 L 60 0 L -39 0 L 148 225 L 156 225 L 282 381 L 382 381 L 201 161 Z M 336 0 L 216 0 L 31 381 L 152 381 L 336 0 Z" unicode="X" />
<glyph horiz-adv-x="352" d="M 96 0 L 119 143 L 11 381 L 124 381 L 192 229 L 307 381 L 408 381 L 223 148 L 199 0 L 96 0 Z" unicode="Y" />
<glyph horiz-adv-x="352" d="M -14 0 L -5 56 L 217 306 L 47 306 L 59 381 L 368 381 L 359 325 L 132 75 L 319 75 L 307 0 L -14 0 Z" unicode="Z" />
<glyph horiz-adv-x="224" d="M -12 -72 L 60 381 L 229 381 L 218 313 L 138 313 L 88 -4 L 168 -4 L 157 -72 L -12 -72 Z" unicode="[" />
<glyph horiz-adv-x="256" d="M 185 -45 L 17 397 L 73 397 L 245 -45 L 185 -45 Z" unicode="\" />
<glyph horiz-adv-x="224" d="M -18 -72 L -7 -4 L 73 -4 L 123 313 L 43 313 L 54 381 L 223 381 L 151 -72 L -18 -72 Z" unicode="]" />
<glyph horiz-adv-x="288" d="M 31 250 L 137 381 L 216 381 L 280 250 L 205 250 L 166 312 L 105 250 L 31 250 Z" unicode="^" />
<glyph horiz-adv-x="320" d="M -38 -103 L -29 -36 L 291 -36 L 281 -103 L -38 -103 Z" unicode="_" />
<glyph horiz-adv-x="256" d="M 129 320 L 58 409 L 171 409 L 207 320 L 129 320 Z" unicode="`" />
<glyph horiz-adv-x="320" d="M 227 -6 C 207 -6 193 -2 185 4 C 177 10 172 20 170 34 C 158 22 145 13 130 5 C 115 -2 95 -6 69 -6 C 41 -6 20 2 6 19 C -8 35 -13 58 -9 87 C -3 119 17 144 53 164 C 89 184 134 195 188 198 L 189 206 C 190 215 187 222 181 228 C 175 233 164 236 148 236 C 131 236 114 232 98 225 C 82 218 68 210 56 202 L 29 262 C 47 274 67 284 91 293 C 114 301 142 306 174 306 C 212 306 241 297 260 280 C 279 263 286 240 282 212 L 261 78 C 259 71 259 66 261 64 C 263 61 266 60 271 60 C 277 60 282 60 288 62 L 280 8 C 275 4 268 1 259 -1 C 249 -4 239 -6 227 -6 Z M 113 60 C 125 60 136 62 146 67 C 156 71 164 77 170 85 L 180 145 C 146 141 121 135 107 126 C 93 117 85 106 83 94 C 81 82 82 74 88 68 C 93 62 101 60 113 60 Z" unicode="a" />
<glyph horiz-adv-x="352" d="M 177 -6 C 162 -6 147 -3 131 2 C 115 7 103 15 94 25 L 80 0 L 1 0 L 65 409 L 165 409 L 147 295 L 139 264 C 147 274 160 284 177 293 C 193 301 213 306 237 306 C 269 306 294 293 313 268 C 332 243 337 204 329 151 C 321 101 304 62 276 35 C 248 7 215 -6 177 -6 Z M 159 60 C 173 60 187 67 200 81 C 213 95 222 117 227 147 C 231 178 230 200 222 212 C 214 224 202 231 186 231 C 174 231 164 228 155 223 C 145 217 138 212 133 206 L 113 80 C 115 75 120 70 126 66 C 132 62 143 60 159 60 Z" unicode="b" />
<glyph horiz-adv-x="320" d="M 145 -6 C 95 -6 58 8 34 36 C 10 64 2 101 8 149 C 14 197 32 235 64 263 C 96 291 133 306 177 306 C 215 306 244 298 264 283 C 284 268 298 247 304 220 L 214 190 C 212 204 207 214 201 222 C 195 229 185 233 173 233 C 155 233 141 226 131 212 C 121 197 114 177 112 151 C 108 123 109 101 117 87 C 124 73 137 66 155 66 C 167 66 177 68 186 74 C 195 80 204 89 212 103 L 286 78 C 270 49 251 28 228 14 C 205 0 177 -6 145 -6 Z" unicode="c" />
<glyph horiz-adv-x="352" d="M 95 -6 C 62 -6 38 7 22 35 C 6 62 2 101 10 151 C 18 200 36 238 64 265 C 92 292 123 306 157 306 C 174 306 189 303 202 297 C 214 291 225 284 234 276 L 255 409 L 355 409 L 291 0 L 197 0 L 198 38 C 183 23 168 12 152 5 C 136 -2 117 -6 95 -6 Z M 151 65 C 163 65 173 66 181 70 C 189 73 197 77 205 83 L 226 215 C 223 219 218 224 212 228 C 205 232 195 235 182 235 C 166 235 151 227 139 213 C 126 198 117 177 113 151 C 108 120 109 98 116 85 C 122 71 134 65 151 65 Z" unicode="d" />
<glyph horiz-adv-x="320" d="M 144 -6 C 94 -6 56 7 32 36 C 7 64 -2 102 2 150 C 8 195 26 232 56 262 C 86 291 126 306 174 306 C 221 306 256 292 279 264 C 302 236 311 198 305 152 C 303 140 302 131 300 124 L 95 124 C 93 110 98 97 109 85 C 120 73 138 67 162 67 C 182 67 200 70 215 75 C 229 79 241 86 251 94 L 290 41 C 272 25 252 14 228 6 C 204 -2 176 -6 144 -6 Z M 101 182 L 212 182 C 214 196 211 209 203 221 C 195 233 183 239 166 239 C 148 239 134 233 122 221 C 110 209 103 196 101 182 Z" unicode="e" />
<glyph horiz-adv-x="224" d="M 14 0 L 49 220 L 4 220 L 16 294 L 61 294 L 65 318 C 69 350 84 374 109 388 C 133 402 161 410 192 410 C 211 410 226 408 238 405 C 250 402 257 400 261 398 L 236 337 C 229 339 222 341 215 343 C 208 345 201 346 194 346 C 186 346 179 343 174 339 C 169 335 166 328 165 319 L 161 294 L 222 294 L 210 220 L 149 220 L 114 0 L 14 0 Z" unicode="f" />
<glyph horiz-adv-x="352" d="M 120 -106 C 82 -106 52 -103 29 -97 C 5 -91 -10 -85 -20 -79 L 15 -11 C 25 -18 39 -24 56 -29 C 73 -33 94 -36 120 -36 C 142 -36 160 -30 174 -20 C 188 -9 197 7 201 30 L 204 52 C 198 44 188 35 172 27 C 156 18 136 14 112 14 C 74 14 46 26 28 51 C 10 76 4 110 11 153 C 19 201 37 239 65 266 C 93 292 125 306 159 306 C 181 306 199 302 213 295 C 227 288 236 281 241 273 L 256 294 L 338 294 L 296 31 C 288 -13 269 -47 239 -71 C 208 -94 168 -106 120 -106 Z M 155 80 C 167 80 178 81 187 85 C 195 89 202 93 208 98 L 226 215 C 223 219 218 224 211 228 C 203 232 194 235 182 235 C 166 235 151 227 139 213 C 126 198 118 178 114 153 C 110 130 112 112 120 99 C 127 86 139 80 155 80 Z" unicode="g" />
<glyph horiz-adv-x="352" d="M 1 0 L 66 409 L 165 409 L 142 262 C 150 272 164 282 182 292 C 200 301 222 306 249 306 C 275 306 295 298 309 283 C 322 268 326 246 322 217 L 287 0 L 188 0 L 218 188 C 220 200 218 210 214 216 C 209 222 201 225 191 225 C 179 225 167 221 156 215 C 144 209 137 203 133 198 L 101 0 L 1 0 Z" unicode="h" />
<glyph horiz-adv-x="160" d="M 48 326 L 61 409 L 171 409 L 158 326 L 48 326 Z M 1 0 L 48 294 L 148 294 L 101 0 L 1 0 Z" unicode="i" />
<glyph horiz-adv-x="160" d="M 48 326 L 61 409 L 171 409 L 158 326 L 48 326 Z M -25 -106 C -43 -106 -60 -104 -77 -102 L -67 -36 C -56 -37 -47 -38 -39 -38 C -27 -38 -18 -35 -12 -30 C -6 -24 -1 -13 2 4 L 48 294 L 148 294 L 100 -8 C 94 -40 80 -64 58 -81 C 36 -97 8 -106 -25 -106 Z" unicode="j" />
<glyph horiz-adv-x="320" d="M 1 0 L 66 409 L 165 409 L 132 200 L 237 294 L 348 294 L 211 175 L 316 0 L 199 0 L 133 113 L 117 99 L 101 0 L 1 0 Z" unicode="k" />
<glyph horiz-adv-x="160" d="M 1 0 L 66 409 L 166 409 L 101 0 L 1 0 Z" unicode="l" />
<glyph horiz-adv-x="544" d="M 1 0 L 48 294 L 142 294 L 140 260 C 150 271 165 281 186 291 C 206 301 227 306 249 306 C 269 306 286 301 299 291 C 311 281 320 271 324 259 C 337 271 352 282 370 292 C 387 301 406 306 428 306 C 456 306 478 296 495 277 C 512 257 518 231 513 198 L 481 0 L 381 0 L 409 175 C 411 191 410 203 405 211 C 399 219 390 223 377 223 C 368 223 358 220 347 216 C 336 211 328 206 323 202 L 319 176 L 291 0 L 192 0 L 220 175 C 222 191 221 204 216 212 C 210 220 201 224 188 224 C 176 224 166 221 156 216 C 146 211 138 206 133 202 L 101 0 L 1 0 Z" unicode="m" />
<glyph horiz-adv-x="352" d="M 1 0 L 48 294 L 142 294 L 140 262 C 151 273 166 283 185 292 C 203 301 224 306 246 306 C 274 306 295 298 309 283 C 322 268 326 246 322 217 L 287 0 L 188 0 L 218 188 C 220 200 218 210 214 216 C 209 222 201 225 191 225 C 179 225 167 221 156 215 C 144 209 137 203 133 198 L 101 0 L 1 0 Z" unicode="n" />
<glyph horiz-adv-x="352" d="M 147 -6 C 101 -6 64 8 38 36 C 12 64 1 101 7 149 C 13 197 34 235 68 263 C 102 291 141 306 187 306 C 233 306 269 292 297 265 C 324 238 334 200 328 150 C 322 104 301 66 265 37 C 229 8 190 -6 147 -6 Z M 151 60 C 173 60 190 68 202 84 C 213 100 221 121 225 149 C 229 178 229 200 223 216 C 217 232 204 240 182 240 C 160 240 143 231 133 215 C 122 199 115 179 112 157 C 107 130 107 107 111 88 C 115 69 128 60 151 60 Z" unicode="o" />
<glyph horiz-adv-x="352" d="M -15 -103 L 48 294 L 138 294 L 138 262 C 148 274 161 284 177 293 C 193 301 213 306 237 306 C 269 306 294 293 314 268 C 333 243 338 204 330 152 C 322 101 304 62 276 35 C 248 7 214 -6 176 -6 C 160 -6 146 -3 134 0 C 122 4 112 11 104 19 L 85 -103 L -15 -103 Z M 157 60 C 173 60 188 67 200 81 C 212 95 221 117 227 149 C 231 179 230 200 223 212 C 215 224 203 231 187 231 C 175 231 164 228 155 223 C 145 217 138 212 134 206 L 114 81 C 116 75 121 70 127 66 C 133 62 143 60 157 60 Z" unicode="p" />
<glyph horiz-adv-x="352" d="M 176 -103 L 193 5 L 198 35 C 187 23 173 13 157 5 C 140 -2 122 -6 103 -6 C 69 -6 44 7 26 34 C 8 60 2 97 10 145 C 18 195 35 235 63 263 C 90 291 123 306 161 306 C 179 306 195 302 209 295 C 223 287 232 278 236 267 L 250 294 L 338 294 L 275 -103 L 176 -103 Z M 152 62 C 163 62 173 63 181 66 C 189 69 197 74 205 80 L 225 209 C 220 217 215 222 209 226 C 203 230 194 232 183 232 C 165 232 150 225 138 211 C 126 197 117 174 112 141 C 108 113 109 93 117 81 C 124 68 136 62 152 62 Z" unicode="q" />
<glyph horiz-adv-x="256" d="M 1 0 L 48 294 L 139 294 L 136 258 C 148 272 164 283 184 292 C 204 301 223 306 243 306 C 250 306 256 305 261 305 L 246 215 C 242 216 236 217 230 218 C 224 219 216 220 207 220 C 190 220 175 216 163 208 C 150 200 139 191 130 181 L 101 0 L 1 0 Z" unicode="r" />
<glyph horiz-adv-x="288" d="M 112 -6 C 72 -6 40 -1 17 8 C -5 17 -21 26 -30 36 L 22 96 C 30 86 44 78 64 72 C 84 66 104 63 124 63 C 136 63 146 64 154 68 C 162 71 167 77 169 85 C 170 93 167 98 161 101 C 154 104 140 108 120 113 C 80 121 52 133 35 151 C 18 169 12 193 17 223 C 21 249 36 270 62 284 C 88 298 121 306 159 306 C 189 306 214 302 235 295 C 256 288 271 281 280 274 L 236 212 C 224 220 208 226 190 230 C 172 234 155 237 141 237 C 131 237 123 235 118 232 C 113 229 110 226 110 223 C 108 216 113 211 123 207 C 133 203 148 199 166 196 C 205 188 231 175 245 159 C 259 142 263 119 259 91 C 254 62 239 39 214 21 C 188 3 154 -6 112 -6 Z" unicode="s" />
<glyph horiz-adv-x="224" d="M 123 -6 C 89 -6 63 2 44 19 C 25 35 18 60 24 93 L 44 220 L -1 220 L 11 294 L 58 294 L 80 365 L 167 365 L 156 294 L 230 294 L 218 220 L 144 220 L 128 121 C 125 102 126 89 131 81 C 135 73 146 70 162 70 C 174 70 190 72 211 76 L 197 9 C 185 3 174 0 163 -2 C 152 -4 139 -6 123 -6 Z" unicode="t" />
<glyph horiz-adv-x="352" d="M 94 -6 C 66 -6 45 2 31 20 C 17 38 12 63 17 96 L 49 294 L 149 294 L 119 105 C 116 89 117 78 123 72 C 128 65 137 62 150 62 C 160 62 170 64 179 68 C 188 72 196 77 202 84 L 236 294 L 335 294 L 300 77 L 294 0 L 195 0 L 196 35 C 184 19 170 9 156 3 C 141 -3 120 -6 94 -6 Z" unicode="u" />
<glyph horiz-adv-x="320" d="M 87 0 L 7 294 L 113 294 L 157 111 L 252 294 L 340 294 L 181 0 L 87 0 Z" unicode="v" />
<glyph horiz-adv-x="480" d="M 71 0 L 16 294 L 118 294 L 143 122 L 214 294 L 295 294 L 326 122 L 407 294 L 489 294 L 342 0 L 261 0 L 228 171 L 152 0 L 71 0 Z" unicode="w" />
<glyph horiz-adv-x="320" d="M 181 124 L 175 124 L 64 0 L -39 0 L 121 174 L 128 174 L 237 294 L 341 294 L 181 124 Z M 284 0 L 174 0 L 19 294 L 137 294 L 284 0 Z" unicode="x" />
<glyph horiz-adv-x="320" d="M 43 -106 C 33 -106 24 -105 16 -105 C 8 -104 0 -103 -8 -102 L 3 -32 C 11 -34 22 -35 34 -35 C 49 -35 61 -31 70 -23 C 78 -15 85 -8 89 0 L 9 294 L 115 294 L 159 109 L 254 294 L 342 294 L 180 -6 C 160 -44 138 -70 116 -84 C 93 -98 69 -106 43 -106 Z" unicode="y" />
<glyph horiz-adv-x="288" d="M -19 0 L -8 56 L 150 228 L 16 228 L 26 294 L 291 294 L 281 238 L 120 67 L 264 67 L 254 0 L -19 0 Z" unicode="z" />
<glyph horiz-adv-x="224" d="M 121 -72 C 87 -72 63 -64 48 -48 C 32 -32 27 -9 31 19 L 39 68 C 43 93 41 109 34 115 C 27 121 15 125 -2 125 L 9 195 C 25 195 37 198 47 204 C 57 210 63 224 67 247 L 73 280 C 77 314 90 340 111 356 C 132 372 159 381 193 381 L 250 381 L 239 313 L 195 313 C 185 313 177 311 173 309 C 168 307 164 298 162 283 L 156 243 C 151 215 142 196 128 184 C 114 172 98 164 80 161 L 79 159 C 95 155 109 148 120 136 C 130 124 134 106 130 82 L 124 42 C 120 22 122 10 128 4 C 134 -1 146 -4 165 -4 L 189 -4 L 178 -72 L 121 -72 Z" unicode="{" />
<glyph horiz-adv-x="160" d="M 51 -103 L 51 409 L 108 409 L 108 -103 L 51 -103 Z" unicode="|" />
<glyph horiz-adv-x="224" d="M -31 -72 L -20 -4 L 3 -4 C 21 -4 34 -1 42 4 C 49 10 54 22 58 42 L 64 82 C 68 106 77 124 92 136 C 106 148 122 155 139 159 L 140 161 C 123 164 109 172 99 184 C 88 196 85 215 90 243 L 96 283 C 98 298 98 307 94 309 C 90 311 83 313 73 313 L 29 313 L 40 381 L 97 381 C 130 381 154 372 170 356 C 186 340 191 314 185 280 L 179 247 C 175 224 177 210 185 204 C 193 198 205 195 221 195 L 210 125 C 192 125 179 121 170 115 C 161 109 155 93 151 68 L 143 19 C 139 -9 126 -32 106 -48 C 85 -64 58 -72 25 -72 L -31 -72 Z" unicode="}" />
<glyph horiz-adv-x="288" d="M 190 158 C 182 158 173 159 163 162 C 153 165 144 169 136 174 C 126 180 119 184 115 186 C 110 188 107 189 105 189 C 101 189 98 186 97 181 C 96 176 95 169 94 159 L 25 159 C 27 202 37 231 53 245 C 69 259 88 266 110 266 C 118 266 126 264 136 262 C 145 259 153 255 160 251 C 165 248 171 245 179 241 C 186 237 191 235 195 235 C 199 235 202 236 203 240 C 204 244 205 252 207 265 L 276 265 C 273 225 265 198 251 182 C 237 166 217 158 190 158 Z" unicode="~" />
<glyph horiz-adv-x="352" d="M 87 -77 L 119 38 L 4 26 L 16 104 L 128 92 L 125 166 L 151 241 L 35 228 L 48 307 L 160 294 L 164 409 L 254 409 L 222 294 L 338 307 L 325 228 L 213 241 L 215 166 L 190 92 L 306 104 L 293 26 L 181 38 L 177 -77 L 87 -77 Z" unicode="‡" />
<glyph horiz-adv-x="160" d="M 80 124 C 64 124 50 129 38 141 C 26 153 20 167 20 185 C 20 199 25 212 35 225 C 45 237 60 244 80 244 C 97 244 111 238 123 226 C 134 214 140 201 140 185 C 140 169 134 154 122 142 C 110 130 96 124 80 124 Z" unicode="∙" />
<glyph horiz-adv-x="384" d="M 111 311 C 136 311 156 303 171 288 C 185 273 197 250 207 219 C 215 193 223 175 232 164 C 240 153 252 148 266 148 C 284 148 296 154 304 166 C 311 178 315 191 315 205 C 315 219 311 232 303 243 C 295 254 284 260 270 260 C 254 260 242 248 232 224 C 222 200 215 180 210 166 C 199 139 186 120 172 109 C 158 97 137 92 111 92 C 85 92 63 101 45 119 C 26 137 17 163 17 198 C 17 235 25 263 42 282 C 59 301 82 311 111 311 Z M 274 92 C 250 92 231 100 217 117 C 203 133 190 157 178 187 C 168 211 159 228 149 239 C 139 249 127 255 113 255 C 99 255 88 249 81 238 C 74 227 71 214 71 198 C 71 180 74 167 81 157 C 88 147 99 142 113 142 C 129 142 141 148 149 162 C 157 175 165 197 174 227 C 181 253 192 273 207 288 C 222 303 244 311 272 311 C 299 311 322 301 340 282 C 358 262 368 237 368 205 C 368 171 358 144 340 123 C 322 102 300 92 274 92 Z" unicode="∞" />
<glyph horiz-adv-x="352" d="M 8 81 L -10 139 L 105 229 L 141 98 L 303 387 L 359 387 L 120 -32 L 62 -32 L 29 100 L 8 81 Z" unicode="√" />
<glyph horiz-adv-x="160" d="" unicode=" " />
<glyph horiz-adv-x="192" d="M 141 230 L 120 -14 L 2 -14 L 76 230 L 141 230 Z M 120 387 C 136 387 150 381 162 369 C 173 357 179 343 179 327 C 179 311 173 297 162 285 C 150 273 136 267 120 267 C 102 267 88 273 77 285 C 66 297 61 311 61 327 C 61 343 66 357 77 369 C 88 381 102 387 120 387 Z" unicode="¡" />
<glyph horiz-adv-x="320" d="M 113 -43 L 122 11 C 86 15 58 31 40 60 C 21 88 15 126 23 173 C 29 213 46 247 74 275 C 101 303 134 320 172 326 L 178 369 L 226 369 L 220 328 C 248 324 270 316 286 303 C 301 289 311 270 315 244 L 232 218 C 231 226 229 233 226 240 C 222 246 216 252 207 256 L 179 78 C 188 80 195 84 201 90 C 206 95 212 104 220 117 L 294 90 C 280 66 262 47 242 35 C 222 22 198 14 170 12 L 161 -43 L 113 -43 Z M 139 80 L 167 253 C 156 250 147 242 140 228 C 133 214 128 195 124 173 C 119 141 118 119 122 105 C 125 91 131 82 139 80 Z" unicode="¢" />
<glyph horiz-adv-x="320" d="M -17 0 L -7 66 C 23 66 45 70 59 77 C 73 84 82 96 85 114 C 86 122 85 130 83 138 C 81 146 79 151 78 154 L 4 154 L 14 217 L 51 217 C 47 226 45 235 45 245 C 44 255 44 266 46 279 C 50 307 66 332 94 354 C 122 376 154 387 192 387 C 218 387 241 382 261 373 C 281 363 297 349 310 330 L 255 266 C 249 280 239 292 227 303 C 214 314 199 320 182 320 C 166 320 154 315 144 307 C 134 298 128 286 126 270 C 124 260 126 250 130 239 C 134 228 136 221 138 217 L 242 217 L 232 154 L 163 154 C 163 150 164 144 165 138 C 166 131 166 124 166 118 C 164 108 160 98 154 89 C 147 79 138 73 126 71 L 184 71 C 198 71 209 75 217 84 C 225 92 230 103 233 116 L 309 104 C 303 70 292 44 274 26 C 256 8 229 0 193 0 L -17 0 Z" unicode="£" />
<glyph horiz-adv-x="352" d="M 318 78 L 277 39 L 219 101 C 207 94 193 91 175 91 C 157 91 142 94 132 101 L 74 39 L 33 78 L 93 140 C 90 144 88 150 86 158 C 84 165 83 174 83 185 C 83 194 84 203 86 211 C 88 219 90 225 93 230 L 33 292 L 74 331 L 132 269 C 142 275 157 279 175 279 C 193 279 207 275 219 269 L 278 331 L 319 289 L 259 230 C 261 225 264 219 266 211 C 268 203 269 195 269 185 C 269 166 265 151 258 140 L 318 78 Z M 214 185 C 214 197 210 206 203 214 C 195 221 186 225 175 225 C 163 225 154 221 147 214 C 139 206 136 197 136 185 C 136 173 139 163 147 156 C 155 148 164 145 175 145 C 187 145 196 148 203 156 C 210 163 214 173 214 185 Z" unicode="¤" />
<glyph horiz-adv-x="352" d="M 386 381 L 213 147 L 189 0 L 100 0 L 123 143 L 30 381 L 131 381 L 188 240 L 290 381 L 386 381 Z M 1 29 L 10 86 L 313 86 L 304 29 L 1 29 Z M 327 174 L 318 117 L 15 117 L 23 174 L 327 174 Z" unicode="¥" />
<glyph horiz-adv-x="160" d="M 41 197 L 41 409 L 116 409 L 116 197 L 41 197 Z M 41 -103 L 41 110 L 116 110 L 116 -103 L 41 -103 Z" unicode="¦" />
<glyph horiz-adv-x="352" d="M 137 -99 C 105 -99 76 -95 52 -88 C 27 -81 7 -70 -9 -56 L 33 3 C 46 -8 62 -18 80 -26 C 98 -34 116 -38 135 -38 C 169 -38 187 -27 190 -7 C 192 3 189 11 181 17 C 177 19 170 23 160 27 C 149 31 135 36 118 42 C 80 55 53 69 39 85 C 25 101 19 121 22 146 C 24 162 31 179 44 195 C 56 211 70 222 85 230 C 74 236 65 246 58 259 C 51 272 49 287 51 303 C 53 328 65 349 87 365 C 109 381 140 390 181 390 C 229 390 273 375 315 345 L 269 284 C 257 294 241 302 223 309 C 205 316 188 320 174 320 C 148 320 134 313 134 300 C 133 296 133 292 135 288 C 137 284 140 281 146 278 C 151 274 158 271 168 267 C 178 263 190 258 206 252 C 242 239 267 225 282 211 C 296 196 302 177 300 154 C 298 138 291 122 279 108 C 267 94 253 82 236 74 C 250 66 262 57 270 47 C 278 36 281 20 279 -1 C 277 -18 271 -33 262 -45 C 252 -57 241 -68 227 -76 C 213 -84 199 -89 183 -93 C 167 -97 151 -99 137 -99 Z M 175 99 C 189 105 199 112 205 120 C 211 128 215 136 217 146 C 217 150 216 155 214 159 C 212 163 208 168 202 172 C 196 176 188 180 178 185 C 168 190 155 196 139 202 C 129 197 121 191 115 184 C 109 176 105 167 104 157 C 102 146 105 137 111 130 C 117 122 139 111 175 99 Z" unicode="§" />
<glyph horiz-adv-x="256" d="M 168 325 L 181 403 L 264 403 L 251 325 L 168 325 Z M 55 325 L 68 403 L 151 403 L 138 325 L 55 325 Z" unicode="¨" />
<glyph horiz-adv-x="416" d="M 205 61 C 174 61 150 70 132 90 C 114 110 106 136 106 169 C 106 205 115 234 135 254 C 154 274 177 284 205 284 C 226 284 244 279 259 270 C 274 260 286 248 295 232 L 244 199 C 241 207 237 213 231 218 C 225 222 217 225 208 225 C 198 225 189 220 183 210 C 176 200 173 187 173 169 C 173 153 176 140 183 130 C 189 120 198 116 208 116 C 216 116 224 118 230 123 C 236 127 241 134 245 144 L 298 118 C 292 103 282 90 267 78 C 252 66 231 61 205 61 Z M 208 -19 C 157 -19 113 -1 75 33 C 37 67 19 113 19 170 C 19 224 37 268 75 304 C 113 340 158 358 210 358 C 258 358 301 340 339 304 C 377 268 397 224 397 170 C 397 114 378 69 342 34 C 305 -1 260 -19 208 -19 Z M 207 15 C 250 15 287 29 318 58 C 348 87 364 124 364 170 C 364 214 348 251 318 280 C 287 309 250 324 207 324 C 165 324 129 309 98 280 C 67 250 52 214 52 170 C 52 125 67 88 97 59 C 127 29 164 15 207 15 Z" unicode="©" />
<glyph horiz-adv-x="320" d="M 4 24 L 13 85 L 285 85 L 276 24 L 4 24 Z M 237 103 C 223 103 211 106 202 113 C 192 119 187 129 186 143 C 176 131 163 122 148 115 C 133 107 116 104 96 104 C 70 104 51 111 37 127 C 23 143 18 164 22 191 C 27 219 44 243 73 261 C 102 279 147 291 208 295 L 209 303 C 209 309 207 314 202 318 C 196 322 188 324 178 324 C 164 324 148 321 131 316 C 114 310 100 305 89 300 L 72 354 C 84 361 103 368 129 376 C 154 384 179 388 205 388 C 238 388 261 379 275 361 C 288 343 292 319 288 289 L 270 179 C 269 175 269 171 270 168 C 271 165 274 164 278 164 C 280 164 283 164 285 164 C 287 164 291 164 295 165 L 288 117 C 282 113 275 109 267 107 C 259 104 249 103 237 103 Z M 131 168 C 141 168 151 171 163 177 C 174 183 184 190 192 199 L 200 248 C 169 245 145 238 129 228 C 113 217 104 206 102 195 C 100 187 102 181 108 176 C 114 170 121 168 131 168 Z" unicode="ª" />
<glyph horiz-adv-x="320" d="M 285 26 L 154 127 L 163 186 L 326 287 L 314 211 L 230 162 L 298 108 L 285 26 Z M 133 26 L 2 127 L 11 186 L 174 287 L 162 211 L 79 162 L 146 108 L 133 26 Z" unicode="«" />
<glyph horiz-adv-x="384" d="M 250 77 L 250 163 L 41 163 L 41 252 L 335 252 L 335 77 L 250 77 Z" unicode="¬" />
<glyph horiz-adv-x="224" d="M 10 123 L 24 215 L 210 215 L 196 123 L 10 123 Z" unicode="­" />
<glyph horiz-adv-x="384" d="M 129 141 L 129 335 L 216 335 C 238 335 256 329 268 319 C 280 309 286 294 286 274 C 286 261 282 250 274 242 C 266 234 257 229 247 227 L 294 141 L 236 141 L 199 217 L 181 217 L 181 141 L 129 141 Z M 178 252 L 198 252 C 212 252 221 253 225 257 C 229 260 231 264 231 270 C 231 277 229 282 225 285 C 221 288 212 290 198 290 L 178 290 L 178 252 Z M 197 59 C 153 59 114 74 78 106 C 42 137 25 179 25 233 C 25 285 42 327 78 359 C 114 391 154 407 198 407 C 244 407 285 391 319 360 C 353 328 370 286 370 233 C 370 179 353 137 319 106 C 285 74 244 59 197 59 Z M 196 87 C 235 87 269 100 297 128 C 325 155 340 190 340 232 C 340 274 325 309 297 337 C 269 364 235 378 196 378 C 158 378 125 364 97 336 C 68 308 54 274 54 232 C 54 190 68 156 97 128 C 125 100 158 87 196 87 Z" unicode="®" />
<glyph horiz-adv-x="256" d="M 80 332 L 89 392 L 249 392 L 240 332 L 80 332 Z" unicode="¯" />
<glyph horiz-adv-x="256" d="M 153 225 C 129 225 107 233 88 250 C 69 266 60 289 60 317 C 60 344 69 366 88 383 C 107 400 129 409 153 409 C 178 409 200 400 219 384 C 237 367 247 345 247 317 C 247 289 237 266 219 250 C 200 233 178 225 153 225 Z M 153 280 C 163 280 171 283 179 290 C 186 296 190 305 190 317 C 190 328 186 337 179 344 C 171 351 163 355 153 355 C 143 355 135 351 128 344 C 120 336 117 327 117 317 C 117 305 120 296 128 290 C 135 283 143 280 153 280 Z" unicode="°" />
<glyph horiz-adv-x="384" d="M 157 88 L 157 177 L 50 177 L 50 251 L 157 251 L 157 338 L 227 338 L 227 251 L 335 251 L 335 177 L 227 177 L 227 88 L 157 88 Z M 51 6 L 51 73 L 334 73 L 334 6 L 51 6 Z" unicode="±" />
<glyph horiz-adv-x="224" d="M 5 157 L 13 208 L 93 273 C 105 282 114 291 122 300 C 129 309 133 317 135 325 C 135 330 134 334 132 338 C 129 342 125 344 119 344 C 110 344 101 340 92 334 C 82 328 74 321 68 313 L 36 356 C 49 370 64 381 81 391 C 98 400 118 405 141 405 C 168 405 187 398 199 384 C 211 370 215 354 212 334 C 210 318 204 303 194 290 C 184 277 173 266 161 257 L 103 214 L 198 214 L 189 157 L 5 157 Z" unicode="²" />
<glyph horiz-adv-x="224" d="M 6 186 L 50 236 C 58 225 66 218 75 214 C 83 210 92 209 100 209 C 109 209 116 210 122 214 C 128 218 131 224 133 233 C 134 241 132 247 126 251 C 120 255 113 258 105 258 L 75 258 L 84 309 L 100 309 C 112 309 122 310 128 314 C 134 317 137 322 139 329 C 139 335 138 339 135 342 C 132 345 127 347 119 347 C 109 347 98 344 88 340 C 78 335 70 330 64 326 L 45 375 C 62 386 77 394 91 398 C 104 402 120 405 138 405 C 162 405 181 399 196 387 C 210 375 216 360 214 340 C 211 324 205 312 195 305 C 185 297 173 292 159 288 C 172 285 183 279 192 270 C 201 260 204 246 202 227 C 198 203 186 185 167 173 C 147 160 123 154 94 154 C 73 154 56 156 42 162 C 28 167 16 175 6 186 Z" unicode="³" />
<glyph horiz-adv-x="256" d="M 64 323 L 127 409 L 240 409 L 141 323 L 64 323 Z" unicode="´" />
<glyph horiz-adv-x="352" d="M 23 -106 C 7 -106 -2 -100 -7 -90 C -11 -80 -13 -67 -11 -51 C -9 -42 -5 -25 3 0 C 11 26 16 45 19 59 C 21 73 23 83 25 91 L 57 294 L 158 294 L 127 111 C 124 93 125 80 131 74 C 136 68 145 65 158 65 C 168 65 177 66 185 70 C 193 74 201 79 207 86 L 240 294 L 339 294 L 300 43 L 295 0 L 201 0 L 203 36 C 196 24 188 15 178 7 C 168 -1 153 -5 133 -5 C 119 -5 109 -3 101 1 C 93 5 87 10 83 17 C 81 5 80 -6 79 -20 C 78 -33 77 -45 75 -57 C 73 -70 67 -81 59 -91 C 51 -101 39 -106 23 -106 Z" unicode="µ" />
<glyph horiz-adv-x="320" d="M 99 -103 L 138 146 C 96 148 63 159 41 179 C 19 199 11 227 17 263 C 23 301 40 331 69 351 C 98 371 138 381 188 381 L 314 381 L 237 -103 L 181 -103 L 250 335 L 223 335 L 154 -103 L 99 -103 Z" unicode="¶" />
<glyph horiz-adv-x="160" d="M 80 124 C 64 124 50 129 38 141 C 26 153 20 167 20 185 C 20 199 25 212 35 225 C 45 237 60 244 80 244 C 97 244 111 238 123 226 C 134 214 140 201 140 185 C 140 169 134 154 122 142 C 110 130 96 124 80 124 Z" unicode="·" />
<glyph horiz-adv-x="256" d="M 93 -96 C 77 -96 63 -94 52 -92 C 40 -90 31 -87 23 -83 L 45 -44 C 51 -47 58 -49 66 -51 C 74 -53 81 -54 87 -54 C 93 -54 99 -53 103 -51 C 107 -49 109 -46 110 -43 C 110 -39 109 -37 107 -36 C 105 -34 102 -34 98 -34 C 94 -34 91 -34 89 -34 C 86 -34 83 -35 81 -37 L 81 -5 C 87 -2 93 0 99 1 C 105 3 112 4 121 4 C 137 4 148 0 156 -9 C 163 -18 166 -29 164 -43 C 161 -58 153 -71 141 -81 C 128 -91 112 -96 93 -96 Z" unicode="¸" />
<glyph horiz-adv-x="224" d="M 73 157 L 102 343 L 49 331 L 56 377 L 142 409 L 186 409 L 147 157 L 73 157 Z" unicode="¹" />
<glyph horiz-adv-x="320" d="M 4 24 L 14 85 L 268 85 L 258 24 L 4 24 Z M 143 99 C 101 99 71 111 54 137 C 36 163 31 198 38 242 C 46 289 63 325 90 349 C 116 373 149 385 188 385 C 226 385 256 373 276 349 C 296 325 302 289 295 243 C 287 198 270 163 242 137 C 214 111 181 99 143 99 Z M 152 152 C 166 152 178 159 186 175 C 194 191 201 213 205 241 C 209 269 210 291 207 307 C 204 323 195 331 181 331 C 167 331 156 323 147 307 C 138 291 131 269 127 241 C 123 213 122 191 126 175 C 130 159 138 152 152 152 Z" unicode="º" />
<glyph horiz-adv-x="320" d="M -9 23 L 2 99 L 86 148 L 18 202 L 31 284 L 162 183 L 153 124 L -9 23 Z M 142 23 L 154 99 L 237 148 L 170 202 L 183 284 L 314 183 L 305 124 L 142 23 Z" unicode="»" />
<glyph horiz-adv-x="480" d="M 52 0 L 353 381 L 412 381 L 113 0 L 52 0 Z M 60 157 L 89 343 L 36 331 L 43 377 L 129 409 L 173 409 L 134 157 L 60 157 Z M 420 47 L 413 1 L 344 1 L 351 47 L 234 47 L 242 98 L 390 246 L 452 246 L 429 102 L 462 102 L 453 47 L 420 47 Z M 305 98 L 361 98 L 372 162 L 305 98 Z" unicode="¼" />
<glyph horiz-adv-x="512" d="M 52 0 L 353 381 L 412 381 L 113 0 L 52 0 Z M 60 157 L 89 343 L 36 331 L 43 377 L 129 409 L 173 409 L 134 157 L 60 157 Z M 275 1 L 283 52 L 363 117 C 375 126 384 135 392 144 C 399 153 403 161 405 169 C 405 174 404 178 402 182 C 399 186 395 188 389 188 C 380 188 371 184 362 178 C 352 172 344 165 338 157 L 306 200 C 319 214 334 225 351 235 C 368 244 388 249 411 249 C 438 249 457 242 469 228 C 481 214 485 198 482 178 C 480 162 474 147 464 134 C 454 121 443 110 431 101 L 373 58 L 468 58 L 459 1 L 275 1 Z" unicode="½" />
<glyph horiz-adv-x="480" d="M 72 0 L 373 381 L 432 381 L 133 0 L 72 0 Z M 6 186 L 50 236 C 58 225 66 218 75 214 C 83 210 92 209 100 209 C 109 209 116 210 122 214 C 128 218 131 224 133 233 C 134 241 132 247 126 251 C 120 255 113 258 105 258 L 75 258 L 84 309 L 100 309 C 112 309 122 310 128 314 C 134 317 137 322 139 329 C 139 335 138 339 135 342 C 132 345 127 347 119 347 C 109 347 98 344 88 340 C 78 335 70 330 64 326 L 45 375 C 62 386 77 394 91 398 C 104 402 120 405 138 405 C 162 405 181 399 196 387 C 210 375 216 360 214 340 C 211 324 205 312 195 305 C 185 297 173 292 159 288 C 172 285 183 279 192 270 C 201 260 204 246 202 227 C 198 203 186 185 167 173 C 147 160 123 154 94 154 C 73 154 56 156 42 162 C 28 167 16 175 6 186 Z M 428 47 L 421 1 L 352 1 L 359 47 L 242 47 L 250 98 L 398 246 L 460 246 L 437 102 L 470 102 L 461 47 L 428 47 Z M 313 98 L 369 98 L 380 162 L 313 98 Z" unicode="¾" />
<glyph horiz-adv-x="320" d="M 237 240 C 233 216 224 196 208 181 C 192 166 175 154 158 146 C 142 137 131 129 123 123 C 115 116 111 108 111 99 C 109 89 110 82 116 77 C 122 72 132 70 148 70 C 163 70 178 74 192 83 C 206 92 218 102 228 114 L 286 64 C 269 44 247 27 221 13 C 194 0 164 -8 130 -8 C 89 -8 58 1 36 20 C 14 38 6 63 12 93 C 16 116 24 136 37 152 C 50 168 71 182 99 194 C 108 198 118 203 130 210 C 141 217 148 227 151 240 L 237 240 Z M 202 387 C 218 387 232 381 244 369 C 255 357 261 343 261 327 C 261 311 255 297 244 285 C 232 273 218 267 202 267 C 184 267 170 273 159 285 C 148 297 143 311 143 327 C 143 343 148 357 159 369 C 170 381 184 387 202 387 Z" unicode="¿" />
<glyph horiz-adv-x="384" d="M -44 0 L 162 384 L 273 384 L 352 0 L 244 0 L 231 61 L 87 61 L 56 0 L -44 0 Z M 123 135 L 220 135 L 193 279 L 123 135 Z M 206 407 L 135 496 L 248 496 L 284 407 L 206 407 Z" unicode="À" />
<glyph horiz-adv-x="384" d="M -44 0 L 162 384 L 273 384 L 352 0 L 244 0 L 231 61 L 87 61 L 56 0 L -44 0 Z M 123 135 L 220 135 L 193 279 L 123 135 Z M 141 410 L 204 496 L 317 496 L 218 410 L 141 410 Z" unicode="Á" />
<glyph horiz-adv-x="384" d="M -44 0 L 162 384 L 273 384 L 352 0 L 244 0 L 231 61 L 87 61 L 56 0 L -44 0 Z M 123 135 L 220 135 L 193 279 L 123 135 Z M 125 410 L 210 496 L 262 496 L 316 410 L 252 410 L 226 441 L 189 410 L 125 410 Z" unicode="Â" />
<glyph horiz-adv-x="384" d="M -44 0 L 162 384 L 273 384 L 352 0 L 244 0 L 231 61 L 87 61 L 56 0 L -44 0 Z M 123 135 L 220 135 L 193 279 L 123 135 Z M 173 414 L 115 414 C 119 441 127 461 138 473 C 148 485 162 491 179 491 C 188 491 195 490 201 488 C 207 486 212 484 218 481 C 224 478 230 475 236 471 C 242 467 248 466 254 466 C 258 466 262 467 264 471 C 266 475 268 480 270 488 L 325 488 C 321 460 314 440 302 429 C 290 418 276 413 260 413 C 252 413 245 413 239 415 C 232 416 226 418 220 421 C 214 424 209 428 204 432 C 198 436 193 439 189 439 C 184 439 181 437 179 433 C 177 429 175 422 173 414 Z" unicode="Ã" />
<glyph horiz-adv-x="384" d="M -44 0 L 162 384 L 273 384 L 352 0 L 244 0 L 231 61 L 87 61 L 56 0 L -44 0 Z M 123 135 L 220 135 L 193 279 L 123 135 Z M 230 412 L 243 490 L 326 490 L 313 412 L 230 412 Z M 117 412 L 130 490 L 213 490 L 200 412 L 117 412 Z" unicode="Ä" />
<glyph horiz-adv-x="384" d="M -44 0 L 162 384 L 273 384 L 352 0 L 244 0 L 231 61 L 87 61 L 56 0 L -44 0 Z M 123 135 L 220 135 L 193 279 L 123 135 Z M 220 344 C 204 344 189 349 177 361 C 164 372 158 387 158 406 C 158 424 164 439 177 451 C 189 462 204 468 220 468 C 236 468 251 462 263 451 C 275 439 282 424 282 406 C 282 387 275 372 263 361 C 251 349 236 344 220 344 Z M 220 386 C 225 386 229 387 233 391 C 237 395 239 400 239 406 C 239 412 237 416 233 420 C 229 423 225 425 220 425 C 214 425 210 423 206 420 C 202 416 201 412 201 406 C 201 400 202 395 206 391 C 210 387 214 386 220 386 Z" unicode="Å" />
<glyph horiz-adv-x="512" d="M -37 0 L 200 381 L 524 381 L 512 306 L 355 306 L 343 229 L 460 229 L 447 154 L 330 154 L 318 75 L 482 75 L 470 0 L 207 0 L 221 89 L 125 89 L 73 0 L -37 0 Z M 162 161 L 233 161 L 256 307 L 249 307 L 162 161 Z" unicode="Æ" />
<glyph horiz-adv-x="384" d="M 185 -6 C 131 -6 88 10 58 43 C 27 76 16 125 24 191 C 30 251 52 299 91 334 C 129 369 175 387 228 387 C 277 387 313 375 337 352 C 360 328 374 303 379 275 L 289 244 C 285 260 278 275 268 288 C 257 301 241 308 221 308 C 198 308 179 299 163 282 C 147 265 136 234 132 189 C 127 147 130 116 141 97 C 152 77 170 68 196 68 C 219 68 238 74 252 87 C 266 99 277 114 283 132 L 356 96 C 346 70 327 46 300 25 C 273 4 235 -6 185 -6 Z M 157 -96 C 141 -96 127 -94 116 -92 C 104 -90 95 -87 87 -83 L 109 -44 C 115 -47 122 -49 130 -51 C 138 -53 145 -54 151 -54 C 157 -54 163 -53 167 -51 C 171 -49 173 -46 174 -43 C 174 -39 173 -37 171 -36 C 169 -34 166 -34 162 -34 C 158 -34 155 -34 153 -34 C 150 -34 147 -35 145 -37 L 145 -5 C 151 -2 157 0 163 1 C 169 3 176 4 185 4 C 201 4 212 0 220 -9 C 227 -18 230 -29 228 -43 C 225 -58 217 -71 205 -81 C 192 -91 176 -96 157 -96 Z" unicode="Ç" />
<glyph horiz-adv-x="320" d="M 12 0 L 73 381 L 338 381 L 326 306 L 163 306 L 151 229 L 279 229 L 267 154 L 139 154 L 126 75 L 297 75 L 285 0 L 12 0 Z M 174 407 L 103 496 L 216 496 L 252 407 L 174 407 Z" unicode="È" />
<glyph horiz-adv-x="320" d="M 12 0 L 73 381 L 338 381 L 326 306 L 163 306 L 151 229 L 279 229 L 267 154 L 139 154 L 126 75 L 297 75 L 285 0 L 12 0 Z M 159 410 L 222 496 L 335 496 L 236 410 L 159 410 Z" unicode="É" />
<glyph horiz-adv-x="320" d="M 12 0 L 73 381 L 338 381 L 326 306 L 163 306 L 151 229 L 279 229 L 267 154 L 139 154 L 126 75 L 297 75 L 285 0 L 12 0 Z M 116 410 L 201 496 L 253 496 L 307 410 L 243 410 L 217 441 L 180 410 L 116 410 Z" unicode="Ê" />
<glyph horiz-adv-x="320" d="M 12 0 L 73 381 L 338 381 L 326 306 L 163 306 L 151 229 L 279 229 L 267 154 L 139 154 L 126 75 L 297 75 L 285 0 L 12 0 Z M 223 412 L 236 490 L 319 490 L 306 412 L 223 412 Z M 110 412 L 123 490 L 206 490 L 193 412 L 110 412 Z" unicode="Ë" />
<glyph horiz-adv-x="192" d="M 13 0 L 75 381 L 179 381 L 117 0 L 13 0 Z M 111 407 L 40 496 L 153 496 L 189 407 L 111 407 Z" unicode="Ì" />
<glyph horiz-adv-x="192" d="M 13 0 L 75 381 L 179 381 L 117 0 L 13 0 Z M 65 410 L 128 496 L 241 496 L 142 410 L 65 410 Z" unicode="Í" />
<glyph horiz-adv-x="192" d="M 13 0 L 75 381 L 179 381 L 117 0 L 13 0 Z M 39 410 L 124 496 L 176 496 L 230 410 L 166 410 L 140 441 L 103 410 L 39 410 Z" unicode="Î" />
<glyph horiz-adv-x="192" d="M 13 0 L 75 381 L 179 381 L 117 0 L 13 0 Z M 145 412 L 158 490 L 241 490 L 228 412 L 145 412 Z M 32 412 L 45 490 L 128 490 L 115 412 L 32 412 Z" unicode="Ï" />
<glyph horiz-adv-x="416" d="M 12 0 L 73 381 L 235 381 C 285 381 324 364 354 331 C 383 297 393 251 384 191 C 374 130 348 83 308 50 C 268 16 219 0 161 0 L 12 0 Z M 124 75 L 179 75 C 201 75 221 83 239 100 C 257 117 269 147 277 191 C 283 230 279 259 266 278 C 253 296 233 306 207 306 L 161 306 L 124 75 Z M 9 140 L 22 218 L 190 218 L 177 140 L 9 140 Z" unicode="Ð" />
<glyph horiz-adv-x="416" d="M 12 0 L 73 381 L 181 381 L 283 175 L 316 381 L 403 381 L 342 0 L 259 0 L 137 240 L 98 0 L 12 0 Z M 199 414 L 141 414 C 145 441 153 461 164 473 C 174 485 188 491 205 491 C 214 491 221 490 227 488 C 233 486 238 484 244 481 C 250 478 256 475 262 471 C 268 467 274 466 280 466 C 284 466 288 467 290 471 C 292 475 294 480 296 488 L 351 488 C 347 460 340 440 328 429 C 316 418 302 413 286 413 C 278 413 271 413 265 415 C 258 416 252 418 246 421 C 240 424 235 428 230 432 C 224 436 219 439 215 439 C 210 439 207 437 205 433 C 203 429 201 422 199 414 Z" unicode="Ñ" />
<glyph horiz-adv-x="416" d="M 184 -6 C 126 -6 82 11 54 47 C 26 83 16 129 24 187 C 31 249 53 298 91 334 C 128 369 175 387 232 387 C 286 387 328 369 358 333 C 388 297 399 248 392 186 C 384 129 361 83 323 47 C 285 11 238 -6 184 -6 Z M 193 70 C 214 70 234 79 253 97 C 271 115 283 145 288 185 C 293 228 289 259 276 279 C 262 299 244 309 222 309 C 197 309 176 299 160 280 C 143 261 132 230 128 188 C 123 148 127 118 140 99 C 152 79 170 70 193 70 Z M 222 407 L 151 496 L 264 496 L 300 407 L 222 407 Z" unicode="Ò" />
<glyph horiz-adv-x="416" d="M 184 -6 C 126 -6 82 11 54 47 C 26 83 16 129 24 187 C 31 249 53 298 91 334 C 128 369 175 387 232 387 C 286 387 328 369 358 333 C 388 297 399 248 392 186 C 384 129 361 83 323 47 C 285 11 238 -6 184 -6 Z M 193 70 C 214 70 234 79 253 97 C 271 115 283 145 288 185 C 293 228 289 259 276 279 C 262 299 244 309 222 309 C 197 309 176 299 160 280 C 143 261 132 230 128 188 C 123 148 127 118 140 99 C 152 79 170 70 193 70 Z M 157 410 L 220 496 L 333 496 L 234 410 L 157 410 Z" unicode="Ó" />
<glyph horiz-adv-x="416" d="M 184 -6 C 126 -6 82 11 54 47 C 26 83 16 129 24 187 C 31 249 53 298 91 334 C 128 369 175 387 232 387 C 286 387 328 369 358 333 C 388 297 399 248 392 186 C 384 129 361 83 323 47 C 285 11 238 -6 184 -6 Z M 193 70 C 214 70 234 79 253 97 C 271 115 283 145 288 185 C 293 228 289 259 276 279 C 262 299 244 309 222 309 C 197 309 176 299 160 280 C 143 261 132 230 128 188 C 123 148 127 118 140 99 C 152 79 170 70 193 70 Z M 144 410 L 229 496 L 281 496 L 335 410 L 271 410 L 245 441 L 208 410 L 144 410 Z" unicode="Ô" />
<glyph horiz-adv-x="416" d="M 184 -6 C 126 -6 82 11 54 47 C 26 83 16 129 24 187 C 31 249 53 298 91 334 C 128 369 175 387 232 387 C 286 387 328 369 358 333 C 388 297 399 248 392 186 C 384 129 361 83 323 47 C 285 11 238 -6 184 -6 Z M 193 70 C 214 70 234 79 253 97 C 271 115 283 145 288 185 C 293 228 289 259 276 279 C 262 299 244 309 222 309 C 197 309 176 299 160 280 C 143 261 132 230 128 188 C 123 148 127 118 140 99 C 152 79 170 70 193 70 Z M 199 414 L 141 414 C 145 441 153 461 164 473 C 174 485 188 491 205 491 C 214 491 221 490 227 488 C 233 486 238 484 244 481 C 250 478 256 475 262 471 C 268 467 274 466 280 466 C 284 466 288 467 290 471 C 292 475 294 480 296 488 L 351 488 C 347 460 340 440 328 429 C 316 418 302 413 286 413 C 278 413 271 413 265 415 C 258 416 252 418 246 421 C 240 424 235 428 230 432 C 224 436 219 439 215 439 C 210 439 207 437 205 433 C 203 429 201 422 199 414 Z" unicode="Õ" />
<glyph horiz-adv-x="416" d="M 184 -6 C 126 -6 82 11 54 47 C 26 83 16 129 24 187 C 31 249 53 298 91 334 C 128 369 175 387 232 387 C 286 387 328 369 358 333 C 388 297 399 248 392 186 C 384 129 361 83 323 47 C 285 11 238 -6 184 -6 Z M 193 70 C 214 70 234 79 253 97 C 271 115 283 145 288 185 C 293 228 289 259 276 279 C 262 299 244 309 222 309 C 197 309 176 299 160 280 C 143 261 132 230 128 188 C 123 148 127 118 140 99 C 152 79 170 70 193 70 Z M 261 412 L 274 490 L 357 490 L 344 412 L 261 412 Z M 148 412 L 161 490 L 244 490 L 231 412 L 148 412 Z" unicode="Ö" />
<glyph horiz-adv-x="384" d="M 114 64 L 59 119 L 138 198 L 59 276 L 114 331 L 193 252 L 271 331 L 326 276 L 247 198 L 326 119 L 271 64 L 193 143 L 114 64 Z" unicode="×" />
<glyph horiz-adv-x="416" d="M 326 409 L 387 409 L 87 -32 L 24 -32 L 326 409 Z M 184 -6 C 126 -6 82 11 54 47 C 26 83 16 129 24 187 C 31 249 53 298 91 334 C 128 369 175 387 232 387 C 286 387 328 369 358 333 C 388 297 399 248 392 186 C 384 129 361 83 323 47 C 285 11 238 -6 184 -6 Z M 193 70 C 214 70 234 79 253 97 C 271 115 283 145 288 185 C 293 228 289 259 276 279 C 262 299 244 309 222 309 C 197 309 176 299 160 280 C 143 261 132 230 128 188 C 123 148 127 118 140 99 C 152 79 170 70 193 70 Z" unicode="Ø" />
<glyph horiz-adv-x="384" d="M 161 -6 C 109 -6 71 6 48 32 C 25 57 17 93 25 139 L 63 381 L 165 381 L 129 152 C 125 126 126 107 134 93 C 142 79 157 72 181 72 C 203 72 221 78 234 92 C 247 106 256 126 260 153 L 296 381 L 385 381 L 347 142 C 339 96 319 59 286 33 C 253 7 211 -6 161 -6 Z M 196 407 L 125 496 L 238 496 L 274 407 L 196 407 Z" unicode="Ù" />
<glyph horiz-adv-x="384" d="M 161 -6 C 109 -6 71 6 48 32 C 25 57 17 93 25 139 L 63 381 L 165 381 L 129 152 C 125 126 126 107 134 93 C 142 79 157 72 181 72 C 203 72 221 78 234 92 C 247 106 256 126 260 153 L 296 381 L 385 381 L 347 142 C 339 96 319 59 286 33 C 253 7 211 -6 161 -6 Z M 171 410 L 234 496 L 347 496 L 248 410 L 171 410 Z" unicode="Ú" />
<glyph horiz-adv-x="384" d="M 161 -6 C 109 -6 71 6 48 32 C 25 57 17 93 25 139 L 63 381 L 165 381 L 129 152 C 125 126 126 107 134 93 C 142 79 157 72 181 72 C 203 72 221 78 234 92 C 247 106 256 126 260 153 L 296 381 L 385 381 L 347 142 C 339 96 319 59 286 33 C 253 7 211 -6 161 -6 Z M 138 410 L 223 496 L 275 496 L 329 410 L 265 410 L 239 441 L 202 410 L 138 410 Z" unicode="Û" />
<glyph horiz-adv-x="384" d="M 161 -6 C 109 -6 71 6 48 32 C 25 57 17 93 25 139 L 63 381 L 165 381 L 129 152 C 125 126 126 107 134 93 C 142 79 157 72 181 72 C 203 72 221 78 234 92 C 247 106 256 126 260 153 L 296 381 L 385 381 L 347 142 C 339 96 319 59 286 33 C 253 7 211 -6 161 -6 Z M 245 412 L 258 490 L 341 490 L 328 412 L 245 412 Z M 132 412 L 145 490 L 228 490 L 215 412 L 132 412 Z" unicode="Ü" />
<glyph horiz-adv-x="352" d="M 96 0 L 119 143 L 11 381 L 124 381 L 192 229 L 307 381 L 408 381 L 223 148 L 199 0 L 96 0 Z M 155 410 L 218 496 L 331 496 L 232 410 L 155 410 Z" unicode="Ý" />
<glyph horiz-adv-x="352" d="M 12 0 L 72 381 L 179 381 L 171 328 L 219 328 C 262 328 295 314 318 288 C 341 261 350 229 344 191 C 337 151 317 120 284 100 C 251 79 215 69 177 69 L 130 69 L 119 0 L 12 0 Z M 142 146 L 173 146 C 196 146 212 149 222 157 C 231 164 237 179 241 202 C 243 219 240 232 231 241 C 222 250 208 255 189 255 L 159 255 L 142 146 Z" unicode="Þ" />
<glyph horiz-adv-x="352" d="M 176 -8 C 161 -8 149 -7 140 -5 C 131 -3 124 0 118 3 L 146 72 C 148 70 152 68 156 67 C 160 66 166 66 172 66 C 182 66 192 71 200 81 C 208 91 212 103 214 118 C 217 137 213 154 202 168 C 190 182 174 192 154 198 L 164 263 C 176 265 187 271 196 280 C 205 288 211 299 214 311 C 216 321 215 330 210 336 C 205 342 198 346 190 346 C 178 346 169 342 162 335 C 155 327 150 313 147 292 L 101 0 L 2 0 L 45 279 C 52 323 70 354 98 374 C 126 393 162 403 206 403 C 243 403 272 395 292 380 C 312 364 321 343 317 315 C 314 292 305 273 289 259 C 273 245 250 235 219 231 C 255 223 282 208 299 186 C 315 164 321 137 315 105 C 309 70 295 42 272 22 C 248 2 216 -8 176 -8 Z" unicode="ß" />
<glyph horiz-adv-x="320" d="M 227 -6 C 207 -6 193 -2 185 4 C 177 10 172 20 170 34 C 158 22 145 13 130 5 C 115 -2 95 -6 69 -6 C 41 -6 20 2 6 19 C -8 35 -13 58 -9 87 C -3 119 17 144 53 164 C 89 184 134 195 188 198 L 189 206 C 190 215 187 222 181 228 C 175 233 164 236 148 236 C 131 236 114 232 98 225 C 82 218 68 210 56 202 L 29 262 C 47 274 67 284 91 293 C 114 301 142 306 174 306 C 212 306 241 297 260 280 C 279 263 286 240 282 212 L 261 78 C 259 71 259 66 261 64 C 263 61 266 60 271 60 C 277 60 282 60 288 62 L 280 8 C 275 4 268 1 259 -1 C 249 -4 239 -6 227 -6 Z M 113 60 C 125 60 136 62 146 67 C 156 71 164 77 170 85 L 180 145 C 146 141 121 135 107 126 C 93 117 85 106 83 94 C 81 82 82 74 88 68 C 93 62 101 60 113 60 Z M 153 320 L 82 409 L 195 409 L 231 320 L 153 320 Z" unicode="à" />
<glyph horiz-adv-x="320" d="M 227 -6 C 207 -6 193 -2 185 4 C 177 10 172 20 170 34 C 158 22 145 13 130 5 C 115 -2 95 -6 69 -6 C 41 -6 20 2 6 19 C -8 35 -13 58 -9 87 C -3 119 17 144 53 164 C 89 184 134 195 188 198 L 189 206 C 190 215 187 222 181 228 C 175 233 164 236 148 236 C 131 236 114 232 98 225 C 82 218 68 210 56 202 L 29 262 C 47 274 67 284 91 293 C 114 301 142 306 174 306 C 212 306 241 297 260 280 C 279 263 286 240 282 212 L 261 78 C 259 71 259 66 261 64 C 263 61 266 60 271 60 C 277 60 282 60 288 62 L 280 8 C 275 4 268 1 259 -1 C 249 -4 239 -6 227 -6 Z M 113 60 C 125 60 136 62 146 67 C 156 71 164 77 170 85 L 180 145 C 146 141 121 135 107 126 C 93 117 85 106 83 94 C 81 82 82 74 88 68 C 93 62 101 60 113 60 Z M 116 323 L 179 409 L 292 409 L 193 323 L 116 323 Z" unicode="á" />
<glyph horiz-adv-x="320" d="M 227 -6 C 207 -6 193 -2 185 4 C 177 10 172 20 170 34 C 158 22 145 13 130 5 C 115 -2 95 -6 69 -6 C 41 -6 20 2 6 19 C -8 35 -13 58 -9 87 C -3 119 17 144 53 164 C 89 184 134 195 188 198 L 189 206 C 190 215 187 222 181 228 C 175 233 164 236 148 236 C 131 236 114 232 98 225 C 82 218 68 210 56 202 L 29 262 C 47 274 67 284 91 293 C 114 301 142 306 174 306 C 212 306 241 297 260 280 C 279 263 286 240 282 212 L 261 78 C 259 71 259 66 261 64 C 263 61 266 60 271 60 C 277 60 282 60 288 62 L 280 8 C 275 4 268 1 259 -1 C 249 -4 239 -6 227 -6 Z M 113 60 C 125 60 136 62 146 67 C 156 71 164 77 170 85 L 180 145 C 146 141 121 135 107 126 C 93 117 85 106 83 94 C 81 82 82 74 88 68 C 93 62 101 60 113 60 Z M 78 323 L 163 409 L 215 409 L 269 323 L 205 323 L 179 354 L 142 323 L 78 323 Z" unicode="â" />
<glyph horiz-adv-x="320" d="M 227 -6 C 207 -6 193 -2 185 4 C 177 10 172 20 170 34 C 158 22 145 13 130 5 C 115 -2 95 -6 69 -6 C 41 -6 20 2 6 19 C -8 35 -13 58 -9 87 C -3 119 17 144 53 164 C 89 184 134 195 188 198 L 189 206 C 190 215 187 222 181 228 C 175 233 164 236 148 236 C 131 236 114 232 98 225 C 82 218 68 210 56 202 L 29 262 C 47 274 67 284 91 293 C 114 301 142 306 174 306 C 212 306 241 297 260 280 C 279 263 286 240 282 212 L 261 78 C 259 71 259 66 261 64 C 263 61 266 60 271 60 C 277 60 282 60 288 62 L 280 8 C 275 4 268 1 259 -1 C 249 -4 239 -6 227 -6 Z M 113 60 C 125 60 136 62 146 67 C 156 71 164 77 170 85 L 180 145 C 146 141 121 135 107 126 C 93 117 85 106 83 94 C 81 82 82 74 88 68 C 93 62 101 60 113 60 Z M 133 327 L 75 327 C 79 354 87 374 98 386 C 108 398 122 404 139 404 C 148 404 155 403 161 401 C 167 399 172 397 178 394 C 184 391 190 388 196 384 C 202 380 208 379 214 379 C 218 379 222 380 224 384 C 226 388 228 393 230 401 L 285 401 C 281 373 274 353 262 342 C 250 331 236 326 220 326 C 212 326 205 326 199 328 C 192 329 186 331 180 334 C 174 337 169 341 164 345 C 158 349 153 352 149 352 C 144 352 141 350 139 346 C 137 342 135 335 133 327 Z" unicode="ã" />
<glyph horiz-adv-x="320" d="M 227 -6 C 207 -6 193 -2 185 4 C 177 10 172 20 170 34 C 158 22 145 13 130 5 C 115 -2 95 -6 69 -6 C 41 -6 20 2 6 19 C -8 35 -13 58 -9 87 C -3 119 17 144 53 164 C 89 184 134 195 188 198 L 189 206 C 190 215 187 222 181 228 C 175 233 164 236 148 236 C 131 236 114 232 98 225 C 82 218 68 210 56 202 L 29 262 C 47 274 67 284 91 293 C 114 301 142 306 174 306 C 212 306 241 297 260 280 C 279 263 286 240 282 212 L 261 78 C 259 71 259 66 261 64 C 263 61 266 60 271 60 C 277 60 282 60 288 62 L 280 8 C 275 4 268 1 259 -1 C 249 -4 239 -6 227 -6 Z M 113 60 C 125 60 136 62 146 67 C 156 71 164 77 170 85 L 180 145 C 146 141 121 135 107 126 C 93 117 85 106 83 94 C 81 82 82 74 88 68 C 93 62 101 60 113 60 Z M 190 325 L 203 403 L 286 403 L 273 325 L 190 325 Z M 77 325 L 90 403 L 173 403 L 160 325 L 77 325 Z" unicode="ä" />
<glyph horiz-adv-x="320" d="M 227 -6 C 207 -6 193 -2 185 4 C 177 10 172 20 170 34 C 158 22 145 13 130 5 C 115 -2 95 -6 69 -6 C 41 -6 20 2 6 19 C -8 35 -13 58 -9 87 C -3 119 17 144 53 164 C 89 184 134 195 188 198 L 189 206 C 190 215 187 222 181 228 C 175 233 164 236 148 236 C 131 236 114 232 98 225 C 82 218 68 210 56 202 L 29 262 C 47 274 67 284 91 293 C 114 301 142 306 174 306 C 212 306 241 297 260 280 C 279 263 286 240 282 212 L 261 78 C 259 71 259 66 261 64 C 263 61 266 60 271 60 C 277 60 282 60 288 62 L 280 8 C 275 4 268 1 259 -1 C 249 -4 239 -6 227 -6 Z M 113 60 C 125 60 136 62 146 67 C 156 71 164 77 170 85 L 180 145 C 146 141 121 135 107 126 C 93 117 85 106 83 94 C 81 82 82 74 88 68 C 93 62 101 60 113 60 Z M 183 318 C 167 318 152 323 140 335 C 127 346 121 361 121 380 C 121 398 127 413 140 425 C 152 436 167 442 183 442 C 199 442 214 436 226 425 C 238 413 245 398 245 380 C 245 361 238 346 226 335 C 214 323 199 318 183 318 Z M 183 360 C 188 360 192 361 196 365 C 200 369 202 374 202 380 C 202 386 200 390 196 394 C 192 397 188 399 183 399 C 177 399 173 397 169 394 C 165 390 164 386 164 380 C 164 374 165 369 169 365 C 173 361 177 360 183 360 Z" unicode="å" />
<glyph horiz-adv-x="480" d="M 201 46 C 184 30 165 18 144 9 C 123 0 100 -5 76 -5 C 45 -5 22 2 7 18 C -8 34 -14 57 -10 87 C -5 113 12 137 44 159 C 75 180 126 193 198 198 C 200 204 202 208 203 212 C 204 220 200 226 192 230 C 183 234 169 236 151 236 C 133 236 118 234 105 230 C 91 226 78 220 64 213 L 44 276 C 65 285 86 292 108 297 C 129 302 151 305 173 305 C 198 305 218 301 233 295 C 247 289 257 282 261 275 C 270 283 283 290 299 297 C 315 304 333 308 354 308 C 398 308 430 294 448 267 C 466 239 471 202 464 154 C 461 142 458 132 456 124 L 267 124 C 267 108 272 94 283 83 C 293 71 310 66 332 66 C 344 66 357 68 371 73 C 385 77 397 83 408 90 L 430 26 C 416 17 397 9 375 3 C 353 -3 329 -7 303 -7 C 283 -7 263 -2 245 7 C 226 16 211 29 201 46 Z M 118 58 C 130 58 141 61 153 67 C 164 73 175 81 185 90 C 184 98 184 106 184 115 C 184 124 185 134 187 146 C 187 148 187 151 188 154 C 156 152 132 145 115 134 C 97 122 87 108 85 92 C 83 81 84 73 90 67 C 95 61 104 58 118 58 Z M 277 182 L 381 182 C 381 198 379 211 373 223 C 367 235 356 241 340 241 C 324 241 311 235 300 223 C 288 211 281 198 277 182 Z" unicode="æ" />
<glyph horiz-adv-x="320" d="M 145 -6 C 95 -6 58 8 34 36 C 10 64 2 101 8 149 C 14 197 32 235 64 263 C 96 291 133 306 177 306 C 215 306 244 298 264 283 C 284 268 298 247 304 220 L 214 190 C 212 204 207 214 201 222 C 195 229 185 233 173 233 C 155 233 141 226 131 212 C 121 197 114 177 112 151 C 108 123 109 101 117 87 C 124 73 137 66 155 66 C 167 66 177 68 186 74 C 195 80 204 89 212 103 L 286 78 C 270 49 251 28 228 14 C 205 0 177 -6 145 -6 Z M 125 -96 C 109 -96 95 -94 84 -92 C 72 -90 63 -87 55 -83 L 77 -44 C 83 -47 90 -49 98 -51 C 106 -53 113 -54 119 -54 C 125 -54 131 -53 135 -51 C 139 -49 141 -46 142 -43 C 142 -39 141 -37 139 -36 C 137 -34 134 -34 130 -34 C 126 -34 123 -34 121 -34 C 118 -34 115 -35 113 -37 L 113 -5 C 119 -2 125 0 131 1 C 137 3 144 4 153 4 C 169 4 180 0 188 -9 C 195 -18 198 -29 196 -43 C 193 -58 185 -71 173 -81 C 160 -91 144 -96 125 -96 Z" unicode="ç" />
<glyph horiz-adv-x="320" d="M 144 -6 C 94 -6 56 7 32 36 C 7 64 -2 102 2 150 C 8 195 26 232 56 262 C 86 291 126 306 174 306 C 221 306 256 292 279 264 C 302 236 311 198 305 152 C 303 140 302 131 300 124 L 95 124 C 93 110 98 97 109 85 C 120 73 138 67 162 67 C 182 67 200 70 215 75 C 229 79 241 86 251 94 L 290 41 C 272 25 252 14 228 6 C 204 -2 176 -6 144 -6 Z M 101 182 L 212 182 C 214 196 211 209 203 221 C 195 233 183 239 166 239 C 148 239 134 233 122 221 C 110 209 103 196 101 182 Z M 161 320 L 90 409 L 203 409 L 239 320 L 161 320 Z" unicode="è" />
<glyph horiz-adv-x="320" d="M 144 -6 C 94 -6 56 7 32 36 C 7 64 -2 102 2 150 C 8 195 26 232 56 262 C 86 291 126 306 174 306 C 221 306 256 292 279 264 C 302 236 311 198 305 152 C 303 140 302 131 300 124 L 95 124 C 93 110 98 97 109 85 C 120 73 138 67 162 67 C 182 67 200 70 215 75 C 229 79 241 86 251 94 L 290 41 C 272 25 252 14 228 6 C 204 -2 176 -6 144 -6 Z M 101 182 L 212 182 C 214 196 211 209 203 221 C 195 233 183 239 166 239 C 148 239 134 233 122 221 C 110 209 103 196 101 182 Z M 121 323 L 184 409 L 297 409 L 198 323 L 121 323 Z" unicode="é" />
<glyph horiz-adv-x="320" d="M 144 -6 C 94 -6 56 7 32 36 C 7 64 -2 102 2 150 C 8 195 26 232 56 262 C 86 291 126 306 174 306 C 221 306 256 292 279 264 C 302 236 311 198 305 152 C 303 140 302 131 300 124 L 95 124 C 93 110 98 97 109 85 C 120 73 138 67 162 67 C 182 67 200 70 215 75 C 229 79 241 86 251 94 L 290 41 C 272 25 252 14 228 6 C 204 -2 176 -6 144 -6 Z M 101 182 L 212 182 C 214 196 211 209 203 221 C 195 233 183 239 166 239 C 148 239 134 233 122 221 C 110 209 103 196 101 182 Z M 83 323 L 168 409 L 220 409 L 274 323 L 210 323 L 184 354 L 147 323 L 83 323 Z" unicode="ê" />
<glyph horiz-adv-x="320" d="M 144 -6 C 94 -6 56 7 32 36 C 7 64 -2 102 2 150 C 8 195 26 232 56 262 C 86 291 126 306 174 306 C 221 306 256 292 279 264 C 302 236 311 198 305 152 C 303 140 302 131 300 124 L 95 124 C 93 110 98 97 109 85 C 120 73 138 67 162 67 C 182 67 200 70 215 75 C 229 79 241 86 251 94 L 290 41 C 272 25 252 14 228 6 C 204 -2 176 -6 144 -6 Z M 101 182 L 212 182 C 214 196 211 209 203 221 C 195 233 183 239 166 239 C 148 239 134 233 122 221 C 110 209 103 196 101 182 Z M 190 325 L 203 403 L 286 403 L 273 325 L 190 325 Z M 77 325 L 90 403 L 173 403 L 160 325 L 77 325 Z" unicode="ë" />
<glyph horiz-adv-x="160" d="M 1 0 L 48 294 L 148 294 L 101 0 L 1 0 Z M 77 320 L 6 409 L 119 409 L 155 320 L 77 320 Z" unicode="ì" />
<glyph horiz-adv-x="160" d="M 1 0 L 48 294 L 148 294 L 101 0 L 1 0 Z M 47 323 L 110 409 L 223 409 L 124 323 L 47 323 Z" unicode="í" />
<glyph horiz-adv-x="160" d="M 1 0 L 48 294 L 148 294 L 101 0 L 1 0 Z M 9 323 L 94 409 L 146 409 L 200 323 L 136 323 L 110 354 L 73 323 L 9 323 Z" unicode="î" />
<glyph horiz-adv-x="160" d="M 1 0 L 48 294 L 148 294 L 101 0 L 1 0 Z M 117 325 L 130 403 L 213 403 L 200 325 L 117 325 Z M 4 325 L 17 403 L 100 403 L 87 325 L 4 325 Z" unicode="ï" />
<glyph horiz-adv-x="352" d="M 253 256 C 251 264 249 272 245 281 C 241 290 236 299 228 309 C 220 319 211 328 199 338 C 187 348 171 358 152 368 L 210 416 C 235 404 256 390 274 374 C 291 357 305 338 315 316 C 325 294 331 269 335 243 C 338 217 338 190 336 164 C 334 137 328 114 319 94 C 309 74 297 56 281 42 C 265 27 247 15 225 7 C 203 -1 177 -6 149 -6 C 101 -6 64 8 38 38 C 12 67 2 107 10 157 C 17 203 35 236 63 258 C 91 279 125 290 165 290 C 188 290 207 285 223 277 C 239 268 249 261 253 256 Z M 157 59 C 174 59 188 64 199 75 C 209 85 218 106 224 138 C 228 170 228 193 222 207 C 216 220 204 227 184 227 C 164 227 149 221 139 209 C 129 197 122 176 118 148 C 112 116 113 93 120 79 C 126 65 139 59 157 59 Z M 176 297 L 153 336 L 295 417 L 319 378 L 176 297 Z" unicode="ð" />
<glyph horiz-adv-x="352" d="M 1 0 L 48 294 L 142 294 L 140 262 C 151 273 166 283 185 292 C 203 301 224 306 246 306 C 274 306 295 298 309 283 C 322 268 326 246 322 217 L 287 0 L 188 0 L 218 188 C 220 200 218 210 214 216 C 209 222 201 225 191 225 C 179 225 167 221 156 215 C 144 209 137 203 133 198 L 101 0 L 1 0 Z M 149 327 L 91 327 C 95 354 103 374 114 386 C 124 398 138 404 155 404 C 164 404 171 403 177 401 C 183 399 188 397 194 394 C 200 391 206 388 212 384 C 218 380 224 379 230 379 C 234 379 238 380 240 384 C 242 388 244 393 246 401 L 301 401 C 297 373 290 353 278 342 C 266 331 252 326 236 326 C 228 326 221 326 215 328 C 208 329 202 331 196 334 C 190 337 185 341 180 345 C 174 349 169 352 165 352 C 160 352 157 350 155 346 C 153 342 151 335 149 327 Z" unicode="ñ" />
<glyph horiz-adv-x="352" d="M 147 -6 C 101 -6 64 8 38 36 C 12 64 1 101 7 149 C 13 197 34 235 68 263 C 102 291 141 306 187 306 C 233 306 269 292 297 265 C 324 238 334 200 328 150 C 322 104 301 66 265 37 C 229 8 190 -6 147 -6 Z M 151 60 C 173 60 190 68 202 84 C 213 100 221 121 225 149 C 229 178 229 200 223 216 C 217 232 204 240 182 240 C 160 240 143 231 133 215 C 122 199 115 179 112 157 C 107 130 107 107 111 88 C 115 69 128 60 151 60 Z M 167 320 L 96 409 L 209 409 L 245 320 L 167 320 Z" unicode="ò" />
<glyph horiz-adv-x="352" d="M 147 -6 C 101 -6 64 8 38 36 C 12 64 1 101 7 149 C 13 197 34 235 68 263 C 102 291 141 306 187 306 C 233 306 269 292 297 265 C 324 238 334 200 328 150 C 322 104 301 66 265 37 C 229 8 190 -6 147 -6 Z M 151 60 C 173 60 190 68 202 84 C 213 100 221 121 225 149 C 229 178 229 200 223 216 C 217 232 204 240 182 240 C 160 240 143 231 133 215 C 122 199 115 179 112 157 C 107 130 107 107 111 88 C 115 69 128 60 151 60 Z M 127 323 L 190 409 L 303 409 L 204 323 L 127 323 Z" unicode="ó" />
<glyph horiz-adv-x="352" d="M 147 -6 C 101 -6 64 8 38 36 C 12 64 1 101 7 149 C 13 197 34 235 68 263 C 102 291 141 306 187 306 C 233 306 269 292 297 265 C 324 238 334 200 328 150 C 322 104 301 66 265 37 C 229 8 190 -6 147 -6 Z M 151 60 C 173 60 190 68 202 84 C 213 100 221 121 225 149 C 229 178 229 200 223 216 C 217 232 204 240 182 240 C 160 240 143 231 133 215 C 122 199 115 179 112 157 C 107 130 107 107 111 88 C 115 69 128 60 151 60 Z M 99 323 L 184 409 L 236 409 L 290 323 L 226 323 L 200 354 L 163 323 L 99 323 Z" unicode="ô" />
<glyph horiz-adv-x="352" d="M 147 -6 C 101 -6 64 8 38 36 C 12 64 1 101 7 149 C 13 197 34 235 68 263 C 102 291 141 306 187 306 C 233 306 269 292 297 265 C 324 238 334 200 328 150 C 322 104 301 66 265 37 C 229 8 190 -6 147 -6 Z M 151 60 C 173 60 190 68 202 84 C 213 100 221 121 225 149 C 229 178 229 200 223 216 C 217 232 204 240 182 240 C 160 240 143 231 133 215 C 122 199 115 179 112 157 C 107 130 107 107 111 88 C 115 69 128 60 151 60 Z M 154 327 L 96 327 C 100 354 108 374 119 386 C 129 398 143 404 160 404 C 169 404 176 403 182 401 C 188 399 193 397 199 394 C 205 391 211 388 217 384 C 223 380 229 379 235 379 C 239 379 243 380 245 384 C 247 388 249 393 251 401 L 306 401 C 302 373 295 353 283 342 C 271 331 257 326 241 326 C 233 326 226 326 220 328 C 213 329 207 331 201 334 C 195 337 190 341 185 345 C 179 349 174 352 170 352 C 165 352 162 350 160 346 C 158 342 156 335 154 327 Z" unicode="õ" />
<glyph horiz-adv-x="352" d="M 147 -6 C 101 -6 64 8 38 36 C 12 64 1 101 7 149 C 13 197 34 235 68 263 C 102 291 141 306 187 306 C 233 306 269 292 297 265 C 324 238 334 200 328 150 C 322 104 301 66 265 37 C 229 8 190 -6 147 -6 Z M 151 60 C 173 60 190 68 202 84 C 213 100 221 121 225 149 C 229 178 229 200 223 216 C 217 232 204 240 182 240 C 160 240 143 231 133 215 C 122 199 115 179 112 157 C 107 130 107 107 111 88 C 115 69 128 60 151 60 Z M 211 325 L 224 403 L 307 403 L 294 325 L 211 325 Z M 98 325 L 111 403 L 194 403 L 181 325 L 98 325 Z" unicode="ö" />
<glyph horiz-adv-x="384" d="M 41 163 L 41 232 L 344 232 L 344 163 L 41 163 Z M 192 32 C 178 32 165 37 155 48 C 144 59 139 72 139 86 C 139 100 143 112 153 123 C 162 134 175 140 192 140 C 208 140 220 134 230 123 C 240 112 245 100 245 86 C 245 72 239 59 229 48 C 218 37 206 32 192 32 Z M 192 254 C 178 254 165 259 155 270 C 144 280 139 293 139 308 C 139 322 143 334 153 345 C 162 355 175 361 192 361 C 208 361 220 355 230 345 C 240 334 245 322 245 308 C 245 293 239 280 229 270 C 218 259 206 254 192 254 Z" unicode="÷" />
<glyph horiz-adv-x="352" d="M 300 303 L 350 303 L 34 -10 L -16 -10 L 300 303 Z M 147 -6 C 101 -6 64 8 38 36 C 12 64 1 101 7 149 C 13 197 34 235 68 263 C 102 291 141 306 187 306 C 233 306 269 292 297 265 C 324 238 334 200 328 150 C 322 104 301 66 265 37 C 229 8 190 -6 147 -6 Z M 151 60 C 173 60 190 68 202 84 C 213 100 221 121 225 149 C 229 178 229 200 223 216 C 217 232 204 240 182 240 C 160 240 143 231 133 215 C 122 199 115 179 112 157 C 107 130 107 107 111 88 C 115 69 128 60 151 60 Z" unicode="ø" />
<glyph horiz-adv-x="352" d="M 94 -6 C 66 -6 45 2 31 20 C 17 38 12 63 17 96 L 49 294 L 149 294 L 119 105 C 116 89 117 78 123 72 C 128 65 137 62 150 62 C 160 62 170 64 179 68 C 188 72 196 77 202 84 L 236 294 L 335 294 L 300 77 L 294 0 L 195 0 L 196 35 C 184 19 170 9 156 3 C 141 -3 120 -6 94 -6 Z M 177 320 L 106 409 L 219 409 L 255 320 L 177 320 Z" unicode="ù" />
<glyph horiz-adv-x="352" d="M 94 -6 C 66 -6 45 2 31 20 C 17 38 12 63 17 96 L 49 294 L 149 294 L 119 105 C 116 89 117 78 123 72 C 128 65 137 62 150 62 C 160 62 170 64 179 68 C 188 72 196 77 202 84 L 236 294 L 335 294 L 300 77 L 294 0 L 195 0 L 196 35 C 184 19 170 9 156 3 C 141 -3 120 -6 94 -6 Z M 142 323 L 205 409 L 318 409 L 219 323 L 142 323 Z" unicode="ú" />
<glyph horiz-adv-x="352" d="M 94 -6 C 66 -6 45 2 31 20 C 17 38 12 63 17 96 L 49 294 L 149 294 L 119 105 C 116 89 117 78 123 72 C 128 65 137 62 150 62 C 160 62 170 64 179 68 C 188 72 196 77 202 84 L 236 294 L 335 294 L 300 77 L 294 0 L 195 0 L 196 35 C 184 19 170 9 156 3 C 141 -3 120 -6 94 -6 Z M 99 323 L 184 409 L 236 409 L 290 323 L 226 323 L 200 354 L 163 323 L 99 323 Z" unicode="û" />
<glyph horiz-adv-x="352" d="M 94 -6 C 66 -6 45 2 31 20 C 17 38 12 63 17 96 L 49 294 L 149 294 L 119 105 C 116 89 117 78 123 72 C 128 65 137 62 150 62 C 160 62 170 64 179 68 C 188 72 196 77 202 84 L 236 294 L 335 294 L 300 77 L 294 0 L 195 0 L 196 35 C 184 19 170 9 156 3 C 141 -3 120 -6 94 -6 Z M 211 325 L 224 403 L 307 403 L 294 325 L 211 325 Z M 98 325 L 111 403 L 194 403 L 181 325 L 98 325 Z" unicode="ü" />
<glyph horiz-adv-x="320" d="M 43 -106 C 33 -106 24 -105 16 -105 C 8 -104 0 -103 -8 -102 L 3 -32 C 11 -34 22 -35 34 -35 C 49 -35 61 -31 70 -23 C 78 -15 85 -8 89 0 L 9 294 L 115 294 L 159 109 L 254 294 L 342 294 L 180 -6 C 160 -44 138 -70 116 -84 C 93 -98 69 -106 43 -106 Z M 136 323 L 199 409 L 312 409 L 213 323 L 136 323 Z" unicode="ý" />
<glyph horiz-adv-x="352" d="M -15 -103 L 65 409 L 165 409 L 147 294 L 138 262 C 148 274 161 284 177 293 C 193 301 213 306 237 306 C 269 306 294 293 314 268 C 333 243 338 204 330 152 C 322 101 304 62 276 35 C 248 7 214 -6 176 -6 C 160 -6 146 -3 134 0 C 122 4 112 11 104 19 L 85 -103 L -15 -103 Z M 157 60 C 173 60 188 67 200 81 C 212 95 221 117 227 149 C 231 179 230 200 223 212 C 215 224 203 231 187 231 C 175 231 164 228 155 223 C 145 217 138 212 134 206 L 114 81 C 116 75 121 70 127 66 C 133 62 143 60 157 60 Z" unicode="þ" />
<glyph horiz-adv-x="320" d="M 43 -106 C 33 -106 24 -105 16 -105 C 8 -104 0 -103 -8 -102 L 3 -32 C 11 -34 22 -35 34 -35 C 49 -35 61 -31 70 -23 C 78 -15 85 -8 89 0 L 9 294 L 115 294 L 159 109 L 254 294 L 342 294 L 180 -6 C 160 -44 138 -70 116 -84 C 93 -98 69 -106 43 -106 Z M 205 325 L 218 403 L 301 403 L 288 325 L 205 325 Z M 92 325 L 105 403 L 188 403 L 175 325 L 92 325 Z" unicode="ÿ" />
<glyph horiz-adv-x="384" d="M 14 0 L 49 220 L 4 220 L 17 294 L 62 294 L 64 316 C 68 344 83 367 108 384 C 133 401 165 410 203 410 C 218 410 232 408 246 406 C 260 403 270 400 278 397 L 257 330 C 253 332 246 334 236 337 C 226 340 216 342 207 342 C 191 342 181 339 175 334 C 169 329 165 322 164 313 L 162 294 L 359 294 L 312 0 L 212 0 L 247 220 L 150 220 L 115 0 L 14 0 Z" unicode="ﬁ" />
<glyph horiz-adv-x="384" d="M 212 0 L 277 409 L 377 409 L 312 0 L 212 0 Z M 62 294 L 65 316 C 67 342 80 364 102 382 C 124 400 151 410 182 410 C 199 410 214 409 226 406 C 238 403 246 401 250 400 L 232 334 C 228 335 223 337 215 339 C 207 341 200 342 193 342 C 185 342 178 339 173 334 C 167 329 164 322 164 313 L 162 294 L 233 294 L 222 220 L 150 220 L 115 0 L 14 0 L 49 220 L 4 220 L 17 294 L 62 294 Z" unicode="ﬂ" />
<glyph horiz-adv-x="256" d="M 130 80 C 104 80 81 88 62 106 C 42 124 33 148 33 178 C 33 206 42 229 62 247 C 81 265 104 274 130 274 C 156 274 179 265 199 248 C 218 230 228 207 228 178 C 228 148 218 124 199 106 C 179 88 156 80 130 80 Z" unicode="•" />
<glyph horiz-adv-x="256" d="M 166 333 C 138 333 119 340 109 354 C 98 368 93 386 94 409 L 142 409 C 142 401 145 396 151 392 C 157 388 164 387 174 387 C 184 387 192 388 197 392 C 201 395 205 401 208 409 L 264 409 C 256 386 245 368 230 354 C 214 340 193 333 166 333 Z" unicode="˘" />
<glyph horiz-adv-x="256" d="M 119 332 L 130 403 L 210 403 L 199 332 L 119 332 Z" unicode="˙" />
<glyph horiz-adv-x="256" d="M 156 318 C 140 318 125 323 113 335 C 100 346 94 361 94 380 C 94 398 100 413 113 425 C 125 436 140 442 156 442 C 172 442 187 436 199 425 C 211 413 218 398 218 380 C 218 361 211 346 199 335 C 187 323 172 318 156 318 Z M 156 360 C 161 360 165 361 169 365 C 173 369 175 374 175 380 C 175 386 173 390 169 394 C 165 397 161 399 156 399 C 150 399 146 397 142 394 C 138 390 137 386 137 380 C 137 374 138 369 142 365 C 146 361 150 360 156 360 Z" unicode="˚" />
<glyph horiz-adv-x="800" d="M 96 0 L 386 381 L 442 381 L 152 0 L 96 0 Z M 143 387 C 174 387 199 376 218 356 C 237 336 245 306 241 268 C 237 232 223 203 200 181 C 177 159 150 148 119 148 C 87 148 61 159 42 182 C 23 204 16 233 20 267 C 24 303 38 332 61 354 C 84 376 111 387 143 387 Z M 125 211 C 132 211 138 214 143 220 C 147 226 151 242 153 266 C 155 291 155 307 152 313 C 149 319 144 322 136 322 C 128 322 122 318 118 311 C 114 304 110 290 108 268 C 104 241 105 225 109 219 C 113 213 118 211 125 211 Z M 422 233 C 454 233 479 223 498 203 C 517 183 524 153 520 114 C 516 77 503 48 480 26 C 456 4 429 -6 397 -6 C 365 -6 339 4 321 25 C 303 45 296 75 300 113 C 304 149 317 178 341 200 C 364 222 391 233 422 233 Z M 403 57 C 410 57 416 60 422 66 C 427 72 431 87 434 112 C 436 138 435 154 432 160 C 429 165 424 168 416 168 C 408 168 401 164 397 158 C 392 151 388 136 385 114 C 383 86 384 70 388 65 C 392 59 397 57 403 57 Z M 678 233 C 710 233 735 223 754 203 C 773 183 780 153 776 114 C 772 77 759 48 736 26 C 712 4 685 -6 653 -6 C 621 -6 595 4 577 25 C 559 45 552 75 556 113 C 560 149 573 178 597 200 C 620 222 647 233 678 233 Z M 659 57 C 666 57 672 60 678 66 C 683 72 687 87 690 112 C 692 138 691 154 688 160 C 685 165 680 168 672 168 C 664 168 657 164 653 158 C 648 151 644 136 641 114 C 639 86 640 70 644 65 C 648 59 653 57 659 57 Z" unicode="‰" />
<glyph horiz-adv-x="480" d="M 214 183 L 214 381 L 296 381 L 340 256 L 384 381 L 462 381 L 462 183 L 400 183 L 400 285 L 364 183 L 306 183 L 270 284 L 270 183 L 214 183 Z M 80 183 L 80 325 L 33 325 L 33 381 L 204 381 L 204 325 L 157 325 L 157 183 L 80 183 Z" unicode="™" />
<glyph horiz-adv-x="256" d="M 153 -84 C 139 -92 127 -97 117 -100 C 106 -102 95 -104 85 -104 C 69 -104 56 -99 47 -89 C 38 -79 35 -67 38 -52 C 39 -42 43 -32 51 -24 C 59 -15 69 -7 82 0 L 136 0 C 124 -6 116 -12 111 -18 C 105 -24 102 -30 102 -36 C 101 -40 102 -44 105 -47 C 107 -49 111 -51 117 -51 C 121 -51 125 -50 129 -49 C 133 -48 137 -46 143 -44 L 153 -84 Z" unicode="˛" />
<glyph horiz-adv-x="416" d="M 217 310 C 197 310 179 302 163 286 C 146 270 134 242 128 202 C 121 160 121 129 127 109 C 133 88 143 74 156 67 L 146 0 L -17 0 L -6 71 L 83 71 C 64 77 48 94 34 120 C 20 146 16 180 23 223 C 29 264 52 302 90 336 C 128 370 175 387 229 387 C 283 387 324 370 352 338 C 379 305 389 267 382 223 C 375 180 359 146 335 120 C 311 94 287 77 263 71 L 365 71 L 354 0 L 191 0 L 201 67 C 215 74 229 88 242 109 C 255 129 265 160 272 202 C 278 239 275 266 264 284 C 253 301 237 310 217 310 Z" unicode="Ω" />
<glyph horiz-adv-x="256" d="M 116 327 L 58 327 C 62 354 70 374 81 386 C 91 398 105 404 122 404 C 131 404 138 403 144 401 C 150 399 155 397 161 394 C 167 391 173 388 179 384 C 185 380 191 379 197 379 C 201 379 205 380 207 384 C 209 388 211 393 213 401 L 268 401 C 264 373 257 353 245 342 C 233 331 219 326 203 326 C 195 326 188 326 182 328 C 175 329 169 331 163 334 C 157 337 152 341 147 345 C 141 349 136 352 132 352 C 127 352 124 350 122 346 C 120 342 118 335 116 327 Z" unicode="˜" />
<glyph horiz-adv-x="224" d="M 192 203 L 185 157 L 116 157 L 123 203 L 6 203 L 14 254 L 162 402 L 224 402 L 201 258 L 234 258 L 225 203 L 192 203 Z M 77 254 L 133 254 L 144 318 L 77 254 Z" unicode="⁴" />
<glyph horiz-adv-x="256" d="M 151 321 L 221 409 L 297 409 L 216 321 L 151 321 Z M 45 321 L 115 409 L 190 409 L 110 321 L 45 321 Z" unicode="˝" />
<glyph horiz-adv-x="160" d="M 1 0 L 48 294 L 148 294 L 101 0 L 1 0 Z" unicode="ı" />
<glyph horiz-adv-x="288" d="M 12 0 L 73 381 L 175 381 L 126 75 L 287 75 L 275 0 L 12 0 Z M 22 187 L 245 253 L 234 184 L 11 119 L 22 187 Z" unicode="Ł" />
<glyph horiz-adv-x="160" d="M 1 184 L 165 232 L 154 165 L -10 116 L 1 184 Z M 0 0 L 65 409 L 166 409 L 101 0 L 0 0 Z" unicode="ł" />
<glyph horiz-adv-x="256" d="M 61 323 L 146 409 L 198 409 L 252 323 L 188 323 L 162 354 L 125 323 L 61 323 Z" unicode="ˆ" />
<glyph horiz-adv-x="544" d="M 173 0 C 119 0 78 17 49 52 C 19 86 10 136 21 202 C 29 258 55 301 98 333 C 140 365 190 381 246 381 L 562 381 L 550 307 L 378 307 L 367 236 L 502 236 L 489 158 L 354 158 L 341 75 L 520 75 L 508 0 L 173 0 Z M 198 74 L 237 74 L 274 307 L 231 307 C 209 307 188 298 169 280 C 149 262 136 232 129 190 C 121 145 124 114 138 98 C 152 82 172 74 198 74 Z" unicode="Œ" />
<glyph horiz-adv-x="544" d="M 150 57 C 165 57 178 64 188 80 C 198 95 205 117 210 146 C 215 181 215 205 211 218 C 207 231 196 238 180 238 C 162 238 149 231 140 217 C 131 203 124 180 119 146 C 113 113 113 90 119 77 C 124 63 134 57 150 57 Z M 246 36 C 230 22 212 12 193 5 C 174 -2 155 -6 136 -6 C 92 -6 59 7 36 35 C 13 62 6 100 15 149 C 22 197 42 236 74 264 C 106 292 144 306 187 306 C 213 306 233 303 248 297 C 262 291 275 279 287 262 C 297 274 312 284 330 293 C 348 301 370 306 397 306 C 440 306 471 292 491 265 C 510 237 516 200 508 153 C 506 144 504 134 501 124 L 303 124 C 302 106 307 92 319 81 C 330 70 347 65 370 65 C 385 65 400 67 415 73 C 429 79 441 85 451 91 L 474 28 C 460 18 441 10 419 4 C 397 -2 374 -6 352 -6 C 326 -6 304 -2 286 5 C 268 13 254 23 246 36 Z M 312 182 L 423 182 C 424 197 421 210 414 222 C 406 234 394 240 378 240 C 364 240 350 234 338 223 C 325 212 316 198 312 182 Z" unicode="œ" />
<glyph horiz-adv-x="192" d="M 157 26 L 2 127 L 11 186 L 198 287 L 186 211 L 81 158 L 170 108 L 157 26 Z" unicode="‹" />
<glyph horiz-adv-x="192" d="M -14 26 L -2 102 L 102 155 L 13 206 L 26 287 L 181 186 L 172 127 L -14 26 Z" unicode="›" />
<glyph horiz-adv-x="352" d="M 128 -6 C 91 -6 60 0 35 10 C 10 20 -7 33 -19 49 L 43 115 C 55 101 69 90 87 82 C 105 74 124 70 145 70 C 165 70 180 73 190 79 C 200 85 206 93 209 104 C 211 118 206 129 193 135 C 179 141 159 147 132 155 C 91 165 64 183 51 207 C 37 231 34 257 41 287 C 47 319 65 343 95 361 C 125 378 162 387 207 387 C 245 387 274 383 294 375 C 314 367 331 356 343 343 L 281 273 C 273 281 260 289 243 297 C 226 305 210 309 194 310 C 179 310 167 307 158 303 C 148 299 143 291 141 279 C 138 267 142 259 153 253 C 163 247 183 240 211 234 C 247 224 275 210 295 191 C 315 171 321 143 313 105 C 304 67 284 39 253 21 C 221 3 180 -6 128 -6 Z M 319 496 L 234 410 L 182 410 L 128 496 L 192 496 L 218 465 L 255 496 L 319 496 Z" unicode="Š" />
<glyph horiz-adv-x="288" d="M 112 -6 C 72 -6 40 -1 17 8 C -5 17 -21 26 -30 36 L 22 96 C 30 86 44 78 64 72 C 84 66 104 63 124 63 C 136 63 146 64 154 68 C 162 71 167 77 169 85 C 170 93 167 98 161 101 C 154 104 140 108 120 113 C 80 121 52 133 35 151 C 18 169 12 193 17 223 C 21 249 36 270 62 284 C 88 298 121 306 159 306 C 189 306 214 302 235 295 C 256 288 271 281 280 274 L 236 212 C 224 220 208 226 190 230 C 172 234 155 237 141 237 C 131 237 123 235 118 232 C 113 229 110 226 110 223 C 108 216 113 211 123 207 C 133 203 148 199 166 196 C 205 188 231 175 245 159 C 259 142 263 119 259 91 C 254 62 239 39 214 21 C 188 3 154 -6 112 -6 Z M 265 409 L 180 323 L 128 323 L 74 409 L 138 409 L 164 378 L 201 409 L 265 409 Z" unicode="š" />
<glyph horiz-adv-x="288" d="M -33 -87 L -10 -19 C -6 -21 -1 -23 5 -25 C 11 -27 17 -28 25 -28 C 33 -28 39 -26 43 -22 C 47 -18 51 -10 54 2 L 105 303 C 109 329 120 350 138 364 C 156 378 179 385 207 385 C 223 385 239 382 255 377 C 271 371 283 366 292 360 L 266 287 C 260 289 253 292 247 294 C 240 296 232 298 223 298 C 214 298 207 295 202 291 C 197 287 194 280 193 272 L 144 -24 C 136 -55 125 -77 110 -89 C 94 -101 72 -107 44 -107 C 26 -107 10 -104 -3 -100 C -16 -95 -26 -91 -33 -87 Z" unicode="∫" />
<glyph horiz-adv-x="256" d="M 268 409 L 183 323 L 131 323 L 77 409 L 141 409 L 167 378 L 204 409 L 268 409 Z" unicode="ˇ" />
<glyph horiz-adv-x="352" d="M 96 0 L 119 143 L 11 381 L 124 381 L 192 229 L 307 381 L 408 381 L 223 148 L 199 0 L 96 0 Z M 229 412 L 242 490 L 325 490 L 312 412 L 229 412 Z M 116 412 L 129 490 L 212 490 L 199 412 L 116 412 Z" unicode="Ÿ" />
<glyph horiz-adv-x="448" d="M 61 -6 C 45 -6 30 0 17 13 C 3 25 -3 41 -3 60 C -3 75 2 89 13 103 C 23 117 39 124 61 124 C 79 124 95 117 107 105 C 119 92 126 77 126 60 C 126 42 119 27 106 14 C 93 0 78 -6 61 -6 Z M 209 -6 C 193 -6 178 0 165 13 C 151 25 145 41 145 60 C 145 75 150 89 161 103 C 171 117 187 124 209 124 C 227 124 243 117 255 105 C 267 92 273 77 273 60 C 273 42 266 27 254 14 C 241 0 226 -6 209 -6 Z M 357 -6 C 341 -6 326 0 313 13 C 299 25 293 41 293 60 C 293 75 298 89 309 103 C 319 117 335 124 357 124 C 375 124 391 117 403 105 C 415 92 421 77 421 60 C 421 42 414 27 402 14 C 389 0 374 -6 357 -6 Z" unicode="…" />
<glyph horiz-adv-x="352" d="M -14 0 L -5 56 L 217 306 L 47 306 L 59 381 L 368 381 L 359 325 L 132 75 L 319 75 L 307 0 L -14 0 Z M 329 496 L 244 410 L 192 410 L 138 496 L 202 496 L 228 465 L 265 496 L 329 496 Z" unicode="Ž" />
<glyph horiz-adv-x="288" d="M -19 0 L -8 56 L 150 228 L 16 228 L 26 294 L 291 294 L 281 238 L 120 67 L 264 67 L 254 0 L -19 0 Z M 284 409 L 199 323 L 147 323 L 93 409 L 157 409 L 183 378 L 220 409 L 284 409 Z" unicode="ž" />
<glyph horiz-adv-x="384" d="M 47 77 L 47 155 L 247 207 L 47 259 L 47 336 L 332 248 L 332 166 L 47 77 Z M 47 6 L 47 71 L 331 71 L 331 6 L 47 6 Z" unicode="≥" />
<glyph horiz-adv-x="288" d="M 41 166 L 61 239 L 250 239 L 230 166 L 41 166 Z M -52 -88 L -24 -20 C -20 -22 -15 -24 -9 -26 C -3 -28 3 -29 11 -29 C 19 -29 25 -27 30 -23 C 34 -19 38 -11 42 2 L 116 303 C 122 329 135 350 154 364 C 173 378 197 386 225 386 C 241 386 257 383 273 378 C 288 372 300 367 308 362 L 276 288 C 270 290 263 293 257 295 C 251 297 243 299 234 299 C 225 299 218 296 213 292 C 207 288 203 281 201 273 L 130 -24 C 120 -56 107 -78 91 -90 C 74 -102 51 -108 23 -108 C 5 -108 -9 -105 -22 -101 C -35 -96 -45 -92 -52 -88 Z" unicode="ƒ" />
<glyph horiz-adv-x="384" d="M -26 0 L 173 384 L 267 384 L 341 0 L -26 0 Z M 93 74 L 228 74 L 197 271 L 93 74 Z" unicode="Δ" />
<glyph horiz-adv-x="96" d="M -132 0 L 169 381 L 228 381 L -71 0 L -132 0 Z" unicode="⁄" />
<glyph horiz-adv-x="416" d="M 217 310 C 197 310 179 302 163 286 C 146 270 134 242 128 202 C 121 160 121 129 127 109 C 133 88 143 74 156 67 L 146 0 L -17 0 L -6 71 L 83 71 C 64 77 48 94 34 120 C 20 146 16 180 23 223 C 29 264 52 302 90 336 C 128 370 175 387 229 387 C 283 387 324 370 352 338 C 379 305 389 267 382 223 C 375 180 359 146 335 120 C 311 94 287 77 263 71 L 365 71 L 354 0 L 191 0 L 201 67 C 215 74 229 88 242 109 C 255 129 265 160 272 202 C 278 239 275 266 264 284 C 253 301 237 310 217 310 Z" unicode="Ω" />
<glyph horiz-adv-x="256" d="M 80 332 L 89 392 L 249 392 L 240 332 L 80 332 Z" unicode="ˉ" />
<glyph horiz-adv-x="384" d="M 59 88 C 57 96 57 104 57 112 C 57 132 62 149 74 163 C 85 177 102 185 124 185 C 140 184 153 182 165 178 C 177 174 187 170 195 166 C 203 162 212 158 220 156 C 228 153 235 152 241 152 C 251 152 259 154 263 158 C 267 162 269 168 269 175 C 269 177 268 179 268 182 L 325 182 C 326 173 327 165 327 158 C 327 138 319 122 305 108 C 291 94 275 87 257 87 C 243 87 231 89 221 93 C 211 97 201 101 193 105 C 184 109 175 112 167 115 C 159 117 151 119 145 119 C 135 119 127 116 123 112 C 118 107 116 102 116 96 C 116 94 116 91 117 89 L 59 88 Z M 59 208 C 57 216 57 224 57 232 C 57 252 62 269 74 283 C 85 297 102 305 124 305 C 140 304 153 302 165 298 C 177 294 187 290 195 286 C 203 282 212 278 220 276 C 228 273 235 272 241 272 C 251 272 259 274 263 278 C 267 282 269 288 269 295 C 269 297 268 299 268 302 L 325 302 C 326 293 327 285 327 278 C 327 258 319 242 305 228 C 291 214 275 207 257 207 C 243 207 231 209 221 213 C 211 217 201 221 193 225 C 184 229 175 232 167 235 C 159 237 151 239 145 239 C 135 239 127 236 123 232 C 118 227 116 222 116 216 C 116 214 116 211 117 209 L 59 208 Z" unicode="≈" />
<glyph horiz-adv-x="352" d="M 23 -106 C 7 -106 -2 -100 -7 -90 C -11 -80 -13 -67 -11 -51 C -9 -42 -5 -25 3 0 C 11 26 16 45 19 59 C 21 73 23 83 25 91 L 57 294 L 158 294 L 127 111 C 124 93 125 80 131 74 C 136 68 145 65 158 65 C 168 65 177 66 185 70 C 193 74 201 79 207 86 L 240 294 L 339 294 L 300 43 L 295 0 L 201 0 L 203 36 C 196 24 188 15 178 7 C 168 -1 153 -5 133 -5 C 119 -5 109 -3 101 1 C 93 5 87 10 83 17 C 81 5 80 -6 79 -20 C 78 -33 77 -45 75 -57 C 73 -70 67 -81 59 -91 C 51 -101 39 -106 23 -106 Z" unicode="μ" />
<glyph horiz-adv-x="384" d="M 13 0 L 48 225 L 10 225 L 21 294 L 360 294 L 349 225 L 299 225 L 279 94 C 277 84 277 77 281 74 C 285 70 290 69 296 69 C 302 69 309 69 315 71 C 321 72 328 74 335 78 L 325 14 C 313 6 302 1 292 0 C 282 -2 270 -4 255 -4 C 227 -4 207 2 194 16 C 181 29 177 52 182 84 L 204 225 L 148 225 L 113 0 L 13 0 Z" unicode="π" />
<glyph horiz-adv-x="384" d="M 41 90 L 41 156 L 344 156 L 344 90 L 41 90 Z M 41 236 L 41 302 L 344 302 L 344 236 L 41 236 Z M 144 38 L 77 38 L 242 350 L 308 350 L 144 38 Z" unicode="≠" />
<glyph horiz-adv-x="288" d="M 112 -23 L 19 189 L 112 401 L 180 401 L 273 189 L 180 -23 L 112 -23 Z M 153 56 L 203 176 L 139 322 L 90 202 L 153 56 Z" unicode="◊" />
<glyph horiz-adv-x="384" d="M 337 77 L 52 166 L 52 248 L 337 336 L 337 259 L 138 207 L 337 155 L 337 77 Z M 53 6 L 53 71 L 337 71 L 337 6 L 53 6 Z" unicode="≤" />
<glyph horiz-adv-x="352" d="M 108 -103 L 107 95 L 147 198 L 29 183 L 44 270 L 157 256 L 155 409 L 262 409 L 210 256 L 334 270 L 319 183 L 200 198 L 207 95 L 136 -103 L 108 -103 Z" unicode="†" />
</font>
</defs>
</svg>
